<?xml version="1.0" standalone="no"?>
<!DOCTYPE svg PUBLIC "-//W3C//DTD SVG 1.1//EN" "http://www.w3.org/Graphics/SVG/1.1/DTD/svg11.dtd" >
<svg>
<metadata>
Created by FontForge 20090914 at Thu Mar 28 03:09:52 2013
 By www-data
Copyright (c) 1991, 1992 Adobe Systems Incorporated.  All Rights Reserved.Minion is a trademark of Adobe Systems Incorporated.
</metadata>
<defs>
<font id="Minion-CyrillicSemibold" horiz-adv-x="486" >
  <font-face 
    font-family="Minion Cyrillic Semibold"
    font-weight="400"
    font-stretch="normal"
    units-per-em="1000"
    panose-1="0 0 0 0 0 0 0 0 0 0"
    ascent="800"
    descent="-200"
    x-height="434"
    cap-height="650"
    bbox="-34 -250 1126 917"
    underline-thickness="50"
    underline-position="-75"
    unicode-range="U+0020-U+2122"
  />
<missing-glyph horiz-adv-x="750" 
d="M46 0v750h658v-750h-658zM658 46v658h-566v-658h566z" />
    <glyph glyph-name=".notdef" horiz-adv-x="750" 
d="M46 0v750h658v-750h-658zM658 46v658h-566v-658h566z" />
    <glyph glyph-name="space" unicode=" " horiz-adv-x="220" 
 />
    <glyph glyph-name="exclam" unicode="!" horiz-adv-x="274" 
d="M136 -12c-19.333 0 -35.5 6.49902 -48.5 19.499s-19.5 30.5 -19.5 52.5c0 20 6.33301 36.667 19 50s29 20 49 20s36.667 -6.66699 50 -20s20 -30 20 -50c0 -21.333 -6.66699 -38.666 -20 -51.999s-30 -20 -50 -20zM136 664.999c45.333 0 68 -11.333 68 -34
c0 -14 -2.33301 -38.667 -7 -74l-43 -355c-2 -5.33301 -7.66699 -8 -17 -8s-15 2.66699 -17 8l-43 355c-4.66699 35.333 -7 60 -7 74c0 11.333 5 19.833 15 25.5s27 8.5 51 8.5z" />
    <glyph glyph-name="quotedbl" unicode="&#x22;" horiz-adv-x="420" 
d="M106 434l-34.001 195.998c-2 14.667 -3.83301 26.334 -5.5 35.001s-2.5 14.334 -2.5 17.001c0 18.667 18.667 28 56 28c38.667 0 58 -9.33301 58 -28c0 -6 -0.833008 -13.5 -2.5 -22.5l-5.5 -29.5l-34 -196c-3.33301 -4 -8.66602 -6 -15.999 -6s-12 2 -14 6z
M283.999 433.998l-34.001 195.998c-2 14.667 -3.83301 26.334 -5.5 35.001s-2.5 14.334 -2.5 17.001c0 18.667 19.333 28 58 28c37.333 0 56 -9.33301 56 -28c0 -9.33301 -1 -18.833 -3 -28.5l-5 -23.5l-34 -196c-3.33301 -4 -8.66602 -6 -15.999 -6s-12 2 -14 6z" />
    <glyph glyph-name="numbersign" unicode="#" 
d="M318 395h-106l-33 -143h106zM467 395h-103l-32 -143h94l-11 -65h-98l-41 -187h-48l42 187h-106l-42 -187h-45l42 187h-109l9 65h115l32 143h-104l9 65h109l37 164h46l-37 -164h106l37 164h45l-36 -164h99z" />
    <glyph glyph-name="dollar" unicode="$" 
d="M228 388v197c-28 -4 -49.333 -15 -64 -33s-22 -40 -22 -66c0 -22.667 8.33301 -42.667 25 -60c14 -14 34.333 -26.667 61 -38zM270 255v-214c26.667 4 48 15 64 33s24 41.333 24 70c0 22.667 -5 41.667 -15 57c-14 21.333 -38.333 39.333 -73 54zM270 584
l-0.00195312 -212.999l36 -13c41.333 -15.333 74.333 -35.333 99 -60c30 -30.667 45 -67.334 45 -110.001c0 -52 -16.167 -94.167 -48.5 -126.5s-76.166 -51.833 -131.499 -58.5v-85h-42v82c-37.333 -0 -72 5.33301 -104 16c-18.667 6 -37.334 14.667 -56.001 26
c-2 6 -6.5 24.667 -13.5 56s-13.167 57.333 -18.5 78l32 6c12.667 -36 29.334 -65.667 50.001 -89c31.333 -35.333 68 -53 110 -53v232l-38 16c-40.667 16.667 -72 37 -94 61c-25.333 28 -38 61 -38 99c0 46 14.667 84.667 44 116s71.333 50.333 126 57v77h42v-74
c14.667 0 30.334 -1 47.001 -3s31 -5 43 -9l36 -8c2 -14 4.33301 -28 7 -42c8.66699 -48 13.667 -77.333 15 -88l-30 -4c-9.33301 30.667 -21.333 54.667 -36 72c-20.667 24 -48 38 -82 42z" />
    <glyph glyph-name="percent" unicode="%" horiz-adv-x="850" 
d="M650 376c52 0 92.667 -21.6689 122 -65.002c25.333 -37.333 38 -80.333 38 -129c0 -48 -12.333 -90.333 -37 -127c-30 -44.667 -71 -67 -123 -67s-93.333 22 -124 66c-25.333 36.667 -38 79.334 -38 128.001s12.667 91.334 38 128.001c30 44 71.333 66 124 66z
M650 341.998c-28 0 -48.667 -19.667 -62 -59c-9.33301 -28 -14 -61.667 -14 -101c0 -38.667 4.66699 -72 14 -100c13.333 -40 34 -60 62 -60c28.667 0 49.334 20 62.001 60c8 26 12 59.333 12 100c0 39.333 -4 72.333 -12 99c-12.667 40.667 -33.334 61 -62.001 61z
M202 635.998c52 0 92.667 -21.6689 122 -65.002c25.333 -37.333 38 -80.333 38 -129c0 -48 -12.333 -90.333 -37 -127c-30 -44.667 -71 -67 -123 -67s-93.333 22 -124 66c-25.333 36.667 -38 79.334 -38 128.001s12.667 91.334 38 128.001c30 44 71.333 66 124 66z
M202 601.996c-28 0 -48.667 -19.667 -62 -59c-9.33301 -28 -14 -61.667 -14 -101c0 -38.667 4.66699 -72 14 -100c13.333 -40 34 -60 62 -60c28.667 0 49.334 20 62.001 60c8 26 12 59.333 12 100c0 39.333 -4 72.333 -12 99c-12.667 40.667 -33.334 61 -62.001 61z
M602 647.996l38 -24l-404 -664l-38 26z" />
    <glyph glyph-name="ampersand" unicode="&#x26;" horiz-adv-x="716" 
d="M285 65c29.333 0 57.333 9 84 27c20 13.333 41.333 34 64 62c-30 30.667 -61.167 60.5 -93.5 89.5s-67.5 57.833 -105.5 86.5c-56 -42 -84 -87 -84 -135c0 -41.333 14.667 -74 44 -98c26 -21.333 56.333 -32 91 -32zM487 428l234.002 0.000976562v-30
c-36.667 0 -63.334 -8.33301 -80.001 -25c-4.66699 -4.66699 -17 -19.667 -37 -45l-42 -57.5l-44 -63.5c23.333 -21.333 54.5 -55.5 93.5 -102.5s68.167 -84.5 87.5 -112.5l-10 -10c-34 0 -64.833 4.5 -92.5 13.5s-45.834 17.833 -54.501 26.5
c-11.333 15.333 -25.666 33.666 -42.999 54.999c-14.667 18 -27.667 33.333 -39 46c-36.667 -49.333 -71.5 -84.666 -104.5 -105.999s-68.167 -32 -105.5 -32c-66 0 -117.667 19.333 -155 58c-32.667 33.333 -49 73 -49 119c0 42.667 13.333 79 40 109
c20.667 23.333 59.667 52 117 86c-32 25.333 -55 48.833 -69 70.5s-21 46.5 -21 74.5c0 44.667 17 83 51 115s74.667 48 122 48c46 0 84 -13.333 114 -40s45 -60 45 -100c0 -30.667 -9.66699 -56 -29 -76c-14 -14.667 -43.667 -35.334 -89 -62.001
c19.333 -14.667 42.333 -34.334 69 -59.001c32 -29.333 62.667 -59.666 92 -90.999c19.333 28 36.666 57.667 51.999 89c12.667 23.333 19 40 19 50c0 13.333 -13.333 20 -40 20l-32 2v30zM274.002 627.001c-21.333 0 -38.167 -8.16895 -50.5 -24.502
s-18.5 -37.166 -18.5 -62.499c0 -22.667 7.33301 -44.167 22 -64.5s37 -41.166 67 -62.499c37.333 28 56 67 56 117c0 24.667 -5.33301 45.667 -16 63c-14 22.667 -34 34 -60 34z" />
    <glyph glyph-name="quotesingle" unicode="'" horiz-adv-x="242" 
d="M106 434l-34.001 195.998c-2 14.667 -3.83301 26.334 -5.5 35.001s-2.5 14.334 -2.5 17.001c0 18.667 18.667 28 56 28c38.667 0 58 -9.33301 58 -28c0 -6 -0.833008 -13.5 -2.5 -22.5l-5.5 -29.5l-34 -196c-3.33301 -4 -8.66602 -6 -15.999 -6s-12 2 -14 6z" />
    <glyph glyph-name="parenleft" unicode="(" horiz-adv-x="360" 
d="M82 272c0 94 16.832 178.5 50.499 253.5s86.167 136.5 157.5 184.5l16 -23c-46 -35.333 -82.5 -91.333 -109.5 -168s-40.5 -159 -40.5 -247c0 -89.333 13.333 -172 40 -248s63.334 -132.333 110.001 -169l-16 -23c-70.667 47.333 -123.667 110 -159 188
c-32.667 72.667 -49 156.667 -49 252z" />
    <glyph glyph-name="parenright" unicode=")" horiz-adv-x="360" 
d="M278 272c0 -94.667 -16.334 -178.331 -49.001 -250.998c-35.333 -78.667 -88.333 -141.667 -159 -189l-16 23c46 35.333 82.5 91.666 109.5 168.999s40.5 160 40.5 248c0 89.333 -13.167 171.666 -39.5 246.999s-63.166 131.333 -110.499 168l16 23
c70.667 -47.333 123.667 -110 159 -188c32.667 -72 49 -155.333 49 -250z" />
    <glyph glyph-name="asterisk" unicode="*" horiz-adv-x="434" 
d="M252 680l24 -6l-28 -150l144 -4l2 -26l-144 -26l40 -150l-22 -10l-76 140l-132 -82l-16 24l110 100l-114 112l18 20l130 -86z" />
    <glyph glyph-name="plus" unicode="+" horiz-adv-x="628" 
d="M284 530h60v-227h229v-51h-229v-251h-60v251h-229v51h229v227z" />
    <glyph glyph-name="comma" unicode="," horiz-adv-x="242" 
d="M54 -134l-13.999 26.002c50.667 27.333 76 63.333 76 108c0 36 -20.667 60.667 -62 74c-9.33301 0 -14 10 -14 30c0 13.333 5.83301 24.666 17.5 33.999s25.167 14 40.5 14c26 0 49.833 -11.833 71.5 -35.5s32.5 -52.5 32.5 -86.5
c0 -38.667 -15.667 -73.334 -47 -104.001c-26.667 -26 -60.334 -46 -101.001 -60z" />
    <glyph glyph-name="hyphen" unicode="-" horiz-adv-x="335" 
d="M45 260h245v-68h-245v68z" />
    <glyph glyph-name="period" unicode="." horiz-adv-x="242" 
d="M120 -12c-19.333 0 -35.5 6.49902 -48.5 19.499s-19.5 30.5 -19.5 52.5c0 20 6.33301 36.667 19 50s29 20 49 20s36.667 -6.66699 50 -20s20 -30 20 -50c0 -21.333 -6.66699 -38.666 -20 -51.999s-30 -20 -50 -20z" />
    <glyph glyph-name="slash" unicode="/" horiz-adv-x="320" 
d="M83 -45h-67l212 710h67z" />
    <glyph glyph-name="zero" unicode="0" 
d="M244 598c-36 0 -62.335 -30 -79.002 -90c-13.333 -48.667 -20 -114 -20 -196c0 -83.333 6.33301 -148.333 19 -195c16.667 -60.667 43.334 -91 80.001 -91c34.667 0 60.334 30.333 77.001 91c13.333 49.333 20 114.333 20 195c0 82.667 -6.33301 147.667 -19 195
c-16 60.667 -42 91 -78 91zM243.998 636c73.333 0 128.667 -35.667 166 -107c30 -57.333 45 -129.666 45 -216.999c0 -86.667 -15 -159 -45 -217c-36.667 -71.333 -92 -107 -166 -107s-129.667 35.667 -167 107c-30.667 58.667 -46 131 -46 217
c0 87.333 15 159.666 45 216.999c37.333 71.333 93.333 107 168 107z" />
    <glyph glyph-name="one" unicode="1" 
d="M301 636l-0.00195312 -540c0 -30.667 4.33301 -49.667 13 -57s34.334 -11 77.001 -11v-28h-285v28c42.667 0 68.334 3.66699 77.001 11s13 26.333 13 57v414c0 20 -1.83301 32.5 -5.5 37.5s-12.5 7.5 -26.5 7.5l-66 4v26c28 5.33301 60.833 13 98.5 23z" />
    <glyph glyph-name="two" unicode="2" 
d="M40 492l61.998 88.001c17.333 17.333 37.166 31 59.499 41s47.833 15 76.5 15c48.667 0 89.834 -15 123.501 -45s50.5 -70 50.5 -120c0 -43.333 -11.667 -84.333 -35 -123c-16.667 -27.333 -50.667 -69 -102 -125l-125 -135h176c29.333 0 49.5 3 60.5 9
s22.833 22.333 35.5 49l28 -8l-36 -138h-386v18c60.667 62.667 113.834 120.667 159.501 174s77.5 100.666 95.5 141.999c15.333 35.333 23 70 23 104c0 35.333 -9.33301 64 -28 86c-20.667 24 -48.667 36 -84 36c-29.333 0 -55.666 -9.33301 -78.999 -28
c-13.333 -10.667 -30.333 -30 -51 -58z" />
    <glyph glyph-name="three" unicode="3" 
d="M62 514l44 66.0029c15.333 17.333 34 31 56 41s47.333 15 76 15c46.667 0 83.667 -11.833 111 -35.5s41 -53.834 41 -90.501c0 -24.667 -10 -46 -30 -64c-14.667 -12.667 -40 -28 -76 -46v-4c47.333 -5.33301 84.666 -23 111.999 -53c25.333 -28 38 -59.667 38 -95
c0 -82.667 -38.667 -149.667 -116 -201c-59.333 -39.333 -114 -59 -164 -59c-19.333 0 -38.166 3.66699 -56.499 11s-32.833 16.333 -43.5 27c-8 8 -12 16.333 -12 25c0 2 0.666992 5.66699 2 11c4.66699 16 14 28.667 28 38c4.66699 2.66699 9.66699 4 15 4
c6 0 11.667 -2 17 -6c18 -15.333 33.667 -26.333 47 -33c23.333 -12 47 -18 71 -18c29.333 0 53.333 11.667 72 35c21.333 26.667 32 64 32 112c0 45.333 -13.667 80.666 -41 105.999c-23.333 21.333 -50.333 32 -81 32c-28 0 -52.667 -4.66699 -74 -14l-8 30
c57.333 24.667 97.333 45.667 120 63c30.667 23.333 46 49.666 46 78.999c0 25.333 -8.66699 45.666 -26 60.999s-39 23 -65 23c-22 0 -43.667 -8.33301 -65 -25c-16.667 -13.333 -32.667 -31.666 -48 -54.999z" />
    <glyph glyph-name="four" unicode="4" 
d="M312 630h61.999v-404h92v-56h-92v-74c0 -30.667 4 -49.667 12 -57s31.333 -11 70 -11v-28h-276v28c42.667 0 68.334 3.66699 77.001 11s13 26.333 13 57v74h-250v34l99 150l97 143zM97.999 226h172v278c-32 -46 -61.167 -90.167 -87.5 -132.5s-54.5 -90.833 -84.5 -145.5
z" />
    <glyph glyph-name="five" unicode="5" 
d="M116 624l292.001 -0.00195312l-18 -88h-240l-27 -148c18.667 6 39.667 11.833 63 17.5s39.333 8.5 48 8.5c63.333 0 113.666 -18.333 150.999 -55c34 -33.333 51 -73.666 51 -120.999c0 -31.333 -8 -62.833 -24 -94.5s-39.333 -60.167 -70 -85.5
c-26 -21.333 -56 -38.333 -90 -51s-66 -19 -96 -19c-20.667 0 -40 3.5 -58 10.5s-32.667 16.167 -44 27.5c-8.66699 6.66699 -13 15.334 -13 26.001c0 2 0.666992 5.66699 2 11c4.66699 15.333 13.667 27.333 27 36c6 4 11.667 6 17 6s11 -2.33301 17 -7
c18 -15.333 33.333 -26.333 46 -33c23.333 -12.667 46.666 -19 69.999 -19c37.333 0 65.333 13 84 39s28 61 28 105c0 47.333 -13 84.333 -39 111c-28 28.667 -67 43 -117 43c-19.333 0 -38.666 -2 -57.999 -6c-10.667 -2 -24.667 -6 -42 -12z" />
    <glyph glyph-name="six" unicode="6" 
d="M428 642l6.00098 -30.001c-32 -6 -66.5 -17.5 -103.5 -34.5s-69.167 -41.167 -96.5 -72.5c-36.667 -42 -61.334 -93 -74.001 -153l56 28c14.667 6.66699 26 11.334 34 14.001s16.667 4 26 4c53.333 0 97 -17.667 131 -53s51 -80 51 -134
c0 -62 -20.167 -114.667 -60.5 -158s-91.5 -65 -153.5 -65c-60.667 0 -110.334 22 -149.001 66c-40.667 46 -61 107.333 -61 184c0 98.667 29 183 87 253c46.667 56 103.334 95.667 170.001 119c45.333 16 91 26.667 137 32zM262.001 25.999c32.667 0 56.333 15.333 71 46
c11.333 24 17 57.667 17 101c0 44.667 -10 81.667 -30 111c-22 32 -52 48 -90 48c-27.333 0 -52.666 -5.33301 -75.999 -16c-2.66699 -10.667 -4.33398 -21 -5.00098 -31s-1 -23 -1 -39v-12c0 -60.667 11 -110.5 33 -149.5s49 -58.5 81 -58.5z" />
    <glyph glyph-name="seven" unicode="7" 
d="M66 624h392.001l6 -10l-139 -306l-134 -310l-95 -10l-6 12c107.333 181.333 202.666 360 285.999 536h-212c-31.333 0 -51.333 -3.33301 -60 -10s-18 -26 -28 -58h-32c4 21.333 8.33301 50.333 13 87c2.66699 22.667 5.66699 45.667 9 69z" />
    <glyph glyph-name="eight" unicode="8" 
d="M250 636c50.667 0 92 -13.666 124 -40.999s48 -61.333 48 -102c0 -30.667 -9.33301 -56.334 -28 -77.001c-7.33301 -8.66699 -19.333 -18.667 -36 -30c-8 -6 -22.667 -15.333 -44 -28c41.333 -22.667 72.333 -45.667 93 -69c27.333 -31.333 41 -67.666 41 -108.999
c0 -59.333 -23.333 -107.333 -70 -144c-40.667 -32 -86.667 -48 -138 -48c-58.667 0 -106 14.333 -142 43c-38.667 30.667 -58 72.334 -58 125.001c0 24 4.33301 45.333 13 64c6.66699 14 15.667 26.667 27 38c7.33301 7.33301 21.166 17.166 41.499 29.499
s37.833 21.833 52.5 28.5c-33.333 17.333 -59.666 37.666 -78.999 60.999c-22 26.667 -33 55.667 -33 87c0 46.667 18 87 54 121s80.667 51 134 51zM282 376.001c13.333 10.667 23.668 24.001 31.001 40.001c10 21.333 15 46.666 15 75.999c0 33.333 -9.66699 60 -29 80
c-16.667 17.333 -36.334 26 -59.001 26c-26.667 0 -47.667 -10 -63 -30c-12.667 -16.667 -19 -36.667 -19 -60c0 -30.667 12 -57 36 -79c16.667 -16 46 -33.667 88 -53zM252.002 26.002c30 0 53.5 10.333 70.5 31s25.5 49.667 25.5 87c0 28 -8 52.667 -24 74
c-18 24 -55.333 50.667 -112 80c-46.667 -27.333 -70 -73.333 -70 -138c0 -40.667 11 -73.167 33 -97.5s47.667 -36.5 77 -36.5z" />
    <glyph glyph-name="nine" unicode="9" 
d="M58 -15l-4.00195 25.9971c71.333 12.667 131.333 43.834 180 93.501s80.334 110.167 95.001 181.5l-56 -31c-10 -6 -20.167 -10.333 -30.5 -13s-19.833 -4 -28.5 -4c-55.333 0 -99.666 17.667 -132.999 53s-50 79.333 -50 132c0 54 19.667 102.333 59 145
c42 45.333 93.667 68 155 68c66 0 117.667 -24.667 155 -74c34 -45.333 51 -104.666 51 -177.999c0 -83.333 -22 -157.833 -66 -223.5s-100.667 -113.167 -170 -142.5c-22 -9.33301 -48.5 -17.166 -79.5 -23.499s-56.833 -9.5 -77.5 -9.5zM261.998 303.997
c12.667 0 24.832 1.66797 36.499 5.00098s23.167 7.66602 34.5 12.999l4 67c0 54 -7.66699 100 -23 138c-19.333 47.333 -48 71 -86 71c-31.333 0 -54.666 -15.333 -69.999 -46c-12.667 -24.667 -19 -56 -19 -94c0 -44.667 11 -81.5 33 -110.5s52 -43.5 90 -43.5z" />
    <glyph glyph-name="colon" unicode=":" horiz-adv-x="242" 
d="M120 292c-19.333 0 -35.5 6.49902 -48.5 19.499s-19.5 30.5 -19.5 52.5c0 20 6.33301 36.667 19 50s29 20 49 20s36.667 -6.66699 50 -20s20 -30 20 -50c0 -21.333 -6.66699 -38.666 -20 -51.999s-30 -20 -50 -20zM120 -12.001c-19.333 0 -35.5 6.49902 -48.5 19.499
s-19.5 30.5 -19.5 52.5c0 20 6.33301 36.667 19 50s29 20 49 20s36.667 -6.66699 50 -20s20 -30 20 -50c0 -21.333 -6.66699 -38.666 -20 -51.999s-30 -20 -50 -20z" />
    <glyph glyph-name="semicolon" unicode=";" horiz-adv-x="242" 
d="M54 -134l-13.999 26.002c50.667 27.333 76 63.333 76 108c0 36 -20.667 60.667 -62 74c-9.33301 0 -14 10 -14 30c0 13.333 5.83301 24.666 17.5 33.999s25.167 14 40.5 14c26 0 49.833 -11.833 71.5 -35.5s32.5 -52.5 32.5 -86.5
c0 -38.667 -15.667 -73.334 -47 -104.001c-26.667 -26 -60.334 -46 -101.001 -60zM120.001 292.002c-19.333 0 -35.5 6.49902 -48.5 19.499s-19.5 30.5 -19.5 52.5c0 20 6.33301 36.667 19 50s29 20 49 20s36.667 -6.66699 50 -20s20 -30 20 -50
c0 -21.333 -6.66699 -38.666 -20 -51.999s-30 -20 -50 -20z" />
    <glyph glyph-name="less" unicode="&#x3c;" horiz-adv-x="628" 
d="M528 53v-53l-517 251v48l517 252v-54l-455 -220z" />
    <glyph glyph-name="equal" unicode="=" horiz-adv-x="628" 
d="M55 203h518v-51h-518v51zM55 401h518v-51h-518v51z" />
    <glyph glyph-name="greater" unicode="&#x3e;" horiz-adv-x="628" 
d="M100 0v53l455 221l-455 223v54l517 -252v-48z" />
    <glyph glyph-name="question" unicode="?" horiz-adv-x="334" 
d="M138 665c40.667 0 77.834 -17.833 111.501 -53.5s50.5 -76.834 50.5 -123.501c0 -18.667 -3 -34.667 -9 -48s-17.667 -27.333 -35 -42c-26 -18 -46.667 -33 -62 -45c-29.333 -23.333 -44 -43.666 -44 -60.999c0 -23.333 14.667 -50.666 44 -81.999l-18 -22
c-28.667 10 -54.667 27 -78 51c-28 28 -42 56.333 -42 85c0 18 6.16699 35.667 18.5 53s34.833 37 67.5 59s53 36.333 61 43c22.667 19.333 34 37.666 34 54.999c0 14.667 -5.33301 27 -16 37s-24.334 15 -41.001 15c-20 0 -39.333 -4.66699 -58 -14l-50 -32
c-6 0 -14 5 -24 15c-12 12 -18 24.667 -18 38c0 10.667 6.33301 22 19 34s28 21.333 46 28s32.333 10 43 10zM150 -12c-19.333 0 -35.5 6.49902 -48.5 19.499s-19.5 30.5 -19.5 52.5c0 20 6.33301 36.667 19 50s29 20 49 20s36.667 -6.66699 50 -20s20 -30 20 -50
c0 -21.333 -6.66699 -38.666 -20 -51.999s-30 -20 -50 -20z" />
    <glyph glyph-name="at" unicode="@" horiz-adv-x="756" 
d="M418 466c-9.33301 0 -18.498 -2.66895 -27.498 -8.00195s-17.833 -12.666 -26.5 -21.999c-14 -16 -26.667 -40.667 -38 -74c-13.333 -38 -20 -74.667 -20 -110c0 -12.667 1.66699 -21.5 5 -26.5s8 -7.5 14 -7.5c8 0 22 8.66699 42 26c26 22.667 53 53.334 81 92.001
l28 120c-6.66699 4 -14.834 6.66699 -24.501 8s-20.834 2 -33.501 2zM556.002 58.998l8.00098 -28c-29.333 -16.667 -59.5 -28.5 -90.5 -35.5s-64.167 -10.5 -99.5 -10.5c-93.333 0 -170.333 25.333 -231 76c-67.333 56 -101 133.667 -101 233c0 110 41.333 200.667 124 272
c76 66 165.333 99 268 99c86 0 156 -26.333 210 -79c52 -50.667 78 -112 78 -184c0 -67.333 -22.833 -125.166 -68.5 -173.499s-104.167 -72.5 -175.5 -72.5c-18.667 0 -31.834 3.66699 -39.501 11s-11.5 18 -11.5 32c0 4 0.166992 7.66699 0.5 11s1.5 10 3.5 20l13 60
c-18 -26.667 -46 -55 -84 -85c-41.333 -32.667 -71.333 -49 -90 -49c-13.333 0 -24.333 6.5 -33 19.5s-13 32.5 -13 58.5c0 30 5.33301 60.333 16 91c14 40.667 35.333 75.667 64 105c22 22.667 46.833 41 74.5 55s57.5 21 89.5 21c8 0 16 -0.833008 24 -2.5
s18 -4.16699 30 -7.5l30 -4c-12 -50.667 -26.667 -125.334 -44 -224.001c-4 -20 -6 -35.333 -6 -46c0 -17.333 7.33301 -26 22 -26c36.667 0 69.667 18.333 99 55c32.667 40.667 49 91.667 49 153c0 65.333 -22.833 117.833 -68.5 157.5s-102.167 59.5 -169.5 59.5
c-92 0 -166.667 -30 -224 -90s-86 -135.667 -86 -227c0 -74.667 19.667 -136.334 59 -185.001c48.667 -60 121.667 -90 219 -90c32.667 0 61.5 2.83301 86.5 8.5s47.5 12.834 67.5 21.501z" />
    <glyph glyph-name="A" unicode="A" horiz-adv-x="652" 
d="M310 650l40 12l69 -186l127 -346c16.667 -42.667 31 -69.5 43 -80.5s33 -18.167 63 -21.5v-28h-263v28l28 4c23.333 4 35 12 35 24c0 4.66699 -2.5 14.667 -7.5 30s-12.167 35.333 -21.5 60l-33 84h-185c-4.66699 -10 -9.66699 -22.667 -15 -38l-30 -90
c-6 -17.333 -9 -31 -9 -41c0 -17.333 14.333 -27.333 43 -30l28 -3v-28h-222v28c32.667 4 54.5 11 65.5 21s25.167 37 42.5 81zM216 276h159l-78 220z" />
    <glyph glyph-name="B" unicode="B" horiz-adv-x="603" 
d="M41 650l275.999 0.000976562c40.667 0 71.5 -2.33301 92.5 -7s41.5 -13.334 61.5 -26.001c37.333 -24.667 56 -62.667 56 -114c0 -38.667 -16.333 -71.667 -49 -99c-27.333 -22.667 -58.333 -37.334 -93 -44.001c54 -7.33301 96.667 -24.666 128 -51.999
c34.667 -30 52 -69 52 -117c0 -34.667 -7.66699 -64 -23 -88s-37.666 -45 -66.999 -63c-22 -13.333 -50 -23.333 -84 -30s-69.667 -10 -107 -10h-249v28c38.667 0 62.667 6.66699 72 20s14 47.333 14 102v350c0 54 -4.5 87.833 -13.5 101.5s-31.167 20.5 -66.5 20.5v28z
M230.999 562.001l0.000976562 -196h40c44 0 78.333 10.333 103 31s37 51.667 37 93c0 42 -13.333 73.667 -40 95c-22.667 18 -51.334 27 -86.001 27c-24 0 -38.833 -1.33301 -44.5 -4s-8.66699 -9.5 -9 -20.5s-0.5 -19.5 -0.5 -25.5zM265 330.001l-34 0.000976562v-178
c0 -46.667 4.66699 -77 14 -91s30 -21 62 -21c37.333 0 68 10.333 92 31c28 24 42 60.333 42 109c0 49.333 -15.833 86.666 -47.5 111.999s-74.5 38 -128.5 38z" />
    <glyph glyph-name="C" unicode="C" horiz-adv-x="660" 
d="M625 481l-27.998 -3.99902c-15.333 54.667 -39 93.667 -71 117c-28.667 20.667 -67.667 31 -117 31c-77.333 0 -137.333 -29 -180 -87c-38.667 -52 -58 -118 -58 -198c0 -94 21.5 -170 64.5 -228s100.833 -87 173.5 -87c51.333 0 93.333 13.667 126 41
c28 23.333 56 63.666 84 120.999l28 -6c-8.66699 -34 -16.334 -62.667 -23.001 -86c-10 -34.667 -19 -61.334 -27 -80.001c-29.333 -8.66699 -62.833 -15.834 -100.5 -21.501s-66.834 -8.5 -87.501 -8.5c-121.333 0 -215.333 35 -282 105
c-57.333 60.667 -86 135.334 -86 224.001c0 104 36.167 188.5 108.5 253.5s164.833 97.5 277.5 97.5c38.667 0 76 -3.33301 112 -10c36 -8.66699 58.667 -14 68 -16c4 -27.333 7.5 -55.666 10.5 -84.999z" />
    <glyph glyph-name="D" unicode="D" horiz-adv-x="741" 
d="M39 650l296.998 0.000976562c59.333 0 113 -7 161 -21s87.667 -36.333 119 -67c24.667 -24.667 44.834 -55 60.501 -91s23.5 -75 23.5 -117c0 -116.667 -41.333 -206.334 -124 -269.001c-75.333 -56.667 -175.333 -85 -300 -85h-245v28c40.667 0 65.834 6.5 75.501 19.5
s14.5 47.167 14.5 102.5v350c0 54 -4.5 87.833 -13.5 101.5s-31.833 20.5 -68.5 20.5v28zM232.998 554.001l-0.000976562 -402.001c0 -47.333 4.83301 -77.666 14.5 -90.999s33.834 -20 72.501 -20c80.667 0 142.834 25.833 186.501 77.5s65.5 120.167 65.5 205.5
c0 102 -24.667 176.667 -74 224c-44 42.667 -108.667 64 -194 64c-36 0 -57.667 -3 -65 -9c-2.66699 -2 -4.33398 -6.83301 -5.00098 -14.5s-1 -19.167 -1 -34.5z" />
    <glyph glyph-name="E" unicode="E" horiz-adv-x="560" 
d="M37 650l451.999 0.000976562l12 -152l-30 -2c-9.33301 45.333 -21.666 75.666 -36.999 90.999s-52.333 23 -111 23h-50c-19.333 0 -30.833 -1.5 -34.5 -4.5s-5.5 -13.5 -5.5 -31.5v-212h86c42 0 67.5 4 76.5 12s16.167 31.667 21.5 71h32v-212h-32
c-5.33301 40 -12.333 63.833 -21 71.5s-34.334 11.5 -77.001 11.5h-86v-164c0 -30.667 1.5 -53.167 4.5 -67.5s8.66699 -24.5 17 -30.5s20 -9.83301 35 -11.5s35.5 -2.5 61.5 -2.5c28.667 0 52.834 1.83301 72.501 5.5s34.5 11.5 44.5 23.5
c16.667 18.667 33.667 52.334 51 101.001l30 -6c-2 -19.333 -6.83301 -46.833 -14.5 -82.5s-14.167 -62.834 -19.5 -81.501h-488v28c42.667 0 69 6.66699 79 20s15 47.333 15 102v350c0 54.667 -4.5 88.667 -13.5 102s-32.5 20 -70.5 20v28z" />
    <glyph glyph-name="F" unicode="F" horiz-adv-x="536" 
d="M39 650h451.999c1.33301 -20.667 2.83301 -42.5 4.5 -65.5s4.16699 -50.5 7.5 -82.5l-30 -4c-9.33301 44 -21.666 73.667 -36.999 89s-52.333 23 -111 23h-52c-19.333 0 -30.833 -1.5 -34.5 -4.5s-5.5 -13.5 -5.5 -31.5v-222h100c42 0 67.5 3.83301 76.5 11.5
s16.167 30.5 21.5 68.5h32v-205h-32c-5.33301 38 -12.5 60.667 -21.5 68s-34.5 11 -76.5 11h-100v-156c0 -54.667 5.33301 -88.667 16 -102s38.667 -20 84 -20v-28h-294v28c37.333 0 60.333 6.66699 69 20s13 47.333 13 102v350c0 54 -4.5 87.833 -13.5 101.5
s-31.833 20.5 -68.5 20.5v28z" />
    <glyph glyph-name="G" unicode="G" horiz-adv-x="701" 
d="M625 185v-69.002c0 -16.667 0.166992 -32.667 0.5 -48s2.16602 -29 5.49902 -41c-39.333 -11.333 -73.666 -20.333 -102.999 -27c-44.667 -10 -83 -15 -115 -15c-112 0 -202 30.333 -270 91s-102 141.334 -102 242.001c0 108.667 38.333 195 115 259
c70.667 58.667 158.334 88 263.001 88c36.667 0 75 -3.33301 115 -10c13.333 -2 39 -7.33301 77 -16c0 -16.667 0.666992 -32 2 -46c6 -46 10.667 -84.667 14 -116l-32 -4c-12 57.333 -37 98.333 -75 123c-30 19.333 -69 29 -117 29c-70 0 -126.167 -25.333 -168.5 -76
s-63.5 -121 -63.5 -211c0 -87.333 18.333 -158.666 55 -213.999c44 -66 108.333 -99 193 -99c28 0 50.667 3.66699 68 11s26 29 26 65v84c0 35.333 -5 57.333 -15 66c-12.667 10.667 -44.334 16 -95.001 16v30h278v-30c-26 -4 -41.833 -10 -47.5 -18s-8.5 -29.333 -8.5 -64z
" />
    <glyph glyph-name="H" unicode="H" horiz-adv-x="770" 
d="M29 650h286v-28c-37.333 0 -60.333 -6.66699 -69 -20s-13 -47.333 -13 -102v-134h304v134c0 54.667 -4.5 88.667 -13.5 102s-32.5 20 -70.5 20v28h284v-28c-40 0 -64.667 -6.66699 -74 -20s-14 -47.333 -14 -102v-350c0 -54.667 4.5 -88.667 13.5 -102
s33.167 -20 72.5 -20v-28h-290v28c41.333 0 67 6.66699 77 20s15 47.333 15 102v170h-304v-170c0 -54.667 4.5 -88.667 13.5 -102s33.167 -20 72.5 -20v-28h-286v28c40 0 64.667 6.66699 74 20s14 47.333 14 102v350c0 54.667 -4.83301 88.667 -14.5 102s-35.5 20 -77.5 20
v28z" />
    <glyph glyph-name="I" unicode="I" horiz-adv-x="354" 
d="M35 650h281.999v-28c-37.333 0 -60.666 -6.83301 -69.999 -20.5s-14 -47.5 -14 -101.5v-350c0 -54.667 4.5 -88.667 13.5 -102s32.5 -20 70.5 -20v-28h-282v28c38.667 0 62.667 6.66699 72 20s14 47.333 14 102v350c0 54.667 -4.5 88.667 -13.5 102s-33.167 20 -72.5 20
v28z" />
    <glyph glyph-name="J" unicode="J" horiz-adv-x="350" 
d="M134 190l-0.000976562 310c0 54.667 -4.83301 88.667 -14.5 102s-35.167 20 -76.5 20v28h282v-28c-36 -3.33301 -58.167 -11 -66.5 -23s-12.5 -45 -12.5 -99v-323c0 -64.667 -5 -113.667 -15 -147c-14 -46 -41.333 -84 -82 -114c-16.667 -12.667 -35 -23.834 -55 -33.501
s-41.667 -17.5 -65 -23.5l-12 28c31.333 14.667 55.666 33.334 72.999 56.001c14.667 19.333 25.334 43.666 32.001 72.999c4.66699 22.667 7.83398 46.834 9.50098 72.501s2.5 59.5 2.5 101.5z" />
    <glyph glyph-name="K" unicode="K" horiz-adv-x="671" 
d="M319 0l-280.001 -0.000976562v28c37.333 0 60.333 6.66699 69 20s13 47.333 13 102v350c0 54 -4.83301 87.833 -14.5 101.5s-34.167 20.5 -73.5 20.5v28h280v-28c-37.333 0 -60.666 -6.83301 -69.999 -20.5s-14 -47.5 -14 -101.5v-168c24.667 22.667 63 62.167 115 118.5
s88 97.166 108 122.499c10.667 13.333 16 23.333 16 30c0 7.33301 -7 12 -21 14l-40 5v28h250v-28c-33.333 -3.33301 -57.833 -8.5 -73.5 -15.5s-40.834 -25.5 -75.501 -55.5c-28.667 -24.667 -57 -50.667 -85 -78c-32.667 -32 -63.667 -64 -93 -96l229 -275
c24 -27.333 43.167 -45.666 57.5 -54.999s32.5 -15.666 54.5 -18.999v-28h-178l-262 327l-2 -177c0 -54 4.83301 -87.833 14.5 -101.5s34.834 -20.5 75.501 -20.5v-28z" />
    <glyph glyph-name="L" unicode="L" horiz-adv-x="538" 
d="M33 650l288.001 0.000976562v-28c-40 0 -64.667 -6.66699 -74 -20s-14 -47.333 -14 -102v-348c0 -54.667 7.66699 -87.334 23 -98.001c7.33301 -5.33301 18.666 -9 33.999 -11s31.333 -3 48 -3c27.333 0 50.833 1.83301 70.5 5.5s34.5 11.5 44.5 23.5
c16 18 32.333 51.667 49 101l32 -6l-17 -82c-8 -38 -14.333 -65.333 -19 -82h-469v28c41.333 0 67 6.66699 77 20s15 47.333 15 102v350c0 54 -4.83301 87.833 -14.5 101.5s-34.167 20.5 -73.5 20.5v28z" />
    <glyph glyph-name="M" unicode="M" horiz-adv-x="886" 
d="M41 650l184.002 -0.000976562l221 -477l209 477h189v-28c-40.667 -4 -64.667 -11.333 -72 -22s-11 -44 -11 -100l10 -350c0 -54.667 4.16699 -87.667 12.5 -99s33.166 -19 74.499 -23v-28h-279v28c38.667 4 61.667 11.5 69 22.5s11 44.167 11 99.5l-4 384h-4l-227 -522
h-30l-219 502h-4l-7 -259v-104.5c0 -33 1 -57.667 3 -74s9 -27.666 21 -33.999s35.333 -11.166 70 -14.499v-28h-237v28c25.333 0 43.666 3.83301 54.999 11.5s18.666 21.167 21.999 40.5c6.66699 42 10.334 64.333 11.001 67c4.66699 37.333 7 76.666 7 117.999l11 206
c0 68.667 -3.66699 110 -11 124s-32.333 23 -75 27v28z" />
    <glyph glyph-name="N" unicode="N" horiz-adv-x="738" 
d="M17 650h163l399 -470l2 190c0 53.333 -0.5 92.5 -1.5 117.5s-3.16699 49.5 -6.5 73.5s-12.666 40.167 -27.999 48.5s-38.666 12.5 -69.999 12.5v28h244v-28c-49.333 0 -75.833 -13.333 -79.5 -40s-6.33398 -55.334 -8.00098 -86.001s-2.5 -72.667 -2.5 -126v-378h-46
l-412 504l-2 -216c0 -53.333 0.5 -92.5 1.5 -117.5s3.16699 -49.5 6.5 -73.5s12.666 -40.167 27.999 -48.5s38.666 -12.5 69.999 -12.5v-28h-244v28c49.333 0 76.333 17.333 81 52c2.66699 18.667 4.83398 43.334 6.50098 74.001s2.5 72.667 2.5 126v196
c0 58 -7 96.833 -21 116.5s-41.667 29.5 -83 29.5v28z" />
    <glyph glyph-name="O" unicode="O" horiz-adv-x="748" 
d="M391 665c88 0 162.667 -30.667 224 -92s92 -140 92 -236c0 -104.667 -32.167 -189.5 -96.5 -254.5s-145.166 -97.5 -242.499 -97.5c-96.667 0 -175.334 31.667 -236.001 95s-91 141.333 -91 234c0 91.333 28.667 170.333 86 237c65.333 76 153.333 114 264 114zM360 625
c-54.667 0 -99.334 -24.333 -134.001 -73c-36.667 -51.333 -55 -120 -55 -206c0 -94 19 -170 57 -228c40.667 -62 95.667 -93 165 -93c54.667 0 98.334 22.333 131.001 67c35.333 48.667 53 118 53 208c0 102.667 -19.333 182.5 -58 239.5s-91.667 85.5 -159 85.5z" />
    <glyph glyph-name="P" unicode="P" horiz-adv-x="573" 
d="M231 576v-256c9.33301 -3.33301 18.833 -6.16602 28.5 -8.49902s20.5 -3.5 32.5 -3.5c30 0 56.333 10 79 30c32.667 28.667 49 72 49 130c0 49.333 -12.333 85.666 -37 108.999s-59 35 -103 35c-23.333 0 -37.333 -2 -42 -6s-7 -14 -7 -30zM41 650l261.003 0.000976562
c39.333 0 72.666 -3.16699 99.999 -9.5s51.666 -16.833 72.999 -31.5s37.833 -33.334 49.5 -56.001s17.5 -50.667 17.5 -84c0 -59.333 -20.667 -107.666 -62 -144.999c-36 -32.667 -81.333 -52.334 -136 -59.001c-8 -0.666992 -16.667 -1.16699 -26 -1.5s-16 -0.5 -20 -0.5
l-67 18v-131c0 -54.667 5.33301 -88.667 16 -102s38.667 -20 84 -20v-28h-294v28c37.333 0 60.666 6.83301 69.999 20.5s14 47.5 14 101.5v350c0 54 -4.5 87.833 -13.5 101.5s-31.167 20.5 -66.5 20.5v28z" />
    <glyph glyph-name="Q" unicode="Q" horiz-adv-x="748" 
d="M722 -142l-5 -20c-26 0 -53.333 2 -82 6s-49.334 8 -62.001 12c-19.333 4.66699 -45.666 15.667 -78.999 33c-45.333 23.333 -96.333 55.666 -153 96.999c-88 0 -160.667 32.667 -218 98c-54.667 62.667 -82 139.334 -82 230.001c0 91.333 28.667 170.333 86 237
c65.333 76 153.333 114 264 114c88 0 162.667 -30.667 224 -92s92 -140 92 -236c0 -83.333 -21 -154.5 -63 -213.5s-98 -99.5 -168 -121.5c54.667 -37.333 103.667 -68.333 147 -93c36.667 -21.333 69.667 -38.333 99 -51zM349 30l62.999 14.001l21 -13
c44.667 10.667 79.834 38.5 105.501 83.5s38.5 106.833 38.5 185.5c0 102.667 -19 182.5 -57 239.5s-90.667 85.5 -158 85.5c-56.667 0 -102.667 -24.833 -138 -74.5s-53 -117.834 -53 -204.501c0 -82.667 15.667 -153 47 -211s75 -93 131 -105z" />
    <glyph glyph-name="R" unicode="R" horiz-adv-x="636" 
d="M231 576v-257.999h38c22 0 39.833 1.83301 53.5 5.5s27.167 10.5 40.5 20.5c18.667 15.333 32.334 34 41.001 56s13 46 13 72c0 48 -14.667 84.333 -44 109c-24.667 20.667 -55.334 31 -92.001 31c-23.333 0 -37.5 -1.83301 -42.5 -5.5s-7.5 -13.834 -7.5 -30.501z
M37 650.001l269.001 -0.00195312c38.667 0 70.834 -2.5 96.501 -7.5s48.667 -14.167 69 -27.5s36.333 -30.333 48 -51s17.5 -45.667 17.5 -75c0 -41.333 -11.667 -76.666 -35 -105.999s-56 -51.666 -98 -66.999l37 -65c17.333 -29.333 34 -55.333 50 -78
c40 -58 67.333 -94.5 82 -109.5s25.667 -25.167 33 -30.5c11.333 -8 23.666 -13.667 36.999 -17l-4 -26l-42 2c-50 0 -89 8.33301 -117 25c-20.667 12.667 -42.334 35 -65.001 67c-14 20 -34 53.333 -60 100l-34 62c-14.667 25.333 -34 38 -58 38h-32v-134
c0 -54.667 4.5 -88.667 13.5 -102s32.5 -20 70.5 -20v-28h-282v28c40 0 64.667 6.66699 74 20s14 47.333 14 102v350c0 54.667 -4.5 88.667 -13.5 102s-32.5 20 -70.5 20v28z" />
    <glyph glyph-name="S" unicode="S" horiz-adv-x="488" 
d="M427 503l-32.001 -5.99902c-15.333 49.333 -34.666 83.666 -57.999 102.999c-20 16.667 -45 25 -75 25c-32 0 -57 -10 -75 -30s-27 -45 -27 -75c0 -50 39 -92.667 117 -128l26 -12c45.333 -20 80 -43.333 104 -70c30.667 -33.333 46 -74 46 -122
c0 -60 -21.167 -108.833 -63.5 -146.5s-97.166 -56.5 -164.499 -56.5c-18 0 -35.667 1.66699 -53 5s-33 7.33301 -47 12l-58 21c-3.33301 11.333 -8 33.166 -14 65.499l-16 89.5l30 10c16 -40.667 35 -74.334 57 -101.001c34.667 -41.333 74.667 -62 120 -62
c32 0 57.5 10.833 76.5 32.5s28.5 48.5 28.5 80.5c0 29.333 -7.83301 54.333 -23.5 75s-43.167 40.667 -82.5 60l-32 16c-43.333 22 -76.333 44.667 -99 68c-34 34.667 -51 73.667 -51 117c0 54.667 19.167 100.167 57.5 136.5s90.166 54.5 155.499 54.5
c15.333 0 30.833 -1 46.5 -3s30.5 -5.66699 44.5 -11c7.33301 -2.66699 15.333 -5.16699 24 -7.5s14.667 -4.16602 18 -5.49902c2.66699 -25.333 6 -50.666 10 -75.999z" />
    <glyph glyph-name="T" unicode="T" horiz-adv-x="614" 
d="M53 492l-29.998 0.000976562c0 24.667 1 49 3 73c6 72.667 9 109.667 9 111h18c6.66699 -11.333 13.334 -18.5 20.001 -21.5s17.334 -4.5 32.001 -4.5h412c12.667 0 21.5 1.5 26.5 4.5s12.167 10.167 21.5 21.5h16c0 -24.667 0.666992 -46.834 2 -66.501
s4.66602 -58.167 9.99902 -115.5l-30 -2c-4.66699 26 -9.83398 45.833 -15.501 59.5s-12.834 24.834 -21.501 33.501c-14.667 16.667 -51.667 25 -111 25h-52v-460c0 -54.667 5.33301 -88.667 16 -102s38.667 -20 84 -20v-28h-308v28c44 0 71 6.66699 81 20
s15 47.333 15 102v460h-34c-40 0 -69 -2.33301 -87 -7s-31.667 -12.334 -41 -23.001c-6.66699 -7.33301 -12.834 -18 -18.501 -32s-11.5 -32.667 -17.5 -56z" />
    <glyph glyph-name="U" unicode="U" horiz-adv-x="725" 
d="M25 650l281.997 0.00292969v-28c-37.333 0 -60.333 -6.33301 -69 -19s-13 -46.334 -13 -101.001v-211c0 -82 13.667 -143.833 41 -185.5s70.333 -62.5 129 -62.5c60 0 105.167 22.5 135.5 67.5s45.5 111.5 45.5 199.5v60c0 53.333 -0.5 92.5 -1.5 117.5
s-3.16699 49.5 -6.5 73.5s-12.666 40.167 -27.999 48.5s-38.666 12.5 -69.999 12.5v28h244v-28c-49.333 0 -75.833 -13.333 -79.5 -40s-6.33398 -55.334 -8.00098 -86.001s-2.5 -72.667 -2.5 -126v-71c0 -54 -5.33301 -100 -16 -138s-29.667 -71.667 -57 -101
c-21.333 -23.333 -48.666 -41.666 -81.999 -54.999s-67.666 -20 -102.999 -20c-34 0 -66.333 4 -97 12s-57.667 21.667 -81 41c-26 21.333 -45 50.666 -57 87.999s-18 85.666 -18 144.999v231c0 54 -4.83301 87.5 -14.5 100.5s-34.167 19.5 -73.5 19.5v28z" />
    <glyph glyph-name="V" unicode="V" horiz-adv-x="675" 
d="M0 650h268.999v-28l-32 -5c-23.333 -2.66699 -35 -9.66699 -35 -21c0 -4.66699 2.33301 -14.667 7 -30c8.66699 -26.667 30 -84 64 -172l95 -244l79 214c36.667 100 57.667 158 63 174c3.33301 10.667 6 20 8 28s3 15 3 21c0 10.667 -3.33301 18.334 -10 23.001
s-17.667 7.66699 -33 9l-30 3v28h227v-28c-31.333 -4 -52.166 -11 -62.499 -21s-27.5 -39 -51.5 -87c-4.66699 -8.66699 -18.667 -41.334 -42 -98.001l-82 -200l-87 -222h-43l-201 526c-16 42.667 -30.333 69.5 -43 80.5s-33.667 18.167 -63 21.5v28z" />
    <glyph glyph-name="W" unicode="W" horiz-adv-x="954" 
d="M477 642l39 -0.000976562l174 -476c11.333 36.667 26.333 88.334 45 155.001l58 219c5.33301 22.667 8 38.334 8 47.001c0 18 -13.667 28.333 -41 31l-36 4v28h230v-28c-33.333 -3.33301 -55.166 -9.83301 -65.499 -19.5s-23.5 -37.167 -39.5 -82.5l-32 -93l-59 -183
l-78 -252h-44l-170 468l-158 -468h-44l-165 532c-12.667 40.667 -25.667 67 -39 79c-10.667 9.33301 -30.334 15.666 -59.001 18.999v28h270v-28l-33 -4c-25.333 -3.33301 -38 -12 -38 -26c0 -9.33301 2.33301 -21.333 7 -36l116 -390z" />
    <glyph glyph-name="X" unicode="X" horiz-adv-x="675" 
d="M26 650l275.998 0.00585938v-28l-32 -4c-21.333 -3.33301 -32 -9 -32 -17c0 -4 2.66699 -10.333 8 -19l55 -89c22 -35.333 40 -63.333 54 -84c16.667 24 34 50.667 52 80c20.667 32.667 37.334 61 50.001 85c6.66699 13.333 10 22.333 10 27c0 9.33301 -10 15 -30 17
l-34 4v28h233v-28c-36 -4.66699 -59.667 -9.83398 -71 -15.501s-28.5 -23 -51.5 -52s-47.833 -62.167 -74.5 -99.5c-23.333 -32.667 -42.333 -60.334 -57 -83.001l170 -264c21.333 -32.667 39 -53.334 53 -62.001s38.333 -14.667 73 -18v-28h-290v28l28 4
c22 2 33 8.33301 33 19c0 5.33301 -2.5 12.666 -7.5 21.999s-17.5 30 -37.5 62l-90 143c-20.667 -30.667 -44.667 -69.667 -72 -117l-44 -79c-7.33301 -13.333 -11 -23.333 -11 -30c0 -13.333 9.66699 -20 29 -20l38 -4v-28h-244v28c30.667 3.33301 53 7.66602 67 12.999
s27.667 16.333 41 33c37.333 45.333 94 126.666 170 243.999l-142 224c-20 32 -36.667 52.333 -50 61s-36.666 15 -69.999 19v28z" />
    <glyph glyph-name="Y" unicode="Y" horiz-adv-x="610" 
d="M0 650l257.998 0.00488281v-28l-42 -6c-14.667 -2 -22 -7 -22 -15c0 -6.66699 3.33301 -16.334 10 -29.001c13.333 -26.667 32.666 -63.334 57.999 -110.001c30.667 -56.667 54.334 -98.334 71.001 -125.001c40.667 69.333 79.334 145.666 116.001 228.999
c6 13.333 9 23.666 9 30.999c0 11.333 -11 18.333 -33 21l-40 4v28h225v-28c-29.333 -2.66699 -49.666 -8.5 -60.999 -17.5s-28 -31.167 -50 -66.5l-58 -95c-19.333 -34 -42 -76 -68 -126c-5.33301 -9.33301 -8.83301 -17.833 -10.5 -25.5s-2.5 -19.167 -2.5 -34.5v-107
c0 -54.667 5.16699 -88.667 15.5 -102s37.833 -20 82.5 -20v-28h-304v28c42.667 0 69 6.66699 79 20s15 47.333 15 102v97c0 12.667 -0.5 21.334 -1.5 26.001s-5.16699 14 -12.5 28l-134 237c-22 38 -37.5 60.667 -46.5 68s-26.833 12.666 -53.5 15.999v28z" />
    <glyph glyph-name="Z" unicode="Z" horiz-adv-x="605" 
d="M103 488l-28.001 1.99902c0 25.333 1 50.333 3 75c6 73.333 9 110.333 9 111h16c7.33301 -11.333 14.833 -18.5 22.5 -21.5s19.167 -4.5 34.5 -4.5h405l8 -12l-398 -592c42 -4 93.333 -6 154 -6c42.667 0 79.667 2.16699 111 6.5s53 12.166 65 23.499
c22.667 20.667 42.667 55.334 60 104.001l30 -6c-6 -36.667 -11 -64.667 -15 -84c-7.33301 -38 -14.333 -66 -21 -84h-528l-8 14l402 596h-129c-48.667 0 -84.667 -2.5 -108 -7.5s-38.833 -11.833 -46.5 -20.5s-14.167 -19.667 -19.5 -33
c-7.33301 -17.333 -13.666 -37.666 -18.999 -60.999z" />
    <glyph glyph-name="bracketleft" unicode="[" horiz-adv-x="360" 
d="M126 704l168 -0.00195312v-28c-51.333 -5.33301 -81.5 -11.666 -90.5 -18.999s-13.5 -30.333 -13.5 -69v-634c0 -38.667 4.5 -61.667 13.5 -69s39.167 -13.666 90.5 -18.999v-28h-168v866z" />
    <glyph glyph-name="backslash" unicode="\" horiz-adv-x="320" 
d="M295 -45h-67l-203 710h67z" />
    <glyph glyph-name="bracketright" unicode="]" horiz-adv-x="360" 
d="M66 704l168 0.00195312v-866h-168v28c51.333 5.33301 81.5 11.666 90.5 18.999s13.5 30.333 13.5 69v634c0 38.667 -4.5 61.667 -13.5 69s-39.167 13.666 -90.5 18.999v28z" />
    <glyph glyph-name="asciicircum" unicode="^" horiz-adv-x="628" 
d="M291 624h46l207 -448h-62l-170 376l-171 -376h-57z" />
    <glyph glyph-name="underscore" unicode="_" horiz-adv-x="500" 
d="M500 -75v-50h-500v50h500z" />
    <glyph glyph-name="grave" unicode="`" horiz-adv-x="290" 
d="M157 478l-142 122c-10.667 9.33301 -16 17.666 -16 24.999c0 6.66699 4.66699 12.334 14 17.001l18 11c8 4 14.667 6 20 6c8 0 15.667 -5.33301 23 -16l105 -153z" />
    <glyph glyph-name="a" unicode="a" horiz-adv-x="449" 
d="M437 67l9.99707 -25.001l-103 -54c-20.667 0 -37.667 7.33301 -51 22c-10 11.333 -16.667 25 -20 41l-81 -50c-16 -8.66699 -27.667 -13 -35 -13c-36 0 -65.333 12.333 -88 37s-34 52.667 -34 84c0 24 6.16699 44.833 18.5 62.5s31.166 31.834 56.499 42.501l87 34
c34 13.333 58.667 25 74 35v27c0 57.333 -24 86 -72 86c-7.33301 0 -14.5 -1.66699 -21.5 -5s-12.833 -7.33301 -17.5 -12c-14.667 -12 -26 -36.667 -34 -74c-3.33301 -14.667 -14 -22 -32 -22c-11.333 0 -22.666 4.5 -33.999 13.5s-17 19.167 -17 30.5
c0 14.667 10.167 29.667 30.5 45s42.833 28.666 67.5 39.999c34.667 16.667 68 28 100 34c36 0 64.667 -8 86 -24c16.667 -12.667 28.334 -28 35.001 -46c4.66699 -12.667 7 -29.667 7 -51v-214c0 -19.333 2.5 -33.5 7.5 -42.5s11.833 -13.5 20.5 -13.5
c6.66699 0 12.334 0.833008 17.001 2.5s12.334 4.83398 23.001 9.50098zM270.997 86.999l-0.000976562 159l-79 -40c-32 -17.333 -48 -42.333 -48 -75c0 -24 6.33301 -42.667 19 -56s26.334 -20 41.001 -20c20 0 42.333 10.667 67 32z" />
    <glyph glyph-name="b" unicode="b" horiz-adv-x="525" 
d="M173 409l79.002 33.002c6 0.666992 11.833 1.5 17.5 2.5s14.167 1.5 25.5 1.5c53.333 0 99.166 -20.167 137.499 -60.5s57.5 -88.833 57.5 -145.5c0 -72.667 -24.5 -132.834 -73.5 -180.501s-108.833 -71.5 -179.5 -71.5c-58.667 0 -114.334 12 -167.001 36v563
c0 29.333 -3.16699 47.166 -9.5 53.499s-26.833 9.5 -61.5 9.5v26c55.333 8.66699 113.333 20 174 34v-301zM173.002 374.002l-0.000976562 -269c0 -13.333 2 -25 6 -35s12.5 -19.5 25.5 -28.5s29.5 -13.5 49.5 -13.5c37.333 0 66.833 16.5 88.5 49.5
s32.5 77.833 32.5 134.5c0 52.667 -13.667 95.5 -41 128.5s-61.666 49.5 -102.999 49.5c-20.667 0 -40 -5.33301 -58 -16z" />
    <glyph glyph-name="c" unicode="c" horiz-adv-x="416" 
d="M394 115l18 -17.999c-21.333 -32 -46.833 -58.167 -76.5 -78.5s-59.5 -30.5 -89.5 -30.5c-64.667 0 -116.667 21.333 -156 64c-36.667 39.333 -55 87.666 -55 144.999c0 37.333 8 72.333 24 105s38.333 60.167 67 82.5s60 38.833 94 49.5c26 8 50.333 12 73 12
c14.667 0 31 -2.5 49 -7.5s31.333 -11.167 40 -18.5s13 -16.333 13 -27c0 -13.333 -4.16699 -25.166 -12.5 -35.499s-16.5 -15.5 -24.5 -15.5c-6 0 -12.333 3 -19 9c-18 15.333 -35.667 26.333 -53 33s-33.666 10 -48.999 10c-24 0 -45 -10 -63 -30
c-24 -26.667 -36 -65.334 -36 -116.001c0 -62.667 18.333 -110.667 55 -144c27.333 -25.333 57.333 -38 90 -38c22 0 40.667 3.33301 56 10s33.666 19.667 54.999 39z" />
    <glyph glyph-name="d" unicode="d" horiz-adv-x="534" 
d="M351 79v279.999c-8.66699 14.667 -20.5 25.834 -35.5 33.501s-31.833 11.5 -50.5 11.5c-24.667 0 -46.667 -9.66699 -66 -29c-30.667 -30.667 -46 -79.667 -46 -147c0 -55.333 14 -99.333 42 -132c24 -28 51 -42 81 -42c26 0 51 8.33301 75 25zM454 709.999v-607
c0 -22 2 -35.667 6 -41s13.333 -8 28 -8h37v-28c-24 -4 -46.667 -8 -68 -12c-40 -8 -75.333 -17.333 -106 -28v58l-72 -41c-17.333 -10 -31.666 -15 -42.999 -15c-50 0 -94.333 17.333 -133 52c-45.333 40.667 -68 95.334 -68 164.001c0 67.333 25.167 124.5 75.5 171.5
s114.166 70.5 191.499 70.5l49 -5v146c0 29.333 -3.16699 47.166 -9.5 53.499s-26.833 9.5 -61.5 9.5v26c55.333 8.66699 113.333 20 174 34z" />
    <glyph glyph-name="e" unicode="e" horiz-adv-x="426" 
d="M391 108l14 -16.998c-19.333 -28 -42 -51 -68 -69c-33.333 -22.667 -64 -34 -92 -34c-64 0 -115 20 -153 60s-57 90 -57 150c0 64.667 21.167 122.167 63.5 172.5s95.5 75.5 159.5 75.5c41.333 0 76.5 -14.5 105.5 -43.5s43.5 -62.167 43.5 -99.5
c0 -18.667 -1 -30 -3 -34s-10.833 -7.33301 -26.5 -10s-52 -5.83398 -109 -9.50098s-101.833 -5.5 -134.5 -5.5c0 -58.667 16 -104 48 -136c28 -28 62.667 -42 104 -42c18 0 35 3.16699 51 9.5s34 17.166 54 32.499zM139 285.002l149 2c8.66699 0 13.834 2.5 15.501 7.5
s2.5 11.833 2.5 20.5c0 21.333 -7.33301 42 -22 62s-32.334 30 -53.001 30c-22 0 -41.833 -11.167 -59.5 -33.5s-28.5 -51.833 -32.5 -88.5z" />
    <glyph glyph-name="f" unicode="f" horiz-adv-x="303" 
d="M92 434l-0.00195312 23.9961c0 32 3 58.333 9 79s12.667 38 20 52c13.333 24.667 32 47.334 56 68.001c36 30.667 74.333 48.334 115 53.001c18.667 0 35.167 -3.16699 49.5 -9.5s26.5 -15.166 36.5 -26.499c6 -6 9 -13 9 -21c0 -4.66699 -1.16699 -9.5 -3.5 -14.5
s-5.66602 -10.167 -9.99902 -15.5s-9 -10 -14 -14s-10.5 -6 -16.5 -6c-3.33301 0 -7.66602 2 -12.999 6c-10.667 10 -24.667 19.5 -42 28.5s-32.333 13.5 -45 13.5c-16 0 -28 -9 -36 -27c-4 -8.66699 -7 -22.667 -9 -42s-3 -47.666 -3 -84.999v-63h112
c0.666992 -2 1 -5.66699 1 -11c0 -8.66699 -1.16699 -16.167 -3.5 -22.5s-6.16602 -10.5 -11.499 -12.5h-98v-295c0 -26.667 3.83301 -43.167 11.5 -49.5s31.167 -11.5 70.5 -15.5v-28h-248v28c29.333 4 47.166 9.16699 53.499 15.5s9.5 22.833 9.5 49.5v295h-68l-6 12
l28 34h46z" />
    <glyph glyph-name="g" unicode="g" horiz-adv-x="463" 
d="M212 -242c-58 0 -103.999 13.668 -137.999 41.001c-29.333 24 -44 52 -44 84c0 12 1.66699 22 5 30s8 15.167 14 21.5s19.333 16.5 40 30.5c15.333 10.667 31 21 47 31c-19.333 6.66699 -35.333 14.5 -48 23.5s-21.834 17.833 -27.501 26.5s-9.33398 16.667 -11.001 24
s-2.5 15.333 -2.5 24c20.667 8 40 17 58 27c13.333 7.33301 28.333 17 45 29c-33.333 10 -60 27.167 -80 51.5s-30 51.833 -30 82.5c0 50 20.667 90.333 62 121c36.667 27.333 79 41 127 41c36.667 0 70.334 -8.66699 101.001 -26c20.667 0 41.167 1 61.5 3s45.833 5 76.5 9
l5 -8c-4.66699 -8.66699 -11 -18 -19 -28s-16 -18 -24 -24l-53 3c18.667 -22 28 -48 28 -78c0 -48.667 -19 -87.334 -57 -116.001c-34.667 -26 -76.667 -39 -126 -39l-26 1c-9.33301 -4 -17.5 -9.5 -24.5 -16.5s-10.5 -14.167 -10.5 -21.5c0 -10 4.5 -17.667 13.5 -23
s23.5 -8 43.5 -8l93 1c38.667 0 70 -6.66699 94 -20c36 -20 54 -53.667 54 -101c0 -51.333 -24.5 -96.833 -73.5 -136.5s-106.833 -59.5 -173.5 -59.5zM148.001 303.001c0 -36.667 7.66699 -66.666 23 -89.999s35.666 -35 60.999 -35c18.667 0 34.834 9 48.501 27
s20.5 45.333 20.5 82c0 33.333 -7.33301 62.166 -22 86.499s-34.667 36.5 -60 36.5c-19.333 0 -36 -9.5 -50 -28.5s-21 -45.167 -21 -78.5zM232.001 -7.99805c-17.333 0 -32.4971 -1.83203 -45.4971 -5.49902s-23.333 -9 -31 -16s-14.334 -15.5 -20.001 -25.5
s-8.5 -21.667 -8.5 -35c0 -30 11.667 -54.667 35 -74s53.666 -29 90.999 -29c42.667 0 75 11.333 97 34c17.333 18 26 40 26 66c0 20 -4.83301 36.333 -14.5 49s-21.667 21.167 -36 25.5s-29.333 7.16602 -45 8.49902s-31.834 2 -48.501 2z" />
    <glyph glyph-name="h" unicode="h" horiz-adv-x="540" 
d="M183 710v-329.001c20 18.667 40.667 33.667 62 45c25.333 13.333 49.666 20 72.999 20c45.333 0 80.333 -13 105 -39s37 -62 37 -108v-204c0 -28 3 -45.333 9 -52s22.667 -11.667 50 -15v-28h-219v28c26 3.33301 42 8.33301 48 15s9 24 9 52v180
c0 69.333 -29.333 104 -88 104c-14.667 0 -30 -3.16699 -46 -9.5s-29.333 -15.166 -40 -26.499v-248c0 -27.333 3 -44.5 9 -51.5s21 -12.167 45 -15.5v-28h-224v28c30.667 3.33301 49.5 8.33301 56.5 15s10.5 24 10.5 52v492c0 30 -3 48 -9 54s-24.667 9 -56 9v26
c14 2 34.333 5.66699 61 11s62.334 13 107.001 23z" />
    <glyph glyph-name="i" unicode="i" horiz-adv-x="275" 
d="M195 448v-353c0 -28 3.5 -45.333 10.5 -52s26.5 -11.667 58.5 -15v-28h-240v28c31.333 2.66699 50.5 7.5 57.5 14.5s10.5 24.5 10.5 52.5v223c0 30.667 -2.83301 49 -8.5 55s-24.167 10.667 -55.5 14v23c25.333 4 53.5 9.5 84.5 16.5s58.5 14.167 82.5 21.5zM140 682
c18 0 33.333 -6.00098 46 -18.001s19 -28 19 -48c0 -18 -6.33301 -33 -19 -45s-28 -18 -46 -18c-17.333 0 -32.333 6 -45 18s-19 27 -19 45c0 18.667 6.33301 34.334 19 47.001s27.667 19 45 19z" />
    <glyph glyph-name="j" unicode="j" horiz-adv-x="266" 
d="M198 448l0.000976562 -328.998c0 -35.333 -1.83301 -64.333 -5.5 -87s-10.5 -47.334 -20.5 -74.001c-16 -42 -41.667 -84.333 -77 -127c-27.333 -32.667 -49.666 -54.334 -66.999 -65.001c-8 -5.33301 -16 -8 -24 -8c-7.33301 0 -14 4.83301 -20 14.5
s-9 18.834 -9 27.501c0 15.333 6 23.666 18 24.999c37.333 4 60.666 13.333 69.999 28c5.33301 7.33301 9.66602 15.833 12.999 25.5s6.5 26.167 9.5 49.5s5.33301 52.333 7 87s2.5 70 2.5 106v197c0 30.667 -2.83301 49 -8.5 55s-24.167 10.667 -55.5 14v23
c25.333 4 53.5 9.5 84.5 16.5s58.5 14.167 82.5 21.5zM142.001 682.002c18 0 32.999 -6 44.999 -18s18 -28 18 -48c0 -18 -6 -33 -18 -45s-27 -18 -45 -18s-33.5 6.16699 -46.5 18.5s-19.5 27.166 -19.5 44.499c0 18.667 6.33301 34.334 19 47.001s28.334 19 47.001 19z" />
    <glyph glyph-name="k" unicode="k" horiz-adv-x="494" 
d="M186 710l0.000976562 -470.002c12.667 2.66699 23.834 7.16699 33.501 13.5s17.667 13 24 20s17.833 22.5 34.5 46.5l36.5 53.5c5 7.66699 7.5 13.167 7.5 16.5c0 4 -4.33301 7 -13 9l-23 3v28l197 10v-28l-36 -8c-18 -4 -32.167 -9 -42.5 -15s-23.833 -17.333 -40.5 -34
c-12.667 -12.667 -25.834 -27 -39.501 -43l-38.5 -46c11.333 -18 35.333 -50.333 72 -97c34 -42.667 61 -75.334 81 -98.001c10 -11.333 19.667 -20.166 29 -26.499s17.666 -10.166 24.999 -11.499l21 -5v-28h-146l-145 190c-3.33301 4.66699 -7.5 9.16699 -12.5 13.5
s-9.5 6.5 -13.5 6.5l-11 -2v-113c0 -27.333 3.66699 -44.5 11 -51.5s27 -12.167 59 -15.5v-28h-246v28c34 2.66699 54.667 7.5 62 14.5s11 24.5 11 52.5v490c0 28.667 -3 45.834 -9 51.501s-25.333 10.167 -58 13.5v26c24.667 3.33301 52 8 82 14c8 1.33301 37.333 8 88 20z
" />
    <glyph glyph-name="l" unicode="l" horiz-adv-x="263" 
d="M183 710l-0.000976562 -615.001c0 -28 3.33301 -45.5 10 -52.5s26.334 -11.833 59.001 -14.5v-28h-240v28c30.667 2.66699 49.667 7.66699 57 15s11 24.666 11 51.999v490c0 28.667 -3 45.834 -9 51.501s-25.333 10.167 -58 13.5v26c25.333 3.33301 52.333 8 81 14
c4 0.666992 33.667 7.33398 89 20.001z" />
    <glyph glyph-name="m" unicode="m" horiz-adv-x="821" 
d="M92 95l-0.00390625 223c0 30.667 -2.83301 49 -8.5 55s-24.167 10.667 -55.5 14v23c25.333 4 53.5 9.5 84.5 16.5s58.5 14.167 82.5 21.5v-73l58 39c16.667 10.667 32 18.667 46 24s27.667 8 41 8c28 0 52.333 -6.66699 73 -20s35.667 -31.666 45 -54.999l68 45
c17.333 10.667 32 18.334 44 23.001s26 7 42 7c42.667 0 74.834 -12.167 96.501 -36.5s32.5 -56.5 32.5 -96.5v-218c0 -28 3.33301 -45.5 10 -52.5s24 -11.833 52 -14.5v-28h-224v28c28 3.33301 44.833 8.16602 50.5 14.499s8.5 23.833 8.5 52.5v189c0 62 -26 93 -78 93
c-15.333 0 -30.5 -3.16699 -45.5 -9.5s-31.167 -16.5 -48.5 -30.5l2 -22v-220c0 -28.667 2.83301 -46.167 8.5 -52.5s21.834 -11.166 48.501 -14.499v-28h-220v28c28 3.33301 45 8.16602 51 14.499s9 23.833 9 52.5v189c0 62 -25.667 93 -77 93
c-31.333 0 -62.333 -13.333 -93 -40v-242c0 -28 2.83301 -45.5 8.5 -52.5s20.834 -11.833 45.501 -14.5v-28h-226v28c32.667 3.33301 52.334 8.16602 59.001 14.499s10 23.833 10 52.5z" />
    <glyph glyph-name="n" unicode="n" horiz-adv-x="550" 
d="M195 448l-0.000976562 -71.0029l58 37c17.333 11.333 32.5 19.5 45.5 24.5s27.167 7.5 42.5 7.5c40 0 71.5 -12.167 94.5 -36.5s34.5 -56.166 34.5 -95.499v-221c0 -27.333 3 -44.166 9 -50.499s23 -11.166 51 -14.499v-28h-224v28c28.667 3.33301 46 8 52 14s9 23 9 51
v193c0 62 -27 93 -81 93c-14.667 0 -29.667 -3.5 -45 -10.5s-30.666 -17.167 -45.999 -30.5v-245c0 -27.333 2.83301 -44.166 8.5 -50.499s21.5 -11.166 47.5 -14.499v-28h-230v28c32.667 3.33301 52.667 8.16602 60 14.499s11 23.166 11 50.499v225
c0 30.667 -2.83301 49 -8.5 55s-24.167 10.667 -55.5 14v23c25.333 4 53.5 9.5 84.5 16.5s58.5 14.167 82.5 21.5z" />
    <glyph glyph-name="o" unicode="o" horiz-adv-x="519" 
d="M272 25c26 0 46.999 12.333 62.999 37c20 30.667 30 78.667 30 144c0 63.333 -9.83301 113 -29.5 149s-48.167 54 -85.5 54c-25.333 0 -47.666 -15.333 -66.999 -46s-29 -71.667 -29 -123c0 -64.667 10.5 -116.667 31.5 -156s49.833 -59 86.5 -59zM263.999 446
c64 0 116.667 -21.667 158 -65s62 -95.333 62 -156c0 -73.333 -23.667 -132.333 -71 -177c-42.667 -40 -93 -60 -151 -60c-71.333 0 -128 23 -170 69c-38 41.333 -57 91.666 -57 150.999c0 74.667 25 134.334 75 179.001c44 39.333 95.333 59 154 59z" />
    <glyph glyph-name="p" unicode="p" horiz-adv-x="533" 
d="M187 456l0.000976562 -69.9961l100 54c10 4 23.333 6 40 6c53.333 0 96 -20 128 -60c28.667 -36 43 -78.667 43 -128c0 -71.333 -23.667 -131.333 -71 -180c-43.333 -45.333 -100.333 -75.333 -171 -90c-14 0 -26.833 1.5 -38.5 4.5s-21.834 6.83301 -30.501 11.5v-135
c0 -27.333 4.66699 -45 14 -53s33.333 -12 72 -12v-28h-257v28c31.333 3.33301 50.5 8.16602 57.5 14.499s10.5 23.166 10.5 50.499v456c0 27.333 -3 43.666 -9 48.999s-25.667 9.66602 -59 12.999v23c30.667 6 63 14.167 97 24.5s58.667 17.5 74 21.5zM187.001 347.004
l-0.000976562 -274.001c13.333 -11.333 27.333 -20 42 -26s31.334 -9 50.001 -9c28 0 52.333 12 73 36c26 30.667 39 75.334 39 134.001c0 58 -12.333 101.667 -37 131c-21.333 25.333 -50 38 -86 38c-14 0 -27.5 -2.5 -40.5 -7.5s-26.5 -12.5 -40.5 -22.5z" />
    <glyph glyph-name="q" unicode="q" horiz-adv-x="518" 
d="M351 23l-96.001 -34.999c-71.333 0 -127.333 23.333 -168 70c-34.667 40 -52 87.333 -52 142c0 70 26.167 128.5 78.5 175.5s120.5 70.5 204.5 70.5c16 -2.66699 29.333 -5.16699 40 -7.5s18 -4.5 22 -6.5c13.333 -4 23 -6 29 -6c4.66699 0 19.667 4 45 12l2 -4
c0 -6 -0.333008 -21.333 -1 -46s-1 -44.334 -1 -59.001v-460c0 -28 3 -45 9 -51s24.667 -10.667 56 -14v-28h-252v28c38.667 0 62.334 3.66699 71.001 11s13 25.333 13 54v154zM350.999 57.001l0.000976562 314.001c-10.667 10.667 -23.834 18.667 -39.501 24
s-31.167 8 -46.5 8c-30 0 -56 -14 -78 -42c-24.667 -32 -37 -75 -37 -129c0 -58.667 15.333 -105.334 46 -140.001c28 -32 62 -48 102 -48c6.66699 0 15.167 1.33301 25.5 4s19.5 5.66699 27.5 9z" />
    <glyph glyph-name="r" unicode="r" horiz-adv-x="380" 
d="M195 448l0.00195312 -100.999c23.333 32.667 39.666 54 48.999 64c23.333 24.667 45.666 37 66.999 37c17.333 0 32 -6 44 -18s18 -25.333 18 -40c0 -12 -4 -24.5 -12 -37.5s-17.667 -21.5 -29 -25.5c-2.66699 -1.33301 -6.66699 -2 -12 -2c-7.33301 0 -13 2 -17 6
c-14.667 14.667 -30 22 -46 22c-10 0 -20.167 -4.16699 -30.5 -12.5s-20.833 -22.833 -31.5 -43.5v-202c0 -28.667 4.33301 -47 13 -55s30.667 -12 66 -12v-28h-247v28c29.333 2.66699 47.5 7.66699 54.5 15s10.5 24.666 10.5 51.999v223c0 30.667 -2.83301 49 -8.5 55
s-24.167 10.667 -55.5 14v23c25.333 4 53.5 9.5 84.5 16.5s58.5 14.167 82.5 21.5z" />
    <glyph glyph-name="s" unicode="s" horiz-adv-x="371" 
d="M35 145l24.9971 1.99707c8.66699 -31.333 24.667 -59.333 48 -84s48.333 -37 75 -37c18.667 0 34.667 6 48 18s20 27.667 20 47c0 17.333 -5.83301 32.833 -17.5 46.5s-31.167 26.167 -58.5 37.5c-35.333 14 -62.666 29.667 -81.999 47c-28 24.667 -42 53.334 -42 86.001
c0 38 14.167 70.5 42.5 97.5s67.166 40.5 116.499 40.5c15.333 0 31.5 -1.66699 48.5 -5s31.5 -7.66602 43.5 -12.999c2.66699 -6 6.5 -19.5 11.5 -40.5s9.16699 -41.167 12.5 -60.5l-28 -8c-14.667 31.333 -30.667 54 -48 68s-35.666 21 -54.999 21
c-17.333 0 -31.333 -5.66699 -42 -17s-16 -25.333 -16 -42c0 -15.333 7.33301 -29.666 22 -42.999s33.334 -24.333 56.001 -33c41.333 -15.333 72.666 -33.333 93.999 -54c24.667 -24 37 -53.333 37 -88c0 -46 -18.667 -82 -56 -108c-33.333 -23.333 -73 -35 -119 -35
c-25.333 0 -49.166 4 -71.499 12s-39.166 17.333 -50.499 28c-2.66699 6.66699 -5.66699 23 -9 49s-5 48.667 -5 68z" />
    <glyph glyph-name="t" unicode="t" horiz-adv-x="321" 
d="M174 571l14 -7.99902v-129h103c4.66699 -4.66699 7 -11.334 7 -20.001c0 -12 -4.33301 -20.667 -13 -26h-97v-247c0 -34.667 7 -59.667 21 -75c9.33301 -10.667 21.333 -16 36 -16c8 0 17.5 1.33301 28.5 4s21.833 7 32.5 13l12 -25l-88 -44
c-12.667 -6.66699 -23.667 -10 -33 -10c-74.667 0 -112 39.667 -112 119v281h-68l-6 14l32 32h42v60z" />
    <glyph glyph-name="u" unicode="u" horiz-adv-x="547" 
d="M192 441l0.00195312 -287c0 -34 8 -59.333 24 -76c13.333 -13.333 31 -20 53 -20c32 0 63.667 13.667 95 41v248c0 18 -2.33301 29.5 -7 34.5s-15.667 9.16699 -33 12.5l-28 5v24c19.333 0 45.666 2 78.999 6s64 8 92 12v-340c0 -20.667 2 -34 6 -40s13 -9 27 -9h38v-28
c-22.667 -2.66699 -43.667 -6 -63 -10c-4.66699 -0.666992 -39 -9.33398 -103 -26.001l-8 8v65l-30 -22c-10.667 -8 -21.334 -15.333 -32.001 -22c-17.333 -10.667 -31.833 -18.167 -43.5 -22.5s-24.834 -6.5 -39.501 -6.5c-40.667 0 -72.5 11.833 -95.5 35.5
s-34.5 56.834 -34.5 99.501v224c0 17.333 -2.16699 28.833 -6.5 34.5s-12.833 9.5 -25.5 11.5l-27 6v24c16.667 0 40.834 2 72.501 6s61.5 8 89.5 12z" />
    <glyph glyph-name="v" unicode="v" horiz-adv-x="470" 
d="M-8 434l226 -0.000976562v-28l-34 -5c-8.66699 -2 -13 -6.33301 -13 -13c0 -4 2.33301 -13 7 -27l46 -121.5c16 -41.667 30 -76.5 42 -104.5c11.333 27.333 24.333 61.5 39 102.5l41 117.5c4.66699 12 7 22 7 30s-5.66699 13 -17 15l-35 6v28h177v-28
c-25.333 -3.33301 -42.333 -8 -51 -14s-18.167 -20.5 -28.5 -43.5l-44 -101c-19 -44.333 -35.167 -83.5 -48.5 -117.5l-54 -138h-36l-143 351c-10.667 26 -20 42.333 -28 49s-25.667 11.334 -53 14.001v28z" />
    <glyph glyph-name="w" unicode="w" horiz-adv-x="669" 
d="M-5 434l225.001 -0.000976562v-28l-38 -8c-12 -2.66699 -18 -8.33398 -18 -17.001c0 -1.33301 1.33301 -7.33301 4 -18l72 -223l111 288h35l116 -288c10.667 25.333 25 69 43 131c15.333 52.667 24 83.5 26 92.5s3 14.5 3 16.5c0 10 -7.33301 16.333 -22 19l-38 7v28h177
v-28c-24 -4 -39.5 -9.33301 -46.5 -16s-15.833 -24 -26.5 -52c-40 -103.333 -80.667 -218.666 -122 -345.999h-35l-122 290l-56 -142c-32 -80.667 -51 -130 -57 -148h-38l-121 355c-8 24.667 -15.833 39.834 -23.5 45.501s-23.834 10.167 -48.501 13.5v28z" />
    <glyph glyph-name="x" unicode="x" horiz-adv-x="474" 
d="M286 434l185.002 0.000976562v-28c-34 -3.33301 -56.833 -7.66602 -68.5 -12.999s-27.834 -20.666 -48.501 -45.999l-29 -37l-45 -60l101 -153c18.667 -28 34 -45.667 46 -53s32 -12.666 60 -15.999v-28h-237v28l29 4c10 1.33301 15 5.66602 15 12.999
c0 5.33301 -3 12.666 -9 21.999l-65 99c-24.667 -35.333 -38.334 -55.333 -41.001 -60l-22 -37c-7.33301 -12.667 -11 -21.334 -11 -26.001s4.66699 -8 14 -10l29 -5v-28h-188v28c31.333 4.66699 52 9.33398 62 14.001c15.333 7.33301 32.666 23.666 51.999 48.999l83 110
l-93 144c-16 24.667 -29 40.334 -39 47.001s-28.333 11.334 -55 14.001v28h221v-28l-26 -4c-9.33301 -0.666992 -14 -4.33398 -14 -11.001c0 -6 2.66699 -12.667 8 -20l58 -87c20.667 29.333 38.334 56 53.001 80c0.666992 1.33301 3 5.66602 7 12.999s6 12.666 6 15.999
c0 6 -4 9.33301 -12 10l-26 3v28z" />
    <glyph glyph-name="y" unicode="y" horiz-adv-x="470" 
d="M-6 434l227.993 0.00195312v-28l-30 -5c-12.667 -2 -19 -7.33301 -19 -16c0 -4.66699 2.33301 -13.334 7 -26.001l84 -223c8.66699 20 24 58.667 46 116l41 109c4.66699 11.333 7 20 7 26c0 4 -1.5 7 -4.5 9s-8.5 3.66699 -16.5 5l-36 5v28h183v-28
c-28.667 -4 -46.667 -9 -54 -15s-18.666 -24.5 -33.999 -55.5s-36.5 -77.333 -63.5 -139l-58.5 -136.5c-32 -74.667 -56 -133.334 -72 -176.001c-12.667 -32.667 -24.334 -66 -35.001 -100c-3.33301 -10 -7.66602 -16.833 -12.999 -20.5s-11.666 -5.5 -18.999 -5.5
c-14 0 -26.833 5.5 -38.5 16.5s-17.5 22.167 -17.5 33.5c0 12.667 8.33301 24.834 25 36.501s30.834 23.834 42.501 36.501s21.834 28.667 30.501 48l25 60c1.33301 2.66699 2 6.66699 2 12c0 6 -1.66699 13.333 -5 22c-17.333 49.333 -40.166 109.666 -68.499 180.999
l-53.5 135c-11.333 28.667 -21.166 46.167 -29.499 52.5s-26.166 11.166 -53.499 14.499v28z" />
    <glyph glyph-name="z" unicode="z" horiz-adv-x="427" 
d="M390 434l8 -11.999l-69 -110l-100.5 -161.5l-68.5 -112.5h87c38 0 66 4.33301 84 13s35.333 27 52 55l17 29l26 -12l-45 -123h-347l-8 14l243 382h-80c-33.333 0 -56.333 -3.83301 -69 -11.5s-25.667 -24.834 -39 -51.501l-16 -31l-27 8c4 14 9.5 36.667 16.5 68
s12.5 57.333 16.5 78h20c2.66699 -8 8 -13.667 16 -17s20.667 -5 38 -5h245z" />
    <glyph glyph-name="braceleft" unicode="{" horiz-adv-x="360" 
d="M296 710l0.000976562 -25.998c-32.667 -3.33301 -55 -14.666 -67 -33.999c-8.66699 -13.333 -13 -33.666 -13 -60.999c0 -8.66699 1 -23.667 3 -45s3 -37 3 -47c0 -9.33301 2 -27.333 6 -54s6 -44.667 6 -54c0 -28.667 -6.66699 -53.5 -20 -74.5s-33.333 -34.5 -60 -40.5
v-4c26 0 46.333 -12.333 61 -37c12.667 -21.333 19 -48 19 -80c0 -8.66699 -2 -26.334 -6 -53.001s-6 -45 -6 -55c0 -14.667 -0.666992 -28.834 -2 -42.501s-2.66602 -30.167 -3.99902 -49.5c0 -34.667 7.33301 -59 22 -73c12.667 -12 32 -19.333 58 -22v-26
c-40.667 0 -72.334 7 -95.001 21c-34 20.667 -51 56.667 -51 108v60c2.66699 24 4.66699 43.667 6 59c4 43.333 6 72.666 6 87.999c0 32 -7.33301 55 -22 69s-36.667 21 -66 21v26c37.333 4 62.666 16.667 75.999 38c8 12.667 12 30 12 52c0 14.667 -1.66699 40.167 -5 76.5
s-5.33301 61.666 -6 75.999s-1 29.166 -1 44.499v10c0 50.667 16.667 86.334 50 107.001c24 14.667 56 22 96 22z" />
    <glyph glyph-name="bar" unicode="|" horiz-adv-x="254" 
d="M93 750h68v-1000h-68v1000z" />
    <glyph glyph-name="braceright" unicode="}" horiz-adv-x="360" 
d="M64 684l-0.00195312 25.998c40.667 0 72.334 -7 95.001 -21c34 -20.667 51 -56.667 51 -108v-60c-2.66699 -23.333 -4.66699 -42.333 -6 -57c-4 -45.333 -6 -75.333 -6 -90c0 -22.667 3.66699 -40 11 -52c13.333 -21.333 39 -34 77 -38v-26
c-28.667 0 -50.5 -7.16699 -65.5 -21.5s-22.5 -37.166 -22.5 -68.499c0 -15.333 2 -44.666 6 -87.999c2 -22.667 3.5 -44 4.5 -64s1.5 -38.333 1.5 -55c0 -50.667 -16.667 -86.334 -50 -107.001c-24 -14.667 -56 -22 -96 -22v26c32.667 3.33301 55 14.666 67 33.999
c8.66699 13.333 13 33.666 13 60.999c0 14.667 -0.666992 28.834 -2 42.501s-2.66602 30.167 -3.99902 49.5c0 10 -2 28.333 -6 55s-6 44.334 -6 53.001c0 30.667 6.83301 57.834 20.5 81.501s33.5 35.5 59.5 35.5v4c-26.667 6 -46.667 19.5 -60 40.5s-20 45.833 -20 74.5
c0 9.33301 2 27.333 6 54s6 44.667 6 54c0 10 1 25.667 3 47s3 36.333 3 45c0 34.667 -6.83301 58.5 -20.5 71.5s-33.5 20.833 -59.5 23.5z" />
    <glyph glyph-name="asciitilde" unicode="~" horiz-adv-x="628" 
d="M97 165l-35 36c25.333 40.667 53.666 69.667 84.999 87c22 12 45.333 18 70 18c18.667 0 35.5 -2.66699 50.5 -8s36.833 -15.333 65.5 -30c19.333 -10 36.666 -17.667 51.999 -23s30 -8 44 -8c37.333 0 72 26.333 104 79l34 -35c-16.667 -32 -38.167 -57.833 -64.5 -77.5
s-53.166 -29.5 -80.499 -29.5c-23.333 0 -47.666 5.33301 -72.999 16l-59 30c-17.333 9.33301 -32.5 16 -45.5 20s-26.5 6 -40.5 6c-38 0 -73.667 -27 -107 -81z" />
    <glyph glyph-name="c128" horiz-adv-x="784" 
d="M249 149l-0.00292969 461.001h-33c-42 0 -71.5 -2.16699 -88.5 -6.5s-29.833 -11.833 -38.5 -22.5c-6 -7.33301 -12 -18.166 -18 -32.499s-12 -33.166 -18 -56.499h-31c0 24.667 1 49 3 73c6 72 9 108.667 9 110h17c8 -11.333 15.167 -18.333 21.5 -21s16.833 -4 31.5 -4
h417c12.667 0 22 1.5 28 4.5s13.667 9.83301 23 20.5h17c0 -14.667 1 -34 3 -58c5.33301 -64.667 8 -105.334 8 -122.001l-31 -3c-9.33301 48 -21.333 79.667 -36 95c-13.333 15.333 -49.666 23 -108.999 23h-63v-258c28 8.66699 48.333 14.667 61 18
c34 9.33301 58.333 14 73 14c82.667 0 147 -22 193 -66c43.333 -41.333 65 -96.333 65 -165c0 -80.667 -28.667 -149 -86 -205c-52 -50.667 -125 -88.334 -219 -113.001l-11 27c52.667 19.333 95.334 48.666 128.001 87.999c43.333 52.667 65 118.334 65 197.001
c0 62.667 -14 110.5 -42 143.5s-70.333 49.5 -127 49.5c-19.333 0 -37.166 -1.83301 -53.499 -5.5s-31.833 -8.83398 -46.5 -15.501v-170c0 -54.667 4.83301 -88.5 14.5 -101.5s35.834 -19.5 78.501 -19.5v-28h-301v28c43.333 0 70.166 6.5 80.499 19.5
s15.5 46.833 15.5 101.5z" />
    <glyph glyph-name="c129" horiz-adv-x="513" 
d="M121 149v352c0 54.667 -4.33301 88.5 -13 101.5s-32 19.5 -70 19.5v28h449l11 -151l-31 -3c-9.33301 44.667 -21.5 75.167 -36.5 91.5s-51.5 24.5 -109.5 24.5h-48c-19.333 0 -30.833 -1.5 -34.5 -4.5s-5.5 -13.833 -5.5 -32.5v-426c0 -54.667 5.16699 -88.5 15.5 -101.5
s38.5 -19.5 84.5 -19.5v-28h-297v28c38 0 61.667 6.66699 71 20s14 47 14 101zM423 746l-194 -64l-11 20l164 102c8 4.66699 14.667 7 20 7c7.33301 0 15 -5.33301 23 -16l10 -13c5.33301 -6 8 -12 8 -18c0 -8.66699 -6.66699 -14.667 -20 -18z" />
    <glyph glyph-name="c141" horiz-adv-x="664" 
d="M517 746l-194 -64l-11 20l164 102c8 4.66699 14.667 7 20 7c7.33301 0 15 -5.33301 23 -16l10 -13c5.33301 -6 8 -12 8 -18c0 -8.66699 -6.66699 -14.667 -20 -18zM121 149l-0.00292969 352.001c0 54.667 -4.5 88.5 -13.5 101.5s-33.167 19.5 -72.5 19.5v28h283v-28
c-38 0 -61.667 -6.66699 -71 -20s-14 -47 -14 -101v-137c32.667 0 57.334 2.5 74.001 7.5s33.334 15.167 50.001 30.5s34.334 42.333 53.001 81l39 86c14.667 34.667 30.667 59.334 48 74.001s37.666 22 60.999 22c37.333 0 56 -12.333 56 -37
c0 -12 -3.5 -21.167 -10.5 -27.5s-15.833 -9.5 -26.5 -9.5h-26c-20.667 0 -37.167 -8.33301 -49.5 -25s-33.833 -56 -64.5 -118c-13.333 -26.667 -30 -48.667 -50 -66c-8.66699 -8 -22.334 -17.333 -41.001 -28c26 -10 48.833 -22.833 68.5 -38.5
s36.834 -36.834 51.501 -63.501l31 -62l43 -84c14.667 -28 29.667 -47.333 45 -58s35 -17.334 59 -20.001v-28h-102c-30.667 0 -54.667 7.5 -72 22.5s-33.333 38.167 -48 69.5l-63 142c-17.333 40 -36.666 67 -57.999 81c-16 10.667 -38.667 16 -68 16v-182
c0 -54.667 4.5 -88.5 13.5 -101.5s32.833 -19.5 71.5 -19.5v-28h-283v28c38.667 0 62.667 6.66699 72 20s14 47 14 101z" />
    <glyph glyph-name="c142" horiz-adv-x="813" 
d="M250 149l0.00195312 461h-34c-40 0 -69 -2.33301 -87 -7s-31.333 -12.334 -40 -23.001c-6 -7.33301 -12 -18.166 -18 -32.499s-12 -33.166 -18 -56.499h-31c0 23.333 2 56 6 98s6 70.667 6 86h17c8 -11.333 15.167 -18.333 21.5 -21s16.833 -4 31.5 -4h421
c12.667 0 22 1.5 28 4.5s14 9.83301 24 20.5h16c0 -14 1 -33.333 3 -58c5.33301 -65.333 8 -106.333 8 -123l-31 -3c-9.33301 48 -21.5 79.833 -36.5 95.5s-51.167 23.5 -108.5 23.5h-66v-257c63.333 23.333 115 35 155 35c39.333 0 72.666 -5.33301 99.999 -16
c20.667 -8 39 -19.667 55 -35c22 -22.667 33 -61.334 33 -116.001v-93c0 -45.333 4.16699 -73.333 12.5 -84s31.166 -16 68.499 -16v-28h-265v28c33.333 3.33301 53.666 9.83301 60.999 19.5s11 36.5 11 80.5v94c0 35.333 -6 61.333 -18 78
c-19.333 26.667 -54.666 40 -105.999 40c-20 0 -38.833 -1.5 -56.5 -4.5s-34.5 -7.5 -50.5 -13.5v-173c0 -54.667 5 -88.5 15 -101.5s37.333 -19.5 82 -19.5v-28h-304v28c43.333 0 70 6.5 80 19.5s15 46.833 15 101.5z" />
    <glyph glyph-name="c143" horiz-adv-x="759" 
d="M33 650l286.997 0.000976562v-28c-39.333 0 -63.666 -6.66699 -72.999 -20s-14 -47 -14 -101v-406c0 -26.667 3.5 -42.834 10.5 -48.501s26.833 -8.5 59.5 -8.5h152c34 0 54.5 2.66699 61.5 8s10.5 21.666 10.5 48.999v406c0 54.667 -4.5 88.5 -13.5 101.5
s-33.5 19.5 -73.5 19.5v28h286v-28c-39.333 0 -63.666 -6.66699 -72.999 -20s-14 -47 -14 -101v-352c0 -54 4.66699 -87.667 14 -101s34 -20 74 -20v-28h-230c-28.667 0 -48.167 -4.16699 -58.5 -12.5s-17.666 -20.666 -21.999 -36.999s-8 -35.666 -11 -57.999
s-5.83301 -48.166 -8.5 -77.499h-34c-2 19.333 -3.66699 38.333 -5 57c-3.33301 29.333 -7.83301 53.666 -13.5 72.999s-12.834 32.666 -21.501 39.999c-12.667 10 -33 15 -61 15h-231v28c40.667 0 65.834 6.5 75.501 19.5s14.5 46.833 14.5 101.5v352
c0 54 -4.66699 87.667 -14 101s-34 20 -74 20v28z" />
    <glyph glyph-name="c144" horiz-adv-x="524" 
d="M192 710l-0.000976562 -170.999h213v-41h-213v-118l60 25c10.667 4 20 7.16699 28 9.5s16.667 3.5 26 3.5c59.333 0 106 -23.333 140 -70c31.333 -42.667 47 -96 47 -160c0 -82.667 -24.667 -158.334 -74 -227.001c-41.333 -58 -99.666 -110.667 -174.999 -158l-21 25
c50 40 87.833 88.333 113.5 145s38.5 125.334 38.5 206.001c0 63.333 -12.333 110.666 -37 141.999c-21.333 27.333 -49.666 41 -84.999 41c-22 0 -42.333 -5.33301 -61 -16v-251c0 -28 3.5 -45.333 10.5 -52s26.5 -11.667 58.5 -15v-28h-241v28
c32 3.33301 51.5 8.33301 58.5 15s10.5 24 10.5 52v403h-68v41h68v46c0 30 -3.33301 48.333 -10 55s-26.334 10 -59.001 10v25c40 6.66699 75.5 13.5 106.5 20.5z" />
    <glyph glyph-name="c157" horiz-adv-x="526" 
d="M407 595l-141.001 -122l-23 12l106 153c6.66699 10 14 15 22 15c2.66699 0 9.33398 -2 20.001 -6l18 -10c10 -6 15 -12 15 -18c0 -8 -5.66699 -16 -17 -24zM25.999 434l237.002 -0.00488281v-28c-30 -3.33301 -48.333 -8.16602 -55 -14.499s-10 -23.5 -10 -51.5v-95
c25.333 0 49.666 9.66699 72.999 29c10 8.66699 23.333 24 40 46c13.333 17.333 25.666 35.333 36.999 54s23 33.334 35 44.001c19.333 17.333 40.333 26 63 26c12.667 0 23.167 -2.66699 31.5 -8s12.5 -13.333 12.5 -24c0 -10 -3 -18 -9 -24s-15.667 -9 -29 -9h-21
c-14.667 0 -27.667 -3.83301 -39 -11.5s-28.666 -28.5 -51.999 -62.5c-7.33301 -11.333 -15.666 -22.166 -24.999 -32.499s-18 -18.166 -26 -23.499c24.667 -12 39 -19.667 43 -23c9.33301 -7.33301 18.333 -16.666 27 -27.999l59 -95c18 -29.333 32.5 -49.166 43.5 -59.499
s25.833 -15.5 44.5 -15.5v-28h-72c-26 0 -45.333 2.66699 -58 8c-18 8 -33.667 23.333 -47 46c-10.667 18.667 -22 40 -34 64l-26 53c-8.66699 18 -18.667 30.167 -30 36.5s-25 9.5 -41 9.5v-123c0 -28 3.33301 -45.167 10 -51.5s26 -11.166 58 -14.499v-28h-243v28
c33.333 3.33301 53.666 8.16602 60.999 14.499s11 23.5 11 51.5v246c0 28 -3.33301 45.167 -10 51.5s-26.334 11.166 -59.001 14.499v28z" />
    <glyph glyph-name="c158" horiz-adv-x="548" 
d="M190 710l0.00195312 -171.002h212v-41h-212v-119c19.333 20 40 35.667 62 47c25.333 13.333 51 20 77 20c44 0 78.333 -13.333 103 -40s37 -62.667 37 -108v-203c0 -28.667 3.16699 -46.167 9.5 -52.5s24.166 -11.166 53.499 -14.499v-28h-225v28
c27.333 2.66699 44.166 7.5 50.499 14.5s9.5 24.5 9.5 52.5v181c0 68.667 -29 103 -87 103c-36 0 -66 -13 -90 -39v-245c0 -28.667 2.83301 -46.167 8.5 -52.5s21.5 -11.166 47.5 -14.499v-28h-229v28c32.667 3.33301 52.5 8.16602 59.5 14.499s10.5 23.833 10.5 52.5v403
h-68v41h68v46c0 29.333 -3 46.833 -9 52.5s-25.333 10.167 -58 13.5v24c49.333 8.66699 106 20.334 170 35.001z" />
    <glyph glyph-name="nonbreakingspace" unicode="&#xa0;" horiz-adv-x="500" 
 />
    <glyph glyph-name="exclamdown" unicode="&#xa1;" horiz-adv-x="668" 
d="M350 711c41.333 0 62 14.002 62 42.002c1.33301 10 4.33301 18.333 9 25c7.33301 10.667 17.666 16 30.999 16c10.667 0 19.167 -3.83301 25.5 -11.5s9.5 -16.167 9.5 -25.5c0 -24.667 -12.667 -44.334 -38 -59.001s-58.333 -22 -99 -22
c-41.333 0 -74.666 7.16699 -99.999 21.5s-38 34.166 -38 59.499c0 9.33301 3.16699 17.833 9.5 25.5s14.833 11.5 25.5 11.5c14 0 24.667 -5 32 -15c5.33301 -7.33301 8 -16 8 -26c2.66699 -28 23.667 -42 63 -42zM19 650.002l255.998 -0.000976562v-28l-30 -5
c-15.333 -3.33301 -23 -10 -23 -20c0 -7.33301 3.66699 -18.333 11 -33l140 -288l40 94c40 94.667 63.667 153.667 71 177c7.33301 20 11 34.667 11 44c0 15.333 -12 24.666 -36 27.999l-28 3v28h216v-28c-35.333 -5.33301 -58.666 -12.666 -69.999 -21.999
s-27 -34.666 -47 -75.999c-2 -4 -20 -44.167 -54 -120.5l-72 -162.5l-54 -121c-25.333 -55.333 -53.333 -95 -84 -119c-23.333 -18.667 -48 -28 -74 -28c-19.333 0 -36 4 -50 12c-17.333 10 -27.333 23.333 -30 40c-1.33301 3.33301 -2 8.33301 -2 15c0 16 6 27.667 18 35
c6 3.33301 13.333 5 22 5c10 0 20.667 -4 32 -12c16.667 -14 34.667 -21 54 -21c18.667 0 35.334 10.833 50.001 32.5s22 42.167 22 61.5c0 8.66699 -1.16699 17.667 -3.5 27s-6.83301 21 -13.5 35l-174 357c-12 24 -23.333 39.167 -34 45.5s-32 11.833 -64 16.5v28z" />
    <glyph glyph-name="cent" unicode="&#xa2;" horiz-adv-x="459" 
d="M250 480c-36.667 0 -65.502 7.16699 -86.502 21.5s-31.5 32.5 -31.5 54.5c0 12 3.5 22.333 10.5 31s17.167 13 30.5 13c10 0 17.5 -2.83301 22.5 -8.5s7.5 -13.167 7.5 -22.5c0 -4.66699 -0.333008 -8 -1 -10l-5 -20c-3.33301 -18.667 14.334 -28 53.001 -28
s56.334 9.33301 53.001 28l-5 20c-0.666992 2 -1 5.33301 -1 10c0 8.66699 2.66699 16 8 22s13 9 23 9c12.667 0 22.5 -4.16699 29.5 -12.5s10.5 -18.833 10.5 -31.5c0 -22 -10.333 -40.167 -31 -54.5s-49.667 -21.5 -87 -21.5zM223.998 434l-0.999023 -26.999l-32 -4
c-11.333 -2 -17 -7.66699 -17 -17c0 -4 1 -9 3 -15l4 -12l89 -231c8 18 23 58.333 45 121l39 113c4 12 6 20.333 6 25c0 8 -6.66699 13 -20 15l-38 5v27h184v-27c-26.667 -4 -43.667 -9 -51 -15s-18.333 -24 -33 -54c-26 -53.333 -65.667 -147 -119 -281l-60 -146
c-18 -43.333 -32.333 -74.333 -43 -93c-14 -26 -28 -43.667 -42 -53c-10 -6.66699 -22.333 -10 -37 -10c-13.333 0 -26 5.33301 -38 16s-18 23 -18 37c0 8.66699 1.83301 15.667 5.5 21s10.167 8.66602 19.5 9.99902c30.667 6 54.667 16 72 30s32 34.667 44 62
c4.66699 10 9.16699 20.333 13.5 31s7.16602 18.667 8.49902 24s2 11 2 17s-1.33301 12.667 -4 20l-70 182c-0.666992 2 -19 46.333 -55 133c-12.667 29.333 -23.5 47.5 -32.5 54.5s-27.167 11.833 -54.5 14.5v27h230z" />
    <glyph glyph-name="sterling" unicode="&#xa3;" horiz-adv-x="343" 
d="M134 190l-0.000976562 310c0 54.667 -4.83301 88.667 -14.5 102s-35.167 20 -76.5 20v28h282v-28c-36 -3.33301 -58.167 -11 -66.5 -23s-12.5 -45 -12.5 -99v-323c0 -64.667 -5 -113.667 -15 -147c-14 -46 -41.333 -84 -82 -114c-16.667 -12.667 -35 -23.834 -55 -33.501
s-41.667 -17.5 -65 -23.5l-12 28c31.333 14.667 55.666 33.334 72.999 56.001c14.667 19.333 25.334 43.666 32.001 72.999c4.66699 22.667 7.83398 46.834 9.50098 72.501s2.5 59.5 2.5 101.5z" />
    <glyph glyph-name="currency" unicode="&#xa4;" 
d="M244 490c-37.333 0 -68.666 -15.5 -93.999 -46.5s-38 -70.167 -38 -117.5c0 -48 12.667 -87.667 38 -119s56.666 -47 93.999 -47s68.333 15.667 93 47s37 71 37 119c0 46.667 -12.333 85.667 -37 117s-55.667 47 -93 47zM82 560l43.9971 -54.001
c16.667 12.667 34.834 22.167 54.501 28.5s40.834 9.5 63.501 9.5c20.667 0 40.834 -3 60.501 -9s38.167 -15.667 55.5 -29l44 54l58 -54l-50 -48c29.333 -35.333 44 -79.333 44 -132c0 -54 -14.667 -98.667 -44 -134l50 -48l-58 -54l-44 54
c-33.333 -25.333 -72 -38 -116 -38c-22 0 -42.833 3 -62.5 9s-38.167 15.667 -55.5 29l-44 -54l-58 54l52 48c-30.667 34.667 -46 79.334 -46 134.001c0 53.333 15.333 97.333 46 132l-52 48z" />
    <glyph glyph-name="yen" unicode="&#xa5;" horiz-adv-x="503" 
d="M121 149l-0.000976562 352c0 54.667 -4.33301 88.5 -13 101.5s-32 19.5 -70 19.5v28h284c58.667 0 94.834 7.5 108.501 22.5s25.5 43.833 35.5 86.5l31 -3l-11 -144h-213c-19.333 0 -30.833 -1.5 -34.5 -4.5s-5.5 -13.833 -5.5 -32.5v-426
c0 -54.667 5.16699 -88.5 15.5 -101.5s38.5 -19.5 84.5 -19.5v-28h-297v28c38 0 61.667 6.66699 71 20s14 47 14 101z" />
    <glyph glyph-name="brokenbar" unicode="&#xa6;" horiz-adv-x="254" 
d="M93 675h68v-350h-68v350zM93 -175v350h68v-350h-68z" />
    <glyph glyph-name="section" unicode="&#xa7;" horiz-adv-x="504" 
d="M296 676c13.333 0 26.502 -2.50293 39.502 -7.50293s24.333 -11.167 34 -18.5s14.5 -15.666 14.5 -24.999c0 -8 -1.5 -15.167 -4.5 -21.5s-7.83301 -12.5 -14.5 -18.5c-4 -2.66699 -7.66699 -4 -11 -4c-4 0 -8.33301 1.66699 -13 5l-15 11c-22 14 -44 21 -66 21
c-22.667 0 -40.5 -7.16699 -53.5 -21.5s-19.5 -28.5 -19.5 -42.5c0 -16 3.16699 -30.167 9.5 -42.5s17.5 -24.833 33.5 -37.5s35 -26.334 57 -41.001l65 -43c33.333 -23.333 58.666 -47 75.999 -71c24 -32.667 36 -69 36 -109c0 -36.667 -12.333 -78.667 -37 -126
c-18.667 -35.333 -43.334 -72.333 -74.001 -111c-44.667 -56 -93.667 -91.667 -147 -107c-8.66699 0 -21.334 1.83301 -38.001 5.5s-29.5 8.66699 -38.5 15s-15.167 11.5 -18.5 15.5s-5 8.66699 -5 14c0 6.66699 3.16699 14.834 9.5 24.501s12 15.834 17 18.501
s8.83301 4 11.5 4c1.33301 0 5.33301 -1.66699 12 -5c8 -6 16.333 -10.667 25 -14c16.667 -6.66699 34.334 -10 53.001 -10c20 0 37.333 5.66699 52 17c18 14 27 33 27 57c0 22.667 -5.5 42.334 -16.5 59.001s-31.167 37 -60.5 61l-116 88c-26 21.333 -45 41.333 -57 60
c-15.333 24 -23 50 -23 78c0 38.667 10 78.334 30 119.001c16 33.333 38 65.833 66 97.5s52.333 54.5 73 68.5c24.667 17.333 53.667 29.666 87 36.999zM140.002 509.997l-2.00098 2c-12 -15.333 -21.333 -31.166 -28 -47.499s-10 -33.833 -10 -52.5
c0 -26 6.16699 -49.333 18.5 -70s30.833 -40.334 55.5 -59.001l72 -54c24 -17.333 46 -35.666 66 -54.999c17.333 -17.333 28.833 -30.666 34.5 -39.999s10.334 -20.5 14.001 -33.5s5.5 -27.167 5.5 -42.5l2 -2c25.333 35.333 38 70.666 38 105.999
c0 24.667 -6.33301 48 -19 70c-16 27.333 -42.333 54.666 -79 81.999l-69 50c-30.667 22.667 -49.334 37.334 -56.001 44.001c-11.333 10.667 -20.666 22 -27.999 34c-10.667 18 -16 36.333 -16 55c0 5.33301 0.333008 9.66602 1 12.999z" />
    <glyph glyph-name="dieresis" unicode="&#xa8;" horiz-adv-x="560" 
d="M37 650l451.999 0.000976562l12 -152l-30 -2c-9.33301 45.333 -21.666 75.666 -36.999 90.999s-52.333 23 -111 23h-50c-19.333 0 -30.833 -1.5 -34.5 -4.5s-5.5 -13.5 -5.5 -31.5v-212h86c42 0 67.5 4 76.5 12s16.167 31.667 21.5 71h32v-212h-32
c-5.33301 40 -12.333 63.833 -21 71.5s-34.334 11.5 -77.001 11.5h-86v-164c0 -30.667 1.5 -53.167 4.5 -67.5s8.66699 -24.5 17 -30.5s20 -9.83301 35 -11.5s35.5 -2.5 61.5 -2.5c28.667 0 52.834 1.83301 72.501 5.5s34.5 11.5 44.5 23.5
c16.667 18.667 33.667 52.334 51 101.001l30 -6c-2 -19.333 -6.83301 -46.833 -14.5 -82.5s-14.167 -62.834 -19.5 -81.501h-488v28c42.667 0 69 6.66699 79 20s15 47.333 15 102v350c0 54.667 -4.5 88.667 -13.5 102s-32.5 20 -70.5 20v28zM385.999 684.001
c-14.667 0 -26.5 4.83105 -35.5 14.498s-13.5 21.834 -13.5 36.501s4.5 26.834 13.5 36.501s20.833 14.5 35.5 14.5c14 0 25.667 -5 35 -15s14 -22 14 -36s-4.66699 -26 -14 -36s-21 -15 -35 -15zM193.999 683.999c-14.667 0 -26.5 4.83105 -35.5 14.498
s-13.5 21.834 -13.5 36.501s4.5 26.834 13.5 36.501s20.833 14.5 35.5 14.5c14 0 25.667 -5 35 -15s14 -22 14 -36s-4.66699 -26 -14 -36s-21 -15 -35 -15z" />
    <glyph glyph-name="copyright" unicode="&#xa9;" horiz-adv-x="692" 
d="M480 251l21.999 -3.00098l-24 -93c-16 -5.33301 -33.667 -10 -53 -14s-38.333 -6 -57 -6c-61.333 0 -109.666 18.333 -144.999 55c-31.333 32 -47 71.333 -47 118c0 54 18.833 97.167 56.5 129.5s83.167 48.5 136.5 48.5c24.667 0 45.334 -1.66699 62.001 -5
s33 -7.66602 49 -12.999l11 -92l-21 -4c-10 30 -22.333 51.333 -37 64c-16.667 14.667 -38.667 22 -66 22c-36.667 0 -65.334 -13.333 -86.001 -40s-31 -61 -31 -103c0 -44.667 11.333 -81.167 34 -109.5s51 -42.5 85 -42.5c26.667 0 49 7.5 67 22.5s32.667 36.833 44 65.5z
M345.999 616.999c85.333 0 156.833 -29.5 214.5 -88.5s86.5 -131.833 86.5 -218.5c0 -84.667 -29 -156.667 -87 -216s-129.333 -89 -214 -89c-85.333 0 -156.833 29.5 -214.5 88.5s-86.5 131.167 -86.5 216.5s28.833 157.833 86.5 217.5s129.167 89.5 214.5 89.5z
M346.999 579.999c-72.667 0 -132.834 -25.833 -180.501 -77.5s-71.5 -115.5 -71.5 -191.5s23.833 -139.833 71.5 -191.5s107.834 -77.5 180.501 -77.5s132.5 25.833 179.5 77.5s70.5 115.5 70.5 191.5s-23.5 139.833 -70.5 191.5s-106.833 77.5 -179.5 77.5z" />
    <glyph glyph-name="ordfeminine" unicode="&#xaa;" horiz-adv-x="656" 
d="M616 479l-30.9971 -4c-14.667 54.667 -38 94 -70 118c-28.667 21.333 -66 32 -112 32c-74.667 0 -133.667 -26 -177 -78c-40 -48 -60 -109.667 -60 -185l329 10v-66l-330 10c0 -87.333 21.333 -157.666 64 -210.999s96.667 -80 162 -80c42 0 76.667 10 104 30
c24 17.333 42.333 42.5 55 75.5s29 49.5 49 49.5c22.667 0 34 -13.667 34 -41c0 -14 -5.33301 -29.333 -16 -46s-24.334 -32 -41.001 -46c-22 -18 -50.5 -32.833 -85.5 -44.5s-70.5 -17.5 -106.5 -17.5c-110.667 0 -197.334 35 -260.001 105
c-55.333 61.333 -83 136.666 -83 225.999c0 100.667 35 184 105 250s158.333 99 265 99c38 0 76.333 -4.33301 115 -13l72 -16c0 -2 2.16699 -20.167 6.5 -54.5s8.16602 -68.5 11.499 -102.5z" />
    <glyph glyph-name="guillemotleft" unicode="&#xab;" horiz-adv-x="442" 
d="M225 50l-20 -18l-77 97l-83 97l82 97l78 97l20 -16l-92 -178zM397 50l-20 -18l-77 97l-83 97l82 97l78 97l20 -16l-94 -178z" />
    <glyph glyph-name="logicalnot" unicode="&#xac;" horiz-adv-x="617" 
d="M55 401h518v-293h-60v242h-458v51z" />
    <glyph glyph-name="registered" unicode="&#xae;" horiz-adv-x="536" 
d="M237 523v-85.999h19c12.667 0 22.667 2.66699 30 8s12.833 12.666 16.5 21.999s5.5 17 5.5 23c0 17.333 -5.16699 30 -15.5 38s-21.5 12 -33.5 12s-18.667 -1.33301 -20 -4s-2 -7 -2 -13zM154 563.001l117 0.00195312c34.667 0 59.667 -7 75 -21
c12 -11.333 18 -27.333 18 -48c0 -14 -5.16699 -26.833 -15.5 -38.5s-23.5 -20.5 -39.5 -26.5l33 -55c5.33301 -9.33301 10.333 -17 15 -23s9 -11.333 13 -16l18 -14l4 -2l-3 -15l-15 1c-33.333 0 -57.333 12 -72 36l-35 64c-4.66699 8 -10.667 12 -18 12h-12v-57
c0 -15.333 1.66699 -24.666 5 -27.999s13 -5.66602 29 -6.99902v-18h-117v18c15.333 1.33301 24.666 3.66602 27.999 6.99902s5 12.666 5 27.999v150c0 15.333 -1.66699 24.666 -5 27.999s-12.666 5.66602 -27.999 6.99902v18zM268 633.003
c-52.667 0 -96.8311 -19.167 -132.498 -57.5s-53.5 -84.833 -53.5 -139.5s17.667 -101.334 53 -140.001s79.666 -58 132.999 -58c52 0 96 19.333 132 58s54 85.334 54 140.001s-17.833 101.167 -53.5 139.5s-79.834 57.5 -132.501 57.5zM268.003 666.003
c64 0 118 -21.999 162 -65.999s66 -99 66 -165c0 -64.667 -21.833 -119.167 -65.5 -163.5s-97.834 -66.5 -162.501 -66.5c-64 0 -118 22 -162 66s-66 98.667 -66 164s21.833 120.166 65.5 164.499s97.834 66.5 162.501 66.5z" />
    <glyph glyph-name="macron" unicode="&#xaf;" horiz-adv-x="350" 
d="M35 650h281.999v-28c-37.333 0 -60.666 -6.83301 -69.999 -20.5s-14 -47.5 -14 -101.5v-350c0 -54.667 4.5 -88.667 13.5 -102s32.5 -20 70.5 -20v-28h-282v28c38.667 0 62.667 6.66699 72 20s14 47.333 14 102v350c0 54.667 -4.5 88.667 -13.5 102s-33.167 20 -72.5 20
v28zM272.999 684c-14.667 0 -26.5 4.83105 -35.5 14.498s-13.5 21.834 -13.5 36.501s4.5 26.834 13.5 36.501s20.833 14.5 35.5 14.5c14 0 25.667 -5 35 -15s14 -22 14 -36s-4.66699 -26 -14 -36s-21 -15 -35 -15zM80.999 683.998c-14.667 0 -26.5 4.83105 -35.5 14.498
s-13.5 21.834 -13.5 36.501s4.5 26.834 13.5 36.501s20.833 14.5 35.5 14.5c14 0 25.667 -5 35 -15s14 -22 14 -36s-4.66699 -26 -14 -36s-21 -15 -35 -15z" />
    <glyph glyph-name="degree" unicode="&#xb0;" horiz-adv-x="350" 
d="M175 665c40.667 0 75.667 -13.667 105 -41s44 -62 44 -104c0 -44 -14.333 -79.333 -43 -106s-64 -40 -106 -40c-41.333 0 -76.333 13.333 -105 40s-43 62 -43 106c0 42.667 14.5 77.5 43.5 104.5s63.833 40.5 104.5 40.5zM176 619c-24 0 -44 -8.99902 -60 -26.999
s-24 -42 -24 -72c0 -29.333 8 -53.333 24 -72s36 -28 60 -28s43.833 9.16699 59.5 27.5s23.5 42.5 23.5 72.5c0 29.333 -7.83301 53.166 -23.5 71.499s-35.5 27.5 -59.5 27.5z" />
    <glyph glyph-name="plusminus" unicode="&#xb1;" horiz-adv-x="628" 
d="M572 51v-51h-517v51h517zM284 599h60v-211h229v-51h-229v-222h-60v222h-229v51h229v211z" />
    <glyph glyph-name="twosuperior" unicode="&#xb2;" horiz-adv-x="350" 
d="M35 650h281.999v-28c-37.333 0 -60.666 -6.83301 -69.999 -20.5s-14 -47.5 -14 -101.5v-350c0 -54.667 4.5 -88.667 13.5 -102s32.5 -20 70.5 -20v-28h-282v28c38.667 0 62.667 6.66699 72 20s14 47.333 14 102v350c0 54.667 -4.5 88.667 -13.5 102s-33.167 20 -72.5 20
v28z" />
    <glyph glyph-name="threesuperior" unicode="&#xb3;" horiz-adv-x="278" 
d="M195 448v-353c0 -28 3.5 -45.333 10.5 -52s26.5 -11.667 58.5 -15v-28h-240v28c31.333 2.66699 50.5 7.5 57.5 14.5s10.5 24.5 10.5 52.5v223c0 30.667 -2.83301 49 -8.5 55s-24.167 10.667 -55.5 14v23c25.333 4 53.5 9.5 84.5 16.5s58.5 14.167 82.5 21.5zM140 682
c18 0 33.333 -6.00098 46 -18.001s19 -28 19 -48c0 -18 -6.33301 -33 -19 -45s-28 -18 -46 -18c-17.333 0 -32.333 6 -45 18s-19 27 -19 45c0 18.667 6.33301 34.334 19 47.001s27.667 19 45 19z" />
    <glyph glyph-name="acute" unicode="&#xb4;" horiz-adv-x="396" 
d="M25 434l239 0.00390625c14 0 27 1.5 39 4.5s21 8.5 27 16.5c11.333 15.333 22 40.666 32 75.999l29 -3l-10 -129h-153c-14 0 -22.333 -1.33301 -25 -4s-4 -11.334 -4 -26.001v-275c0 -28.667 4.16699 -46.834 12.5 -54.501s29.833 -11.5 64.5 -11.5v-28h-248v28
c31.333 2.66699 50.5 7.5 57.5 14.5s10.5 24.167 10.5 51.5v246c0 28 -3.5 45.167 -10.5 51.5s-27.167 11.166 -60.5 14.499v28z" />
    <glyph glyph-name="mu" unicode="&#xb5;" horiz-adv-x="534" 
d="M450 434l-0.00195312 -328c0 -20.667 2.33301 -34.834 7 -42.501s10.667 -11.5 18 -11.5c13.333 0 24 10 32 30l27 -10c-6.66699 -26 -18 -46.5 -34 -61.5s-37.667 -22.5 -65 -22.5c-22.667 0 -41.5 6.5 -56.5 19.5s-24.167 32.167 -27.5 57.5
c-9.33301 -26 -23.666 -45.333 -42.999 -58s-40 -19 -62 -19c-24 0 -42.667 3.66699 -56 11c-17.333 9.33301 -32 27 -44 53l15 -264l-89 -30l-10 8c0 48 1.66699 110.333 5 187s5 129.334 5 158.001v323h103v-275c0 -37.333 8.66699 -65 26 -83
c14.667 -15.333 33.334 -23 56.001 -23c24 0 43.333 5.66699 58 17c21.333 16.667 32 44.667 32 84v280h103z" />
    <glyph glyph-name="paragraph" unicode="&#xb6;" horiz-adv-x="500" 
d="M271 650l203.999 -0.00292969l4 -12l-30 -26l-88 -10v-492c0 -42 -5.16699 -76.667 -15.5 -104s-28.166 -55.666 -53.499 -84.999c-14 -16 -32 -29.667 -54 -41c-18 -9.33301 -31 -14 -39 -14c-16 0 -29.833 2.33301 -41.5 7s-22.5 11 -32.5 19
c-3.33301 2.66699 -6 6.5 -8 11.5s-2.33301 10.5 -1 16.5c4 12 10.333 21.667 19 29c3.33301 3.33301 6.66602 5 9.99902 5c4 0 8.33301 -1.66699 13 -5c22.667 -14 45.334 -21 68.001 -21c20.667 0 36.667 9 48 27c15.333 24 23 64 23 120v175l-56 -29
c-6 -3.33301 -13.333 -5 -22 -5c-36.667 0 -73 18.333 -109 55c-42 42.667 -63 93 -63 151c0 32 6.33301 62.333 19 91s29.667 52.834 51 72.501s46.333 35.334 75 47.001s55 17.5 79 17.5z" />
    <glyph glyph-name="periodcentered" unicode="&#xb7;" horiz-adv-x="242" 
d="M120 205c-19.333 0 -35.5 6.49902 -48.5 19.499s-19.5 30.5 -19.5 52.5c0 20 6.33301 36.667 19 50s29 20 49 20s36.667 -6.66699 50 -20s20 -30 20 -50c0 -21.333 -6.66699 -38.666 -20 -51.999s-30 -20 -50 -20z" />
    <glyph glyph-name="periodcentered" unicode="&#x2219;" horiz-adv-x="242" 
d="M120 205c-19.333 0 -35.5 6.49902 -48.5 19.499s-19.5 30.5 -19.5 52.5c0 20 6.33301 36.667 19 50s29 20 49 20s36.667 -6.66699 50 -20s20 -30 20 -50c0 -21.333 -6.66699 -38.666 -20 -51.999s-30 -20 -50 -20z" />
    <glyph glyph-name="cedilla" unicode="&#xb8;" horiz-adv-x="428" 
d="M391 108l14 -16.998c-19.333 -28 -42 -51 -68 -69c-33.333 -22.667 -64 -34 -92 -34c-64 0 -115 20 -153 60s-57 90 -57 150c0 64.667 21.167 122.167 63.5 172.5s95.5 75.5 159.5 75.5c41.333 0 76.5 -14.5 105.5 -43.5s43.5 -62.167 43.5 -99.5
c0 -18.667 -1 -30 -3 -34s-10.833 -7.33301 -26.5 -10s-52 -5.83398 -109 -9.50098s-101.833 -5.5 -134.5 -5.5c0 -58.667 16 -104 48 -136c28 -28 62.667 -42 104 -42c18 0 35 3.16699 51 9.5s34 17.166 54 32.499zM139 285.002l149 2c8.66699 0 13.834 2.5 15.501 7.5
s2.5 11.833 2.5 20.5c0 21.333 -7.33301 42 -22 62s-32.334 30 -53.001 30c-22 0 -41.833 -11.167 -59.5 -33.5s-28.5 -51.833 -32.5 -88.5zM325 506.002c-14.667 0 -26.5 4.83105 -35.5 14.498s-13.5 21.834 -13.5 36.501s4.5 26.834 13.5 36.501s20.833 14.5 35.5 14.5
c14 0 25.667 -5 35 -15s14 -22 14 -36s-4.66699 -26 -14 -36s-21 -15 -35 -15zM142 506c-14.667 0 -26.5 4.83105 -35.5 14.498s-13.5 21.834 -13.5 36.501s4.5 26.834 13.5 36.501s20.833 14.5 35.5 14.5c14 0 25.667 -5 35 -15s14 -22 14 -36s-4.66699 -26 -14 -36
s-21 -15 -35 -15z" />
    <glyph glyph-name="onesuperior" unicode="&#xb9;" horiz-adv-x="881" 
d="M766 311c0 42.667 -6.66699 77.167 -20 103.5s-32 39.5 -56 39.5c-18 0 -32.833 -9.66699 -44.5 -29s-17.5 -45.333 -17.5 -78c0 -42 7.33301 -76 22 -102s33.667 -39 57 -39c18.667 0 33.167 8 43.5 24s15.5 43 15.5 81zM849 334c0 -50.667 -15.668 -91 -47.001 -121
c-28 -26.667 -61.667 -40 -101 -40c-47.333 0 -85.333 15.667 -114 47c-26 28 -39 62 -39 102c0 53.333 16.667 95 50 125c28.667 26 62.334 39 101.001 39c44 0 80 -14.333 108 -43s42 -65 42 -109zM489.999 335v-341.997h-37l-272 486l-2 -193
c0 -80 -2.83301 -137.833 -8.5 -173.5s-15.5 -62.834 -29.5 -81.501c-20.667 -28.667 -46 -43 -76 -43c-14 0 -26 4 -36 12s-15 19 -15 33c0 13.333 3.5 23.5 10.5 30.5s15.5 10.5 25.5 10.5c2.66699 0 9.33398 -1.66699 20.001 -5c4 -1.33301 8.33301 -2 13 -2
c16 0 28 13.667 36 41c11.333 40 17 114 17 222v145c0 27.333 -0.833008 46.5 -2.5 57.5s-5.83398 21.833 -12.501 32.5c-14 20.667 -42.333 31 -85 31v28h170l238 -421l2 154c0 80.667 4 140.667 12 180c5.33301 28 14.666 50.333 27.999 67c8 10.667 17 18.667 27 24
s20 8 30 8c13.333 0 23.5 -3.83301 30.5 -11.5s10.5 -17.834 10.5 -30.501c0 -6.66699 -2.5 -12 -7.5 -16s-11.833 -8 -20.5 -12c-21.333 -10 -37.666 -32.333 -48.999 -67s-17 -89.334 -17 -164.001zM571.999 127.003h259v-41h-259v41z" />
    <glyph glyph-name="ordmasculine" unicode="&#xba;" horiz-adv-x="461" 
d="M425 315l-29.999 -7.99609c-11.333 30.667 -23.333 53.334 -36 68.001c-21.333 25.333 -48 38 -80 38c-40.667 0 -71.834 -15.833 -93.501 -47.5s-32.5 -70.834 -32.5 -117.501l179 9l1 -54l-180 10c0 -46.667 8 -87.334 24 -122.001c20.667 -44 50.334 -66 89.001 -66
c42 0 72.333 19 91 57c9.33301 16 15.666 26 18.999 30c7.33301 7.33301 16 11 26 11c11.333 0 20.5 -3.83301 27.5 -11.5s10.5 -16.5 10.5 -26.5c0 -8.66699 -1.83301 -16.834 -5.5 -24.501s-10.834 -16.167 -21.501 -25.5c-36 -31.333 -84 -47 -144 -47
c-65.333 0 -120 19.333 -164 58c-46.667 41.333 -70 96.666 -70 165.999c0 67.333 21.667 123.666 65 168.999s101.333 68 174 68c24.667 0 47.334 -2.16699 68.001 -6.5s41.667 -10.5 63 -18.5z" />
    <glyph glyph-name="guillemotright" unicode="&#xbb;" horiz-adv-x="442" 
d="M65 32l-20 18l92 176l-92 178l20 16l77 -97l83 -97l-82 -97zM237 32l-20 18l92 176l-92 178l20 16l77 -97l83 -97l-82 -97z" />
    <glyph glyph-name="onequarter" unicode="&#xbc;" horiz-adv-x="270" 
d="M198 448l0.000976562 -328.998c0 -35.333 -1.83301 -64.333 -5.5 -87s-10.5 -47.334 -20.5 -74.001c-16 -42 -41.667 -84.333 -77 -127c-27.333 -32.667 -49.666 -54.334 -66.999 -65.001c-8 -5.33301 -16 -8 -24 -8c-7.33301 0 -14 4.83301 -20 14.5
s-9 18.834 -9 27.501c0 15.333 6 23.666 18 24.999c37.333 4 60.666 13.333 69.999 28c5.33301 7.33301 9.66602 15.833 12.999 25.5s6.5 26.167 9.5 49.5s5.33301 52.333 7 87s2.5 70 2.5 106v197c0 30.667 -2.83301 49 -8.5 55s-24.167 10.667 -55.5 14v23
c25.333 4 53.5 9.5 84.5 16.5s58.5 14.167 82.5 21.5zM142.001 682.002c18 0 32.999 -6 44.999 -18s18 -28 18 -48c0 -18 -6 -33 -18 -45s-27 -18 -45 -18s-33.5 6.16699 -46.5 18.5s-19.5 27.166 -19.5 44.499c0 18.667 6.33301 34.334 19 47.001s28.334 19 47.001 19z" />
    <glyph glyph-name="onehalf" unicode="&#xbd;" horiz-adv-x="487" 
d="M427 503l-32.001 -5.99902c-15.333 49.333 -34.666 83.666 -57.999 102.999c-20 16.667 -45 25 -75 25c-32 0 -57 -10 -75 -30s-27 -45 -27 -75c0 -50 39 -92.667 117 -128l26 -12c45.333 -20 80 -43.333 104 -70c30.667 -33.333 46 -74 46 -122
c0 -60 -21.167 -108.833 -63.5 -146.5s-97.166 -56.5 -164.499 -56.5c-18 0 -35.667 1.66699 -53 5s-33 7.33301 -47 12l-58 21c-3.33301 11.333 -8 33.166 -14 65.499l-16 89.5l30 10c16 -40.667 35 -74.334 57 -101.001c34.667 -41.333 74.667 -62 120 -62
c32 0 57.5 10.833 76.5 32.5s28.5 48.5 28.5 80.5c0 29.333 -7.83301 54.333 -23.5 75s-43.167 40.667 -82.5 60l-32 16c-43.333 22 -76.333 44.667 -99 68c-34 34.667 -51 73.667 -51 117c0 54.667 19.167 100.167 57.5 136.5s90.166 54.5 155.499 54.5
c15.333 0 30.833 -1 46.5 -3s30.5 -5.66699 44.5 -11c7.33301 -2.66699 15.333 -5.16699 24 -7.5s14.667 -4.16602 18 -5.49902c2.66699 -25.333 6 -50.666 10 -75.999z" />
    <glyph glyph-name="threequarters" unicode="&#xbe;" horiz-adv-x="374" 
d="M35 145l24.9971 1.99707c8.66699 -31.333 24.667 -59.333 48 -84s48.333 -37 75 -37c18.667 0 34.667 6 48 18s20 27.667 20 47c0 17.333 -5.83301 32.833 -17.5 46.5s-31.167 26.167 -58.5 37.5c-35.333 14 -62.666 29.667 -81.999 47c-28 24.667 -42 53.334 -42 86.001
c0 38 14.167 70.5 42.5 97.5s67.166 40.5 116.499 40.5c15.333 0 31.5 -1.66699 48.5 -5s31.5 -7.66602 43.5 -12.999c2.66699 -6 6.5 -19.5 11.5 -40.5s9.16699 -41.167 12.5 -60.5l-28 -8c-14.667 31.333 -30.667 54 -48 68s-35.666 21 -54.999 21
c-17.333 0 -31.333 -5.66699 -42 -17s-16 -25.333 -16 -42c0 -15.333 7.33301 -29.666 22 -42.999s33.334 -24.333 56.001 -33c41.333 -15.333 72.666 -33.333 93.999 -54c24.667 -24 37 -53.333 37 -88c0 -46 -18.667 -82 -56 -108c-33.333 -23.333 -73 -35 -119 -35
c-25.333 0 -49.166 4 -71.499 12s-39.166 17.333 -50.499 28c-2.66699 6.66699 -5.66699 23 -9 49s-5 48.667 -5 68z" />
    <glyph glyph-name="questiondown" unicode="&#xbf;" horiz-adv-x="278" 
d="M195 448v-353c0 -28 3.5 -45.333 10.5 -52s26.5 -11.667 58.5 -15v-28h-240v28c31.333 2.66699 50.5 7.5 57.5 14.5s10.5 24.5 10.5 52.5v223c0 30.667 -2.83301 49 -8.5 55s-24.167 10.667 -55.5 14v23c25.333 4 53.5 9.5 84.5 16.5s58.5 14.167 82.5 21.5zM218 565
c-14.667 0 -26.5 4.83105 -35.5 14.498s-13.5 21.834 -13.5 36.501s4.5 26.834 13.5 36.501s20.833 14.5 35.5 14.5c14 0 25.667 -5 35 -15s14 -22 14 -36s-4.66699 -26 -14 -36s-21 -15 -35 -15zM57 564.998c-14.667 0 -26.5 4.83105 -35.5 14.498
s-13.5 21.834 -13.5 36.501s4.5 26.834 13.5 36.501s20.833 14.5 35.5 14.5c14 0 25.667 -5 35 -15s14 -22 14 -36s-4.66699 -26 -14 -36s-21 -15 -35 -15z" />
    <glyph glyph-name="Agrave" unicode="&#xc0;" horiz-adv-x="689" 
d="M310 650l40 12l69 -186l127 -346c16.667 -42.667 31 -69.5 43 -80.5s33 -18.167 63 -21.5v-28h-263v28l28 4c23.333 4 35 12 35 24c0 4.66699 -2.5 14.667 -7.5 30s-12.167 35.333 -21.5 60l-33 84h-185c-4.66699 -10 -9.66699 -22.667 -15 -38l-30 -90
c-6 -17.333 -9 -31 -9 -41c0 -17.333 14.333 -27.333 43 -30l28 -3v-28h-222v28c32.667 4 54.5 11 65.5 21s25.167 37 42.5 81zM216 276h159l-78 220z" />
    <glyph glyph-name="Agrave" unicode="&#x410;" horiz-adv-x="689" 
d="M310 650l40 12l69 -186l127 -346c16.667 -42.667 31 -69.5 43 -80.5s33 -18.167 63 -21.5v-28h-263v28l28 4c23.333 4 35 12 35 24c0 4.66699 -2.5 14.667 -7.5 30s-12.167 35.333 -21.5 60l-33 84h-185c-4.66699 -10 -9.66699 -22.667 -15 -38l-30 -90
c-6 -17.333 -9 -31 -9 -41c0 -17.333 14.333 -27.333 43 -30l28 -3v-28h-222v28c32.667 4 54.5 11 65.5 21s25.167 37 42.5 81zM216 276h159l-78 220z" />
    <glyph glyph-name="Aacute" unicode="&#xc1;" horiz-adv-x="597" 
d="M121 149l0.000976562 352c0 54.667 -4.33301 88.5 -13 101.5s-32 19.5 -70 19.5v28h454l11 -151l-31 -3c-9.33301 44.667 -21.5 75.167 -36.5 91.5s-51.167 24.5 -108.5 24.5h-56c-19.333 0 -30.833 -1.5 -34.5 -4.5s-5.5 -13.833 -5.5 -32.5v-198h108
c71.333 0 126.666 -15.667 165.999 -47s59 -73.333 59 -126c0 -40 -7.66699 -73 -23 -99s-37 -47.667 -65 -65c-24 -14 -52.667 -24.167 -86 -30.5s-71 -9.5 -113 -9.5h-244v28c40 0 64.667 6.5 74 19.5s14 46.833 14 101.5zM440.001 194
c0 50 -13.668 86.999 -41.001 110.999s-66.333 36 -117 36h-51v-189c0 -46.667 4.5 -77.167 13.5 -91.5s28.5 -21.5 58.5 -21.5c36.667 0.666992 67.334 12.334 92.001 35.001c30 27.333 45 67.333 45 120z" />
    <glyph glyph-name="Aacute" unicode="&#x411;" horiz-adv-x="597" 
d="M121 149l0.000976562 352c0 54.667 -4.33301 88.5 -13 101.5s-32 19.5 -70 19.5v28h454l11 -151l-31 -3c-9.33301 44.667 -21.5 75.167 -36.5 91.5s-51.167 24.5 -108.5 24.5h-56c-19.333 0 -30.833 -1.5 -34.5 -4.5s-5.5 -13.833 -5.5 -32.5v-198h108
c71.333 0 126.666 -15.667 165.999 -47s59 -73.333 59 -126c0 -40 -7.66699 -73 -23 -99s-37 -47.667 -65 -65c-24 -14 -52.667 -24.167 -86 -30.5s-71 -9.5 -113 -9.5h-244v28c40 0 64.667 6.5 74 19.5s14 46.833 14 101.5zM440.001 194
c0 50 -13.668 86.999 -41.001 110.999s-66.333 36 -117 36h-51v-189c0 -46.667 4.5 -77.167 13.5 -91.5s28.5 -21.5 58.5 -21.5c36.667 0.666992 67.334 12.334 92.001 35.001c30 27.333 45 67.333 45 120z" />
    <glyph glyph-name="Acircumflex" unicode="&#xc2;" horiz-adv-x="603" 
d="M41 650l275.999 0.000976562c40.667 0 71.5 -2.33301 92.5 -7s41.5 -13.334 61.5 -26.001c37.333 -24.667 56 -62.667 56 -114c0 -38.667 -16.333 -71.667 -49 -99c-27.333 -22.667 -58.333 -37.334 -93 -44.001c54 -7.33301 96.667 -24.666 128 -51.999
c34.667 -30 52 -69 52 -117c0 -34.667 -7.66699 -64 -23 -88s-37.666 -45 -66.999 -63c-22 -13.333 -50 -23.333 -84 -30s-69.667 -10 -107 -10h-249v28c38.667 0 62.667 6.66699 72 20s14 47.333 14 102v350c0 54 -4.5 87.833 -13.5 101.5s-31.167 20.5 -66.5 20.5v28z
M230.999 562.001l0.000976562 -196h40c44 0 78.333 10.333 103 31s37 51.667 37 93c0 42 -13.333 73.667 -40 95c-22.667 18 -51.334 27 -86.001 27c-24 0 -38.833 -1.33301 -44.5 -4s-8.66699 -9.5 -9 -20.5s-0.5 -19.5 -0.5 -25.5zM265 330.001l-34 0.000976562v-178
c0 -46.667 4.66699 -77 14 -91s30 -21 62 -21c37.333 0 68 10.333 92 31c28 24 42 60.333 42 109c0 49.333 -15.833 86.666 -47.5 111.999s-74.5 38 -128.5 38z" />
    <glyph glyph-name="Acircumflex" unicode="&#x412;" horiz-adv-x="603" 
d="M41 650l275.999 0.000976562c40.667 0 71.5 -2.33301 92.5 -7s41.5 -13.334 61.5 -26.001c37.333 -24.667 56 -62.667 56 -114c0 -38.667 -16.333 -71.667 -49 -99c-27.333 -22.667 -58.333 -37.334 -93 -44.001c54 -7.33301 96.667 -24.666 128 -51.999
c34.667 -30 52 -69 52 -117c0 -34.667 -7.66699 -64 -23 -88s-37.666 -45 -66.999 -63c-22 -13.333 -50 -23.333 -84 -30s-69.667 -10 -107 -10h-249v28c38.667 0 62.667 6.66699 72 20s14 47.333 14 102v350c0 54 -4.5 87.833 -13.5 101.5s-31.167 20.5 -66.5 20.5v28z
M230.999 562.001l0.000976562 -196h40c44 0 78.333 10.333 103 31s37 51.667 37 93c0 42 -13.333 73.667 -40 95c-22.667 18 -51.334 27 -86.001 27c-24 0 -38.833 -1.33301 -44.5 -4s-8.66699 -9.5 -9 -20.5s-0.5 -19.5 -0.5 -25.5zM265 330.001l-34 0.000976562v-178
c0 -46.667 4.66699 -77 14 -91s30 -21 62 -21c37.333 0 68 10.333 92 31c28 24 42 60.333 42 109c0 49.333 -15.833 86.666 -47.5 111.999s-74.5 38 -128.5 38z" />
    <glyph glyph-name="Atilde" unicode="&#xc3;" horiz-adv-x="518" 
d="M121 149v352c0 54.667 -4.33301 88.5 -13 101.5s-32 19.5 -70 19.5v28h449l11 -151l-31 -3c-9.33301 44.667 -21.5 75.167 -36.5 91.5s-51.5 24.5 -109.5 24.5h-51c-19.333 0 -30.833 -1.5 -34.5 -4.5s-5.5 -13.833 -5.5 -32.5v-426c0 -54.667 5.16699 -88.5 15.5 -101.5
s38.5 -19.5 84.5 -19.5v-28h-294v28c38 0 61.667 6.66699 71 20s14 47 14 101z" />
    <glyph glyph-name="Atilde" unicode="&#x413;" horiz-adv-x="518" 
d="M121 149v352c0 54.667 -4.33301 88.5 -13 101.5s-32 19.5 -70 19.5v28h449l11 -151l-31 -3c-9.33301 44.667 -21.5 75.167 -36.5 91.5s-51.5 24.5 -109.5 24.5h-51c-19.333 0 -30.833 -1.5 -34.5 -4.5s-5.5 -13.833 -5.5 -32.5v-426c0 -54.667 5.16699 -88.5 15.5 -101.5
s38.5 -19.5 84.5 -19.5v-28h-294v28c38 0 61.667 6.66699 71 20s14 47 14 101z" />
    <glyph glyph-name="Adieresis" unicode="&#xc4;" horiz-adv-x="674" 
d="M494 0h-319c-36 0 -59.833 -6.5 -71.5 -19.5s-23.167 -43.833 -34.5 -92.5l-16 -66h-30v180c0 12 2 20 6 24s11.333 6 22 6h21c12 0 20.667 1.5 26 4.5s11.333 10.833 18 23.5c26.667 46 46.5 111.833 59.5 197.5s19.5 185.834 19.5 300.501c0 22.667 -3 37.167 -9 43.5
s-21 11.166 -45 14.499l-43 6v28h542v-28c-40 0 -64.667 -6.66699 -74 -20s-14 -47 -14 -101v-380c0 -40.667 2.33301 -65.667 7 -75s17 -14 37 -14h30c9.33301 0 16 -2 20 -6s6 -12.333 6 -25v-179h-31l-21 89c-8.66699 34.667 -20.5 58.167 -35.5 70.5
s-38.5 18.5 -70.5 18.5zM209 38l170 0.00195312c24.667 0 41 4.5 49 13.5s12 29.5 12 61.5v428c0 30.667 -0.666992 50.167 -2 58.5s-13.333 12.5 -36 12.5h-107c-23.333 0 -37.333 -1.33301 -42 -4s-7 -10.667 -7 -24c0 -132.667 -5.16699 -237.834 -15.5 -315.501
s-24.5 -140.834 -42.5 -189.501c-4 -12 -6 -20.333 -6 -25c0 -6 2.5 -10.167 7.5 -12.5s11.5 -3.5 19.5 -3.5z" />
    <glyph glyph-name="Adieresis" unicode="&#x414;" horiz-adv-x="674" 
d="M494 0h-319c-36 0 -59.833 -6.5 -71.5 -19.5s-23.167 -43.833 -34.5 -92.5l-16 -66h-30v180c0 12 2 20 6 24s11.333 6 22 6h21c12 0 20.667 1.5 26 4.5s11.333 10.833 18 23.5c26.667 46 46.5 111.833 59.5 197.5s19.5 185.834 19.5 300.501c0 22.667 -3 37.167 -9 43.5
s-21 11.166 -45 14.499l-43 6v28h542v-28c-40 0 -64.667 -6.66699 -74 -20s-14 -47 -14 -101v-380c0 -40.667 2.33301 -65.667 7 -75s17 -14 37 -14h30c9.33301 0 16 -2 20 -6s6 -12.333 6 -25v-179h-31l-21 89c-8.66699 34.667 -20.5 58.167 -35.5 70.5
s-38.5 18.5 -70.5 18.5zM209 38l170 0.00195312c24.667 0 41 4.5 49 13.5s12 29.5 12 61.5v428c0 30.667 -0.666992 50.167 -2 58.5s-13.333 12.5 -36 12.5h-107c-23.333 0 -37.333 -1.33301 -42 -4s-7 -10.667 -7 -24c0 -132.667 -5.16699 -237.834 -15.5 -315.501
s-24.5 -140.834 -42.5 -189.501c-4 -12 -6 -20.333 -6 -25c0 -6 2.5 -10.167 7.5 -12.5s11.5 -3.5 19.5 -3.5z" />
    <glyph glyph-name="Aring" unicode="&#xc5;" horiz-adv-x="560" 
d="M37 650l451.999 0.000976562l12 -152l-30 -2c-9.33301 45.333 -21.666 75.666 -36.999 90.999s-52.333 23 -111 23h-50c-19.333 0 -30.833 -1.5 -34.5 -4.5s-5.5 -13.5 -5.5 -31.5v-212h86c42 0 67.5 4 76.5 12s16.167 31.667 21.5 71h32v-212h-32
c-5.33301 40 -12.333 63.833 -21 71.5s-34.334 11.5 -77.001 11.5h-86v-164c0 -30.667 1.5 -53.167 4.5 -67.5s8.66699 -24.5 17 -30.5s20 -9.83301 35 -11.5s35.5 -2.5 61.5 -2.5c28.667 0 52.834 1.83301 72.501 5.5s34.5 11.5 44.5 23.5
c16.667 18.667 33.667 52.334 51 101.001l30 -6c-2 -19.333 -6.83301 -46.833 -14.5 -82.5s-14.167 -62.834 -19.5 -81.501h-488v28c42.667 0 69 6.66699 79 20s15 47.333 15 102v350c0 54.667 -4.5 88.667 -13.5 102s-32.5 20 -70.5 20v28z" />
    <glyph glyph-name="Aring" unicode="&#x415;" horiz-adv-x="560" 
d="M37 650l451.999 0.000976562l12 -152l-30 -2c-9.33301 45.333 -21.666 75.666 -36.999 90.999s-52.333 23 -111 23h-50c-19.333 0 -30.833 -1.5 -34.5 -4.5s-5.5 -13.5 -5.5 -31.5v-212h86c42 0 67.5 4 76.5 12s16.167 31.667 21.5 71h32v-212h-32
c-5.33301 40 -12.333 63.833 -21 71.5s-34.334 11.5 -77.001 11.5h-86v-164c0 -30.667 1.5 -53.167 4.5 -67.5s8.66699 -24.5 17 -30.5s20 -9.83301 35 -11.5s35.5 -2.5 61.5 -2.5c28.667 0 52.834 1.83301 72.501 5.5s34.5 11.5 44.5 23.5
c16.667 18.667 33.667 52.334 51 101.001l30 -6c-2 -19.333 -6.83301 -46.833 -14.5 -82.5s-14.167 -62.834 -19.5 -81.501h-488v28c42.667 0 69 6.66699 79 20s15 47.333 15 102v350c0 54.667 -4.5 88.667 -13.5 102s-32.5 20 -70.5 20v28z" />
    <glyph glyph-name="AE" unicode="&#xc6;" horiz-adv-x="968" 
d="M540 501l0.00292969 -140.002c31.333 0 55.5 2.66699 72.5 8s33.5 15.5 49.5 30.5s33.333 41.833 52 80.5l39 87c14 34.667 29.833 59.667 47.5 75s38.167 23 61.5 23c37.333 0 56 -12.333 56 -37c0 -12 -3.5 -21.167 -10.5 -27.5s-15.833 -9.5 -26.5 -9.5h-28
c-20.667 0 -37.667 -9 -51 -27c-10.667 -14.667 -30.667 -53.334 -60 -116.001c-14 -28 -31 -50.667 -51 -68c-12.667 -11.333 -26.667 -20.333 -42 -27c28.667 -11.333 51 -23 67 -35c20.667 -15.333 38.334 -36.666 53.001 -63.999c8.66699 -14.667 19.667 -35.667 33 -63
c22.667 -47.333 36.667 -76 42 -86c15.333 -28.667 30.166 -48 44.499 -58s34.166 -16.333 59.499 -19v-28h-102c-30 0 -53.667 7.5 -71 22.5s-33.333 38.167 -48 69.5l-63 142c-17.333 40 -36.666 66.667 -57.999 80c-16 10 -38 15 -66 15v-180
c0 -54.667 4.5 -88.5 13.5 -101.5s33.167 -19.5 72.5 -19.5v-28h-284v28c38.667 0 62.667 6.66699 72 20s14 47 14 101v180c-28.667 0 -50.334 -4.66699 -65.001 -14c-21.333 -14 -40.666 -41 -57.999 -81l-64 -142c-14.667 -32.667 -29.667 -55.334 -45 -68.001
c-18.667 -16 -43.334 -24 -74.001 -24h-102v28c25.333 2.66699 45.166 9 59.499 19s29.166 29.333 44.499 58l52 104c13.333 26.667 21 41.667 23 45c14.667 26.667 31.5 47.167 50.5 61.5s42.5 25.833 70.5 34.5c-24 14.667 -42 28.334 -54 41.001
c-15.333 16.667 -28.333 35.667 -39 57c-24.667 52 -40.667 84.333 -48 97c-18 30.667 -39 46 -63 46h-29c-11.333 0 -20.333 2.83301 -27 8.5s-10 15.167 -10 28.5c0 24.667 18.667 37 56 37c22.667 0 43 -7.66699 61 -23s34.833 -41.166 50.5 -77.499
s28.167 -64.166 37.5 -83.499c19.333 -40 37 -67.333 53 -82s32.167 -24.667 48.5 -30s40.166 -8 71.499 -8v140c0 54.667 -4.5 88.5 -13.5 101.5s-33.167 19.5 -72.5 19.5v28h282v-28c-37.333 0 -60.666 -6.66699 -69.999 -20s-14 -47 -14 -101z" />
    <glyph glyph-name="AE" unicode="&#x416;" horiz-adv-x="968" 
d="M540 501l0.00292969 -140.002c31.333 0 55.5 2.66699 72.5 8s33.5 15.5 49.5 30.5s33.333 41.833 52 80.5l39 87c14 34.667 29.833 59.667 47.5 75s38.167 23 61.5 23c37.333 0 56 -12.333 56 -37c0 -12 -3.5 -21.167 -10.5 -27.5s-15.833 -9.5 -26.5 -9.5h-28
c-20.667 0 -37.667 -9 -51 -27c-10.667 -14.667 -30.667 -53.334 -60 -116.001c-14 -28 -31 -50.667 -51 -68c-12.667 -11.333 -26.667 -20.333 -42 -27c28.667 -11.333 51 -23 67 -35c20.667 -15.333 38.334 -36.666 53.001 -63.999c8.66699 -14.667 19.667 -35.667 33 -63
c22.667 -47.333 36.667 -76 42 -86c15.333 -28.667 30.166 -48 44.499 -58s34.166 -16.333 59.499 -19v-28h-102c-30 0 -53.667 7.5 -71 22.5s-33.333 38.167 -48 69.5l-63 142c-17.333 40 -36.666 66.667 -57.999 80c-16 10 -38 15 -66 15v-180
c0 -54.667 4.5 -88.5 13.5 -101.5s33.167 -19.5 72.5 -19.5v-28h-284v28c38.667 0 62.667 6.66699 72 20s14 47 14 101v180c-28.667 0 -50.334 -4.66699 -65.001 -14c-21.333 -14 -40.666 -41 -57.999 -81l-64 -142c-14.667 -32.667 -29.667 -55.334 -45 -68.001
c-18.667 -16 -43.334 -24 -74.001 -24h-102v28c25.333 2.66699 45.166 9 59.499 19s29.166 29.333 44.499 58l52 104c13.333 26.667 21 41.667 23 45c14.667 26.667 31.5 47.167 50.5 61.5s42.5 25.833 70.5 34.5c-24 14.667 -42 28.334 -54 41.001
c-15.333 16.667 -28.333 35.667 -39 57c-24.667 52 -40.667 84.333 -48 97c-18 30.667 -39 46 -63 46h-29c-11.333 0 -20.333 2.83301 -27 8.5s-10 15.167 -10 28.5c0 24.667 18.667 37 56 37c22.667 0 43 -7.66699 61 -23s34.833 -41.166 50.5 -77.499
s28.167 -64.166 37.5 -83.499c19.333 -40 37 -67.333 53 -82s32.167 -24.667 48.5 -30s40.166 -8 71.499 -8v140c0 54.667 -4.5 88.5 -13.5 101.5s-33.167 19.5 -72.5 19.5v28h282v-28c-37.333 0 -60.666 -6.66699 -69.999 -20s-14 -47 -14 -101z" />
    <glyph glyph-name="Ccedilla" unicode="&#xc7;" horiz-adv-x="544" 
d="M472 510c1.33301 -23.333 -3.66797 -45.0029 -15.001 -65.0029c-8.66699 -16 -21 -29.667 -37 -41c-28.667 -19.333 -60.334 -34 -95.001 -44c52 -8.66699 92.667 -25.667 122 -51c36.667 -31.333 55 -73.666 55 -126.999c0 -63.333 -26.667 -113 -80 -149
c-48 -32 -106.667 -48 -176 -48c-33.333 0 -65.166 3.5 -95.499 10.5s-55.166 17.833 -74.499 32.5c-12.667 8.66699 -22.667 20 -30 34s-11 27.667 -11 41c0 12.667 4.33301 24 13 34s19.334 15 32.001 15c18.667 0 31.334 -9 38.001 -27c14 -38 33.333 -65.333 58 -82
c21.333 -14 46.333 -21 75 -21c30.667 0 58 10.667 82 32c31.333 28 47 67.667 47 119c0 46.667 -11.333 85 -34 115s-49.334 45 -80.001 45c-7.33301 0 -16.166 -1 -26.499 -3s-19.833 -3.66699 -28.5 -5l-29 -3c-10.667 0 -19.667 3.33301 -27 10s-11 14.334 -11 23.001
s3.66699 16.334 11 23.001s16.666 10 27.999 10l28 -3c10.667 -1.33301 21.834 -3 33.501 -5s19.167 -3 22.5 -3c23.333 0 44 9.66699 62 29c20.667 22 31 51.333 31 88c0 42.667 -10.167 75.5 -30.5 98.5s-46.833 34.5 -79.5 34.5c-39.333 0 -72 -15 -98 -45
c-21.333 -25.333 -38 -61.333 -50 -108l-31 3c3.33301 14 7 40.5 11 79.5s6.33301 63.167 7 72.5l70 20c11.333 4 30.166 7.66699 56.499 11s45.166 5 56.499 5c61.333 0 110 -14.5 146 -43.5s54 -66.167 54 -111.5z" />
    <glyph glyph-name="Ccedilla" unicode="&#x417;" horiz-adv-x="544" 
d="M472 510c1.33301 -23.333 -3.66797 -45.0029 -15.001 -65.0029c-8.66699 -16 -21 -29.667 -37 -41c-28.667 -19.333 -60.334 -34 -95.001 -44c52 -8.66699 92.667 -25.667 122 -51c36.667 -31.333 55 -73.666 55 -126.999c0 -63.333 -26.667 -113 -80 -149
c-48 -32 -106.667 -48 -176 -48c-33.333 0 -65.166 3.5 -95.499 10.5s-55.166 17.833 -74.499 32.5c-12.667 8.66699 -22.667 20 -30 34s-11 27.667 -11 41c0 12.667 4.33301 24 13 34s19.334 15 32.001 15c18.667 0 31.334 -9 38.001 -27c14 -38 33.333 -65.333 58 -82
c21.333 -14 46.333 -21 75 -21c30.667 0 58 10.667 82 32c31.333 28 47 67.667 47 119c0 46.667 -11.333 85 -34 115s-49.334 45 -80.001 45c-7.33301 0 -16.166 -1 -26.499 -3s-19.833 -3.66699 -28.5 -5l-29 -3c-10.667 0 -19.667 3.33301 -27 10s-11 14.334 -11 23.001
s3.66699 16.334 11 23.001s16.666 10 27.999 10l28 -3c10.667 -1.33301 21.834 -3 33.501 -5s19.167 -3 22.5 -3c23.333 0 44 9.66699 62 29c20.667 22 31 51.333 31 88c0 42.667 -10.167 75.5 -30.5 98.5s-46.833 34.5 -79.5 34.5c-39.333 0 -72 -15 -98 -45
c-21.333 -25.333 -38 -61.333 -50 -108l-31 3c3.33301 14 7 40.5 11 79.5s6.33301 63.167 7 72.5l70 20c11.333 4 30.166 7.66699 56.499 11s45.166 5 56.499 5c61.333 0 110 -14.5 146 -43.5s54 -66.167 54 -111.5z" />
    <glyph glyph-name="Egrave" unicode="&#xc8;" horiz-adv-x="761" 
d="M120 149l-0.000976562 352.002c0 54.667 -4.66699 88.5 -14 101.5s-34.666 19.5 -75.999 19.5v28h282v-28c-38 0 -61.667 -6.66699 -71 -20s-14 -47 -14 -101v-330l289 366c11.333 15.333 17 27.666 17 36.999c0 17.333 -4.16699 28.833 -12.5 34.5
s-25.833 10.167 -52.5 13.5v28h260v-28c-40 0 -64.667 -6.33301 -74 -19s-14 -45.334 -14 -98.001v-356c0 -54.667 4.5 -88.5 13.5 -101.5s33.5 -19.5 73.5 -19.5v-28h-285v28c40.667 0 66 6.66699 76 20s15 47 15 101v339h-5l-289 -367
c-6 -7.33301 -9.5 -13.166 -10.5 -17.499s-1.5 -13.5 -1.5 -27.5c0 -16.667 4.16699 -27.834 12.5 -33.501s25.833 -10.5 52.5 -14.5v-28h-260v28c40 0 64.667 6.5 74 19.5s14 46.833 14 101.5z" />
    <glyph glyph-name="Egrave" unicode="&#x418;" horiz-adv-x="761" 
d="M120 149l-0.000976562 352.002c0 54.667 -4.66699 88.5 -14 101.5s-34.666 19.5 -75.999 19.5v28h282v-28c-38 0 -61.667 -6.66699 -71 -20s-14 -47 -14 -101v-330l289 366c11.333 15.333 17 27.666 17 36.999c0 17.333 -4.16699 28.833 -12.5 34.5
s-25.833 10.167 -52.5 13.5v28h260v-28c-40 0 -64.667 -6.33301 -74 -19s-14 -45.334 -14 -98.001v-356c0 -54.667 4.5 -88.5 13.5 -101.5s33.5 -19.5 73.5 -19.5v-28h-285v28c40.667 0 66 6.66699 76 20s15 47 15 101v339h-5l-289 -367
c-6 -7.33301 -9.5 -13.166 -10.5 -17.499s-1.5 -13.5 -1.5 -27.5c0 -16.667 4.16699 -27.834 12.5 -33.501s25.833 -10.5 52.5 -14.5v-28h-260v28c40 0 64.667 6.5 74 19.5s14 46.833 14 101.5z" />
    <glyph glyph-name="Eacute" unicode="&#xc9;" horiz-adv-x="761" 
d="M382 707c42 0 62.998 14.333 62.998 43c2 14.667 6.33301 25.167 13 31.5s16 9.5 28 9.5c10.667 0 19.167 -3.83301 25.5 -11.5s9.5 -16.167 9.5 -25.5c0 -25.333 -13 -45.333 -39 -60s-59.333 -22 -100 -22c-41.333 0 -74.666 7.16699 -99.999 21.5s-38 34.5 -38 60.5
c0 8.66699 3.16699 17 9.5 25s14.833 12 25.5 12c14.667 0 25.334 -5 32.001 -15c4 -6 7 -14.667 9 -26c0 -28.667 20.667 -43 62 -43zM119.998 149l-0.000976562 352.002c0 54.667 -4.66699 88.5 -14 101.5s-34.666 19.5 -75.999 19.5v28h282v-28
c-38 0 -61.667 -6.66699 -71 -20s-14 -47 -14 -101v-330l289 366c11.333 15.333 17 27.666 17 36.999c0 17.333 -4.16699 28.833 -12.5 34.5s-25.833 10.167 -52.5 13.5v28h260v-28c-40 0 -64.667 -6.33301 -74 -19s-14 -45.334 -14 -98.001v-356
c0 -54.667 4.5 -88.5 13.5 -101.5s33.5 -19.5 73.5 -19.5v-28h-285v28c40.667 0 66 6.66699 76 20s15 47 15 101v339h-5l-289 -367c-6 -7.33301 -9.5 -13.166 -10.5 -17.499s-1.5 -13.5 -1.5 -27.5c0 -16.667 4.16699 -27.834 12.5 -33.501s25.833 -10.5 52.5 -14.5v-28
h-260v28c40 0 64.667 6.5 74 19.5s14 46.833 14 101.5z" />
    <glyph glyph-name="Eacute" unicode="&#x419;" horiz-adv-x="761" 
d="M382 707c42 0 62.998 14.333 62.998 43c2 14.667 6.33301 25.167 13 31.5s16 9.5 28 9.5c10.667 0 19.167 -3.83301 25.5 -11.5s9.5 -16.167 9.5 -25.5c0 -25.333 -13 -45.333 -39 -60s-59.333 -22 -100 -22c-41.333 0 -74.666 7.16699 -99.999 21.5s-38 34.5 -38 60.5
c0 8.66699 3.16699 17 9.5 25s14.833 12 25.5 12c14.667 0 25.334 -5 32.001 -15c4 -6 7 -14.667 9 -26c0 -28.667 20.667 -43 62 -43zM119.998 149l-0.000976562 352.002c0 54.667 -4.66699 88.5 -14 101.5s-34.666 19.5 -75.999 19.5v28h282v-28
c-38 0 -61.667 -6.66699 -71 -20s-14 -47 -14 -101v-330l289 366c11.333 15.333 17 27.666 17 36.999c0 17.333 -4.16699 28.833 -12.5 34.5s-25.833 10.167 -52.5 13.5v28h260v-28c-40 0 -64.667 -6.33301 -74 -19s-14 -45.334 -14 -98.001v-356
c0 -54.667 4.5 -88.5 13.5 -101.5s33.5 -19.5 73.5 -19.5v-28h-285v28c40.667 0 66 6.66699 76 20s15 47 15 101v339h-5l-289 -367c-6 -7.33301 -9.5 -13.166 -10.5 -17.499s-1.5 -13.5 -1.5 -27.5c0 -16.667 4.16699 -27.834 12.5 -33.501s25.833 -10.5 52.5 -14.5v-28
h-260v28c40 0 64.667 6.5 74 19.5s14 46.833 14 101.5z" />
    <glyph glyph-name="Ecircumflex" unicode="&#xca;" horiz-adv-x="664" 
d="M121 149v352.001c0 54.667 -4.5 88.5 -13.5 101.5s-33.167 19.5 -72.5 19.5v28h279v-28c-38 0 -61.667 -6.66699 -71 -20s-14 -47 -14 -101v-137c34 0 59.667 2.66699 77 8s34.333 15.5 51 30.5s34.334 41.833 53.001 80.5l39 86c14.667 34.667 30.667 59.334 48 74.001
s37.666 22 60.999 22c37.333 0 56 -12.333 56 -37c0 -12 -3.5 -21.167 -10.5 -27.5s-15.833 -9.5 -26.5 -9.5h-26c-20.667 0 -37.167 -8.33301 -49.5 -25s-33.833 -56 -64.5 -118c-13.333 -26.667 -30 -48.667 -50 -66c-8.66699 -8 -22.334 -17.333 -41.001 -28
c26 -10 48.833 -22.833 68.5 -38.5s36.834 -36.834 51.501 -63.501l31 -62l43 -84c14.667 -28 29.667 -47.333 45 -58s35 -17.334 59 -20.001v-28h-102c-30.667 0 -54.667 7.5 -72 22.5s-33.333 38.167 -48 69.5l-63 142c-18 40.667 -37.333 67.667 -58 81
c-16.667 10.667 -40.667 16 -72 16v-182c0 -54.667 4.5 -88.5 13.5 -101.5s32.833 -19.5 71.5 -19.5v-28h-279v28c38.667 0 62.667 6.66699 72 20s14 47 14 101z" />
    <glyph glyph-name="Ecircumflex" unicode="&#x41a;" horiz-adv-x="664" 
d="M121 149v352.001c0 54.667 -4.5 88.5 -13.5 101.5s-33.167 19.5 -72.5 19.5v28h279v-28c-38 0 -61.667 -6.66699 -71 -20s-14 -47 -14 -101v-137c34 0 59.667 2.66699 77 8s34.333 15.5 51 30.5s34.334 41.833 53.001 80.5l39 86c14.667 34.667 30.667 59.334 48 74.001
s37.666 22 60.999 22c37.333 0 56 -12.333 56 -37c0 -12 -3.5 -21.167 -10.5 -27.5s-15.833 -9.5 -26.5 -9.5h-26c-20.667 0 -37.167 -8.33301 -49.5 -25s-33.833 -56 -64.5 -118c-13.333 -26.667 -30 -48.667 -50 -66c-8.66699 -8 -22.334 -17.333 -41.001 -28
c26 -10 48.833 -22.833 68.5 -38.5s36.834 -36.834 51.501 -63.501l31 -62l43 -84c14.667 -28 29.667 -47.333 45 -58s35 -17.334 59 -20.001v-28h-102c-30.667 0 -54.667 7.5 -72 22.5s-33.333 38.167 -48 69.5l-63 142c-18 40.667 -37.333 67.667 -58 81
c-16.667 10.667 -40.667 16 -72 16v-182c0 -54.667 4.5 -88.5 13.5 -101.5s32.833 -19.5 71.5 -19.5v-28h-279v28c38.667 0 62.667 6.66699 72 20s14 47 14 101z" />
    <glyph glyph-name="Edieresis" unicode="&#xcb;" horiz-adv-x="642" 
d="M101 650l505.999 -0.000976562v-28c-38.667 0 -62.667 -6.66699 -72 -20s-14 -47 -14 -101v-352c0 -54.667 4.5 -88.5 13.5 -101.5s33.167 -19.5 72.5 -19.5v-28h-284v28c38.667 0 62.667 6.66699 72 20s14 47 14 101v393c0 34.667 -1.5 55 -4.5 61s-14.167 9 -33.5 9
h-80c-26.667 0 -42.5 -1.66699 -47.5 -5s-7.5 -13.666 -7.5 -30.999c0 -148.667 -7.5 -265.5 -22.5 -350.5s-38.833 -149.5 -71.5 -193.5c-13.333 -18 -25.833 -30.5 -37.5 -37.5s-24.167 -10.5 -37.5 -10.5c-10.667 0 -18 0.333008 -22 1s-19 3.66699 -45 9v24
c22.667 8 44.334 22.333 65.001 43c18.667 18 34.667 39 48 63c24.667 43.333 43.667 104.333 57 183s20 163 20 253c0 26 -5.16699 42.833 -15.5 50.5s-34.833 11.5 -73.5 11.5v28z" />
    <glyph glyph-name="Edieresis" unicode="&#x41b;" horiz-adv-x="642" 
d="M101 650l505.999 -0.000976562v-28c-38.667 0 -62.667 -6.66699 -72 -20s-14 -47 -14 -101v-352c0 -54.667 4.5 -88.5 13.5 -101.5s33.167 -19.5 72.5 -19.5v-28h-284v28c38.667 0 62.667 6.66699 72 20s14 47 14 101v393c0 34.667 -1.5 55 -4.5 61s-14.167 9 -33.5 9
h-80c-26.667 0 -42.5 -1.66699 -47.5 -5s-7.5 -13.666 -7.5 -30.999c0 -148.667 -7.5 -265.5 -22.5 -350.5s-38.833 -149.5 -71.5 -193.5c-13.333 -18 -25.833 -30.5 -37.5 -37.5s-24.167 -10.5 -37.5 -10.5c-10.667 0 -18 0.333008 -22 1s-19 3.66699 -45 9v24
c22.667 8 44.334 22.333 65.001 43c18.667 18 34.667 39 48 63c24.667 43.333 43.667 104.333 57 183s20 163 20 253c0 26 -5.16699 42.833 -15.5 50.5s-34.833 11.5 -73.5 11.5v28z" />
    <glyph glyph-name="Igrave" unicode="&#xcc;" horiz-adv-x="885" 
d="M41 650l184.002 -0.000976562l221 -477l209 477h189v-28c-40.667 -4 -64.667 -11.333 -72 -22s-11 -44 -11 -100l10 -350c0 -54.667 4.16699 -87.667 12.5 -99s33.166 -19 74.499 -23v-28h-279v28c38.667 4 61.667 11.5 69 22.5s11 44.167 11 99.5l-4 384h-4l-227 -522
h-30l-219 502h-4l-7 -259v-104.5c0 -33 1 -57.667 3 -74s9 -27.666 21 -33.999s35.333 -11.166 70 -14.499v-28h-237v28c25.333 0 43.666 3.83301 54.999 11.5s18.666 21.167 21.999 40.5c6.66699 42 10.334 64.333 11.001 67c4.66699 37.333 7 76.666 7 117.999l11 206
c0 68.667 -3.66699 110 -11 124s-32.333 23 -75 27v28z" />
    <glyph glyph-name="Igrave" unicode="&#x41c;" horiz-adv-x="885" 
d="M41 650l184.002 -0.000976562l221 -477l209 477h189v-28c-40.667 -4 -64.667 -11.333 -72 -22s-11 -44 -11 -100l10 -350c0 -54.667 4.16699 -87.667 12.5 -99s33.166 -19 74.499 -23v-28h-279v28c38.667 4 61.667 11.5 69 22.5s11 44.167 11 99.5l-4 384h-4l-227 -522
h-30l-219 502h-4l-7 -259v-104.5c0 -33 1 -57.667 3 -74s9 -27.666 21 -33.999s35.333 -11.166 70 -14.499v-28h-237v28c25.333 0 43.666 3.83301 54.999 11.5s18.666 21.167 21.999 40.5c6.66699 42 10.334 64.333 11.001 67c4.66699 37.333 7 76.666 7 117.999l11 206
c0 68.667 -3.66699 110 -11 124s-32.333 23 -75 27v28z" />
    <glyph glyph-name="Iacute" unicode="&#xcd;" horiz-adv-x="768" 
d="M29 650h286v-28c-37.333 0 -60.333 -6.66699 -69 -20s-13 -47.333 -13 -102v-134h304v134c0 54.667 -4.5 88.667 -13.5 102s-32.5 20 -70.5 20v28h284v-28c-40 0 -64.667 -6.66699 -74 -20s-14 -47.333 -14 -102v-350c0 -54.667 4.5 -88.667 13.5 -102
s33.167 -20 72.5 -20v-28h-290v28c41.333 0 67 6.66699 77 20s15 47.333 15 102v170h-304v-170c0 -54.667 4.5 -88.667 13.5 -102s33.167 -20 72.5 -20v-28h-286v28c40 0 64.667 6.66699 74 20s14 47.333 14 102v350c0 54.667 -4.83301 88.667 -14.5 102s-35.5 20 -77.5 20
v28z" />
    <glyph glyph-name="Iacute" unicode="&#x41d;" horiz-adv-x="768" 
d="M29 650h286v-28c-37.333 0 -60.333 -6.66699 -69 -20s-13 -47.333 -13 -102v-134h304v134c0 54.667 -4.5 88.667 -13.5 102s-32.5 20 -70.5 20v28h284v-28c-40 0 -64.667 -6.66699 -74 -20s-14 -47.333 -14 -102v-350c0 -54.667 4.5 -88.667 13.5 -102
s33.167 -20 72.5 -20v-28h-290v28c41.333 0 67 6.66699 77 20s15 47.333 15 102v170h-304v-170c0 -54.667 4.5 -88.667 13.5 -102s33.167 -20 72.5 -20v-28h-286v28c40 0 64.667 6.66699 74 20s14 47.333 14 102v350c0 54.667 -4.83301 88.667 -14.5 102s-35.5 20 -77.5 20
v28z" />
    <glyph glyph-name="Icircumflex" unicode="&#xce;" horiz-adv-x="747" 
d="M391 665c88 0 162.667 -30.667 224 -92s92 -140 92 -236c0 -104.667 -32.167 -189.5 -96.5 -254.5s-145.166 -97.5 -242.499 -97.5c-96.667 0 -175.334 31.667 -236.001 95s-91 141.333 -91 234c0 91.333 28.667 170.333 86 237c65.333 76 153.333 114 264 114zM360 625
c-54.667 0 -99.334 -24.333 -134.001 -73c-36.667 -51.333 -55 -120 -55 -206c0 -94 19 -170 57 -228c40.667 -62 95.667 -93 165 -93c54.667 0 98.334 22.333 131.001 67c35.333 48.667 53 118 53 208c0 102.667 -19.333 182.5 -58 239.5s-91.667 85.5 -159 85.5z" />
    <glyph glyph-name="Icircumflex" unicode="&#x41e;" horiz-adv-x="747" 
d="M391 665c88 0 162.667 -30.667 224 -92s92 -140 92 -236c0 -104.667 -32.167 -189.5 -96.5 -254.5s-145.166 -97.5 -242.499 -97.5c-96.667 0 -175.334 31.667 -236.001 95s-91 141.333 -91 234c0 91.333 28.667 170.333 86 237c65.333 76 153.333 114 264 114zM360 625
c-54.667 0 -99.334 -24.333 -134.001 -73c-36.667 -51.333 -55 -120 -55 -206c0 -94 19 -170 57 -228c40.667 -62 95.667 -93 165 -93c54.667 0 98.334 22.333 131.001 67c35.333 48.667 53 118 53 208c0 102.667 -19.333 182.5 -58 239.5s-91.667 85.5 -159 85.5z" />
    <glyph glyph-name="Idieresis" unicode="&#xcf;" horiz-adv-x="761" 
d="M477 612h-194.001c-23.333 0 -37.5 -3.5 -42.5 -10.5s-7.5 -27.167 -7.5 -60.5v-392c0 -54.667 4.5 -88.5 13.5 -101.5s33.5 -19.5 73.5 -19.5v-28h-287v28c40 0 64.667 6.5 74 19.5s14 46.833 14 101.5v352c0 54.667 -4.66699 88.5 -14 101.5s-34.666 19.5 -75.999 19.5
v28h697v-28c-40 0 -64.667 -6.5 -74 -19.5s-14 -46.833 -14 -101.5v-352c0 -54.667 4.5 -88.5 13.5 -101.5s33.5 -19.5 73.5 -19.5v-28h-290v28c40.667 0 66 6.66699 76 20s15 47 15 101v392c0 33.333 -2.5 53.5 -7.5 60.5s-19.5 10.5 -43.5 10.5z" />
    <glyph glyph-name="Idieresis" unicode="&#x41f;" horiz-adv-x="761" 
d="M477 612h-194.001c-23.333 0 -37.5 -3.5 -42.5 -10.5s-7.5 -27.167 -7.5 -60.5v-392c0 -54.667 4.5 -88.5 13.5 -101.5s33.5 -19.5 73.5 -19.5v-28h-287v28c40 0 64.667 6.5 74 19.5s14 46.833 14 101.5v352c0 54.667 -4.66699 88.5 -14 101.5s-34.666 19.5 -75.999 19.5
v28h697v-28c-40 0 -64.667 -6.5 -74 -19.5s-14 -46.833 -14 -101.5v-352c0 -54.667 4.5 -88.5 13.5 -101.5s33.5 -19.5 73.5 -19.5v-28h-290v28c40.667 0 66 6.66699 76 20s15 47 15 101v392c0 33.333 -2.5 53.5 -7.5 60.5s-19.5 10.5 -43.5 10.5z" />
    <glyph glyph-name="Eth" unicode="&#xd0;" horiz-adv-x="572" 
d="M231 576v-256c9.33301 -3.33301 18.833 -6.16602 28.5 -8.49902s20.5 -3.5 32.5 -3.5c30 0 56.333 10 79 30c32.667 28.667 49 72 49 130c0 49.333 -12.333 85.666 -37 108.999s-59 35 -103 35c-23.333 0 -37.333 -2 -42 -6s-7 -14 -7 -30zM41 650l261.003 0.000976562
c39.333 0 72.666 -3.16699 99.999 -9.5s51.666 -16.833 72.999 -31.5s37.833 -33.334 49.5 -56.001s17.5 -50.667 17.5 -84c0 -59.333 -20.667 -107.666 -62 -144.999c-36 -32.667 -81.333 -52.334 -136 -59.001c-8 -0.666992 -16.667 -1.16699 -26 -1.5s-16 -0.5 -20 -0.5
l-67 18v-131c0 -54.667 5.33301 -88.667 16 -102s38.667 -20 84 -20v-28h-294v28c37.333 0 60.666 6.83301 69.999 20.5s14 47.5 14 101.5v350c0 54 -4.5 87.833 -13.5 101.5s-31.167 20.5 -66.5 20.5v28z" />
    <glyph glyph-name="Eth" unicode="&#x420;" horiz-adv-x="572" 
d="M231 576v-256c9.33301 -3.33301 18.833 -6.16602 28.5 -8.49902s20.5 -3.5 32.5 -3.5c30 0 56.333 10 79 30c32.667 28.667 49 72 49 130c0 49.333 -12.333 85.666 -37 108.999s-59 35 -103 35c-23.333 0 -37.333 -2 -42 -6s-7 -14 -7 -30zM41 650l261.003 0.000976562
c39.333 0 72.666 -3.16699 99.999 -9.5s51.666 -16.833 72.999 -31.5s37.833 -33.334 49.5 -56.001s17.5 -50.667 17.5 -84c0 -59.333 -20.667 -107.666 -62 -144.999c-36 -32.667 -81.333 -52.334 -136 -59.001c-8 -0.666992 -16.667 -1.16699 -26 -1.5s-16 -0.5 -20 -0.5
l-67 18v-131c0 -54.667 5.33301 -88.667 16 -102s38.667 -20 84 -20v-28h-294v28c37.333 0 60.666 6.83301 69.999 20.5s14 47.5 14 101.5v350c0 54 -4.5 87.833 -13.5 101.5s-31.167 20.5 -66.5 20.5v28z" />
    <glyph glyph-name="Ntilde" unicode="&#xd1;" horiz-adv-x="660" 
d="M625 481l-27.998 -3.99902c-15.333 54.667 -39 93.667 -71 117c-28.667 20.667 -67.667 31 -117 31c-77.333 0 -137.333 -29 -180 -87c-38.667 -52 -58 -118 -58 -198c0 -94 21.5 -170 64.5 -228s100.833 -87 173.5 -87c51.333 0 93.333 13.667 126 41
c28 23.333 56 63.666 84 120.999l28 -6c-8.66699 -34 -16.334 -62.667 -23.001 -86c-10 -34.667 -19 -61.334 -27 -80.001c-29.333 -8.66699 -62.833 -15.834 -100.5 -21.501s-66.834 -8.5 -87.501 -8.5c-121.333 0 -215.333 35 -282 105
c-57.333 60.667 -86 135.334 -86 224.001c0 104 36.167 188.5 108.5 253.5s164.833 97.5 277.5 97.5c38.667 0 76 -3.33301 112 -10c36 -8.66699 58.667 -14 68 -16c4 -27.333 7.5 -55.666 10.5 -84.999z" />
    <glyph glyph-name="Ntilde" unicode="&#x421;" horiz-adv-x="660" 
d="M625 481l-27.998 -3.99902c-15.333 54.667 -39 93.667 -71 117c-28.667 20.667 -67.667 31 -117 31c-77.333 0 -137.333 -29 -180 -87c-38.667 -52 -58 -118 -58 -198c0 -94 21.5 -170 64.5 -228s100.833 -87 173.5 -87c51.333 0 93.333 13.667 126 41
c28 23.333 56 63.666 84 120.999l28 -6c-8.66699 -34 -16.334 -62.667 -23.001 -86c-10 -34.667 -19 -61.334 -27 -80.001c-29.333 -8.66699 -62.833 -15.834 -100.5 -21.501s-66.834 -8.5 -87.501 -8.5c-121.333 0 -215.333 35 -282 105
c-57.333 60.667 -86 135.334 -86 224.001c0 104 36.167 188.5 108.5 253.5s164.833 97.5 277.5 97.5c38.667 0 76 -3.33301 112 -10c36 -8.66699 58.667 -14 68 -16c4 -27.333 7.5 -55.666 10.5 -84.999z" />
    <glyph glyph-name="Ograve" unicode="&#xd2;" horiz-adv-x="609" 
d="M53 492l-29.998 0.000976562c0 24.667 1 49 3 73c6 72.667 9 109.667 9 111h18c6.66699 -11.333 13.334 -18.5 20.001 -21.5s17.334 -4.5 32.001 -4.5h412c12.667 0 21.5 1.5 26.5 4.5s12.167 10.167 21.5 21.5h16c0 -24.667 0.666992 -46.834 2 -66.501
s4.66602 -58.167 9.99902 -115.5l-30 -2c-4.66699 26 -9.83398 45.833 -15.501 59.5s-12.834 24.834 -21.501 33.501c-14.667 16.667 -51.667 25 -111 25h-52v-460c0 -54.667 5.33301 -88.667 16 -102s38.667 -20 84 -20v-28h-308v28c44 0 71 6.66699 81 20
s15 47.333 15 102v460h-34c-40 0 -69 -2.33301 -87 -7s-31.667 -12.334 -41 -23.001c-6.66699 -7.33301 -12.834 -18 -18.501 -32s-11.5 -32.667 -17.5 -56z" />
    <glyph glyph-name="Ograve" unicode="&#x422;" horiz-adv-x="609" 
d="M53 492l-29.998 0.000976562c0 24.667 1 49 3 73c6 72.667 9 109.667 9 111h18c6.66699 -11.333 13.334 -18.5 20.001 -21.5s17.334 -4.5 32.001 -4.5h412c12.667 0 21.5 1.5 26.5 4.5s12.167 10.167 21.5 21.5h16c0 -24.667 0.666992 -46.834 2 -66.501
s4.66602 -58.167 9.99902 -115.5l-30 -2c-4.66699 26 -9.83398 45.833 -15.501 59.5s-12.834 24.834 -21.501 33.501c-14.667 16.667 -51.667 25 -111 25h-52v-460c0 -54.667 5.33301 -88.667 16 -102s38.667 -20 84 -20v-28h-308v28c44 0 71 6.66699 81 20
s15 47.333 15 102v460h-34c-40 0 -69 -2.33301 -87 -7s-31.667 -12.334 -41 -23.001c-6.66699 -7.33301 -12.834 -18 -18.501 -32s-11.5 -32.667 -17.5 -56z" />
    <glyph glyph-name="Oacute" unicode="&#xd3;" horiz-adv-x="672" 
d="M20 650l257.998 -0.000976562v-28l-30 -5c-15.333 -3.33301 -23 -10 -23 -20c0 -7.33301 3.66699 -18.333 11 -33l140 -288l40 94c40 94.667 63.667 153.667 71 177c7.33301 20 11 34.667 11 44c0 15.333 -12 24.666 -36 27.999l-28 3v28h218v-28
c-35.333 -5.33301 -58.666 -12.666 -69.999 -21.999s-27 -34.666 -47 -75.999c-2 -4 -20 -44.167 -54 -120.5l-72 -162.5l-54 -121c-26 -56 -54 -95.667 -84 -119c-24 -18.667 -49.333 -28 -76 -28c-20 0 -38 4.33301 -54 13s-25.333 21.667 -28 39
c-1.33301 3.33301 -2 8.33301 -2 15c0 16 6 27.667 18 35c6 3.33301 13.333 5 22 5c10 0 20.667 -4 32 -12c16.667 -14 34.667 -21 54 -21c18.667 0 35.334 10.833 50.001 32.5s22 42.167 22 61.5c0 8.66699 -1.16699 17.667 -3.5 27s-6.83301 21 -13.5 35l-174 357
c-12 24 -23.333 39.167 -34 45.5s-32 11.833 -64 16.5v28z" />
    <glyph glyph-name="Oacute" unicode="&#x423;" horiz-adv-x="672" 
d="M20 650l257.998 -0.000976562v-28l-30 -5c-15.333 -3.33301 -23 -10 -23 -20c0 -7.33301 3.66699 -18.333 11 -33l140 -288l40 94c40 94.667 63.667 153.667 71 177c7.33301 20 11 34.667 11 44c0 15.333 -12 24.666 -36 27.999l-28 3v28h218v-28
c-35.333 -5.33301 -58.666 -12.666 -69.999 -21.999s-27 -34.666 -47 -75.999c-2 -4 -20 -44.167 -54 -120.5l-72 -162.5l-54 -121c-26 -56 -54 -95.667 -84 -119c-24 -18.667 -49.333 -28 -76 -28c-20 0 -38 4.33301 -54 13s-25.333 21.667 -28 39
c-1.33301 3.33301 -2 8.33301 -2 15c0 16 6 27.667 18 35c6 3.33301 13.333 5 22 5c10 0 20.667 -4 32 -12c16.667 -14 34.667 -21 54 -21c18.667 0 35.334 10.833 50.001 32.5s22 42.167 22 61.5c0 8.66699 -1.16699 17.667 -3.5 27s-6.83301 21 -13.5 35l-174 357
c-12 24 -23.333 39.167 -34 45.5s-32 11.833 -64 16.5v28z" />
    <glyph glyph-name="Ocircumflex" unicode="&#xd4;" horiz-adv-x="760" 
d="M242 650h277v-28c-30 0 -50.5 -3.66699 -61.5 -11s-17.833 -23 -20.5 -47c68 0 129 -17 183 -51c68 -43.333 102 -104.333 102 -183s-33.667 -139.334 -101 -182.001c-54 -34 -115 -51 -183 -51c0 -28 5.83301 -46.5 17.5 -55.5s32.834 -13.5 63.501 -13.5v-28h-277v28
c32 0 53.833 4.33301 65.5 13s17.5 27.667 17.5 57c-70 0 -131.333 16.667 -184 50c-68 42.667 -102 103.667 -102 183c0 78.667 33.333 139.334 100 182.001c53.333 34 114.666 51 183.999 51c-2.66699 24 -9.66699 39.667 -21 47s-31.333 11 -60 11v28zM435 501v-351.999
l1 -20c38.667 0 74 16.667 106 50c38 39.333 57 89.666 57 150.999c0 62 -18.333 112.333 -55 151c-32 34 -68 51 -108 51zM326 149.001l0.000976562 352l-2 32c-40.667 -3.33301 -76.334 -21 -107.001 -53c-36.667 -38 -55 -87.667 -55 -149c0 -60.667 18.333 -110 55 -148
c31.333 -32.667 67.333 -50.667 108 -54z" />
    <glyph glyph-name="Ocircumflex" unicode="&#x424;" horiz-adv-x="760" 
d="M242 650h277v-28c-30 0 -50.5 -3.66699 -61.5 -11s-17.833 -23 -20.5 -47c68 0 129 -17 183 -51c68 -43.333 102 -104.333 102 -183s-33.667 -139.334 -101 -182.001c-54 -34 -115 -51 -183 -51c0 -28 5.83301 -46.5 17.5 -55.5s32.834 -13.5 63.501 -13.5v-28h-277v28
c32 0 53.833 4.33301 65.5 13s17.5 27.667 17.5 57c-70 0 -131.333 16.667 -184 50c-68 42.667 -102 103.667 -102 183c0 78.667 33.333 139.334 100 182.001c53.333 34 114.666 51 183.999 51c-2.66699 24 -9.66699 39.667 -21 47s-31.333 11 -60 11v28zM435 501v-351.999
l1 -20c38.667 0 74 16.667 106 50c38 39.333 57 89.666 57 150.999c0 62 -18.333 112.333 -55 151c-32 34 -68 51 -108 51zM326 149.001l0.000976562 352l-2 32c-40.667 -3.33301 -76.334 -21 -107.001 -53c-36.667 -38 -55 -87.667 -55 -149c0 -60.667 18.333 -110 55 -148
c31.333 -32.667 67.333 -50.667 108 -54z" />
    <glyph glyph-name="Otilde" unicode="&#xd5;" horiz-adv-x="663" 
d="M26 650l275.998 0.00585938v-28l-32 -4c-21.333 -3.33301 -32 -9 -32 -17c0 -4 2.66699 -10.333 8 -19l55 -89c22 -35.333 40 -63.333 54 -84c16.667 24 34 50.667 52 80c20.667 32.667 37.334 61 50.001 85c6.66699 13.333 10 22.333 10 27c0 9.33301 -10 15 -30 17
l-34 4v28h233v-28c-36 -4.66699 -59.667 -9.83398 -71 -15.501s-28.5 -23 -51.5 -52s-47.833 -62.167 -74.5 -99.5c-23.333 -32.667 -42.333 -60.334 -57 -83.001l170 -264c21.333 -32.667 39 -53.334 53 -62.001s38.333 -14.667 73 -18v-28h-290v28l28 4
c22 2 33 8.33301 33 19c0 5.33301 -2.5 12.666 -7.5 21.999s-17.5 30 -37.5 62l-90 143c-20.667 -30.667 -44.667 -69.667 -72 -117l-44 -79c-7.33301 -13.333 -11 -23.333 -11 -30c0 -13.333 9.66699 -20 29 -20l38 -4v-28h-244v28c30.667 3.33301 53 7.66602 67 12.999
s27.667 16.333 41 33c37.333 45.333 94 126.666 170 243.999l-142 224c-20 32 -36.667 52.333 -50 61s-36.666 15 -69.999 19v28z" />
    <glyph glyph-name="Otilde" unicode="&#x425;" horiz-adv-x="663" 
d="M26 650l275.998 0.00585938v-28l-32 -4c-21.333 -3.33301 -32 -9 -32 -17c0 -4 2.66699 -10.333 8 -19l55 -89c22 -35.333 40 -63.333 54 -84c16.667 24 34 50.667 52 80c20.667 32.667 37.334 61 50.001 85c6.66699 13.333 10 22.333 10 27c0 9.33301 -10 15 -30 17
l-34 4v28h233v-28c-36 -4.66699 -59.667 -9.83398 -71 -15.501s-28.5 -23 -51.5 -52s-47.833 -62.167 -74.5 -99.5c-23.333 -32.667 -42.333 -60.334 -57 -83.001l170 -264c21.333 -32.667 39 -53.334 53 -62.001s38.333 -14.667 73 -18v-28h-290v28l28 4
c22 2 33 8.33301 33 19c0 5.33301 -2.5 12.666 -7.5 21.999s-17.5 30 -37.5 62l-90 143c-20.667 -30.667 -44.667 -69.667 -72 -117l-44 -79c-7.33301 -13.333 -11 -23.333 -11 -30c0 -13.333 9.66699 -20 29 -20l38 -4v-28h-244v28c30.667 3.33301 53 7.66602 67 12.999
s27.667 16.333 41 33c37.333 45.333 94 126.666 170 243.999l-142 224c-20 32 -36.667 52.333 -50 61s-36.666 15 -69.999 19v28z" />
    <glyph glyph-name="Odieresis" unicode="&#xd6;" horiz-adv-x="772" 
d="M582 0h-551.004v28c40.667 0 65.834 6.5 75.501 19.5s14.5 46.833 14.5 101.5v352c0 54 -4.66699 87.667 -14 101s-34 20 -74 20v28h287v-28c-39.333 0 -63.666 -6.66699 -72.999 -20s-14 -47 -14 -101v-392c0 -34.667 2.5 -55.167 7.5 -61.5s21.167 -9.5 48.5 -9.5h188
c23.333 0 37.5 3.5 42.5 10.5s7.5 27.167 7.5 60.5v392c0 54.667 -4.66699 88.5 -14 101.5s-34.666 19.5 -75.999 19.5v28h289v-28c-39.333 0 -63.666 -6.66699 -72.999 -20s-14 -47 -14 -101v-367c0 -46.667 2 -75.167 6 -85.5s15 -15.5 33 -15.5h34
c17.333 0 26 -10 26 -30v-174h-31l-22 89c-8.66699 34 -20 56.167 -34 66.5s-37 15.5 -69 15.5z" />
    <glyph glyph-name="Odieresis" unicode="&#x426;" horiz-adv-x="772" 
d="M582 0h-551.004v28c40.667 0 65.834 6.5 75.501 19.5s14.5 46.833 14.5 101.5v352c0 54 -4.66699 87.667 -14 101s-34 20 -74 20v28h287v-28c-39.333 0 -63.666 -6.66699 -72.999 -20s-14 -47 -14 -101v-392c0 -34.667 2.5 -55.167 7.5 -61.5s21.167 -9.5 48.5 -9.5h188
c23.333 0 37.5 3.5 42.5 10.5s7.5 27.167 7.5 60.5v392c0 54.667 -4.66699 88.5 -14 101.5s-34.666 19.5 -75.999 19.5v28h289v-28c-39.333 0 -63.666 -6.66699 -72.999 -20s-14 -47 -14 -101v-367c0 -46.667 2 -75.167 6 -85.5s15 -15.5 33 -15.5h34
c17.333 0 26 -10 26 -30v-174h-31l-22 89c-8.66699 34 -20 56.167 -34 66.5s-37 15.5 -69 15.5z" />
    <glyph glyph-name="multiply" unicode="&#xd7;" horiz-adv-x="689" 
d="M568 501l-0.000976562 -352c0 -54.667 4.5 -88.5 13.5 -101.5s33.167 -19.5 72.5 -19.5v-28h-293v28c43.333 0 70 6.5 80 19.5s15 46.833 15 101.5v164l-89 -32c-22 -8 -45.333 -12 -70 -12c-78.667 0 -133.667 21.333 -165 64c-8.66699 12 -15.667 26.833 -21 44.5
s-8 41.5 -8 71.5v52c0 54 -4.33301 87.667 -13 101s-31.667 20 -69 20v28h277v-28c-36.667 0 -59.667 -6.83301 -69 -20.5s-14 -47.167 -14 -100.5v-40c0 -46 11 -81 33 -105s56.667 -36 104 -36c38.667 0 73.334 9.33301 104.001 28v153c0 54.667 -4.5 88.5 -13.5 101.5
s-33.167 19.5 -72.5 19.5v28h284v-28c-38.667 0 -62.667 -6.66699 -72 -20s-14 -47 -14 -101z" />
    <glyph glyph-name="multiply" unicode="&#x427;" horiz-adv-x="689" 
d="M568 501l-0.000976562 -352c0 -54.667 4.5 -88.5 13.5 -101.5s33.167 -19.5 72.5 -19.5v-28h-293v28c43.333 0 70 6.5 80 19.5s15 46.833 15 101.5v164l-89 -32c-22 -8 -45.333 -12 -70 -12c-78.667 0 -133.667 21.333 -165 64c-8.66699 12 -15.667 26.833 -21 44.5
s-8 41.5 -8 71.5v52c0 54 -4.33301 87.667 -13 101s-31.667 20 -69 20v28h277v-28c-36.667 0 -59.667 -6.83301 -69 -20.5s-14 -47.167 -14 -100.5v-40c0 -46 11 -81 33 -105s56.667 -36 104 -36c38.667 0 73.334 9.33301 104.001 28v153c0 54.667 -4.5 88.5 -13.5 101.5
s-33.167 19.5 -72.5 19.5v28h284v-28c-38.667 0 -62.667 -6.66699 -72 -20s-14 -47 -14 -101z" />
    <glyph glyph-name="Oslash" unicode="&#xd8;" horiz-adv-x="1001" 
d="M121 149l0.00195312 351.999c0 54 -4.66699 87.667 -14 101s-34 20 -74 20v28h275v-28c-32.667 -3.33301 -53.334 -11.333 -62.001 -24s-13 -45 -13 -97v-392c0 -34 2.33301 -54.333 7 -61s19 -10 43 -10h112c24 0 38.5 3.33301 43.5 10s7.5 27 7.5 61v392
c0 54 -4 86.833 -12 98.5s-30 19.167 -66 22.5v28h265v-28c-34 -3.33301 -55 -11.166 -63 -23.499s-12 -44.833 -12 -97.5v-392c0 -34 2.33301 -54.333 7 -61s19 -10 43 -10h113c23.333 0 37.5 3.33301 42.5 10s7.5 27 7.5 61v392c0 54 -4.33301 87.667 -13 101
s-31.334 20 -68.001 20v28h281v-28c-40 0 -64.667 -6.5 -74 -19.5s-14 -46.833 -14 -101.5v-352c0 -54.667 4.66699 -88.5 14 -101.5s34.666 -19.5 75.999 -19.5v-28h-942v28c40.667 0 65.834 6.5 75.501 19.5s14.5 46.833 14.5 101.5z" />
    <glyph glyph-name="Oslash" unicode="&#x428;" horiz-adv-x="1001" 
d="M121 149l0.00195312 351.999c0 54 -4.66699 87.667 -14 101s-34 20 -74 20v28h275v-28c-32.667 -3.33301 -53.334 -11.333 -62.001 -24s-13 -45 -13 -97v-392c0 -34 2.33301 -54.333 7 -61s19 -10 43 -10h112c24 0 38.5 3.33301 43.5 10s7.5 27 7.5 61v392
c0 54 -4 86.833 -12 98.5s-30 19.167 -66 22.5v28h265v-28c-34 -3.33301 -55 -11.166 -63 -23.499s-12 -44.833 -12 -97.5v-392c0 -34 2.33301 -54.333 7 -61s19 -10 43 -10h113c23.333 0 37.5 3.33301 42.5 10s7.5 27 7.5 61v392c0 54 -4.33301 87.667 -13 101
s-31.334 20 -68.001 20v28h281v-28c-40 0 -64.667 -6.5 -74 -19.5s-14 -46.833 -14 -101.5v-352c0 -54.667 4.66699 -88.5 14 -101.5s34.666 -19.5 75.999 -19.5v-28h-942v28c40.667 0 65.834 6.5 75.501 19.5s14.5 46.833 14.5 101.5z" />
    <glyph glyph-name="Ugrave" unicode="&#xd9;" horiz-adv-x="1014" 
d="M121 149l-0.00195312 352c0 54 -4.66699 87.667 -14 101s-34 20 -74 20v28h278v-28c-35.333 -3.33301 -57.166 -11 -65.499 -23s-12.5 -44.667 -12.5 -98v-392c0 -34 2.33301 -54.333 7 -61s19 -10 43 -10h111c24 0 38.5 3.33301 43.5 10s7.5 27 7.5 61v392
c0 54 -4 86.833 -12 98.5s-30 19.167 -66 22.5v28h268v-28c-35.333 -3.33301 -57.166 -11 -65.499 -23s-12.5 -44.667 -12.5 -98v-392c0 -34 2.33301 -54.333 7 -61s19 -10 43 -10h112c23.333 0 37.5 3.33301 42.5 10s7.5 27 7.5 61v392c0 54 -4.33301 87.667 -13 101
s-31.334 20 -68.001 20v28h281v-28c-40 0 -64.667 -6.5 -74 -19.5s-14 -46.833 -14 -101.5v-367c0 -47.333 2 -76 6 -86s15.333 -15 34 -15h32c18 0 27 -10 27 -30v-174h-31l-22 89c-8.66699 34 -20 56.167 -34 66.5s-37.333 15.5 -70 15.5h-792v28
c40.667 0 65.834 6.5 75.501 19.5s14.5 46.833 14.5 101.5z" />
    <glyph glyph-name="Ugrave" unicode="&#x429;" horiz-adv-x="1014" 
d="M121 149l-0.00195312 352c0 54 -4.66699 87.667 -14 101s-34 20 -74 20v28h278v-28c-35.333 -3.33301 -57.166 -11 -65.499 -23s-12.5 -44.667 -12.5 -98v-392c0 -34 2.33301 -54.333 7 -61s19 -10 43 -10h111c24 0 38.5 3.33301 43.5 10s7.5 27 7.5 61v392
c0 54 -4 86.833 -12 98.5s-30 19.167 -66 22.5v28h268v-28c-35.333 -3.33301 -57.166 -11 -65.499 -23s-12.5 -44.667 -12.5 -98v-392c0 -34 2.33301 -54.333 7 -61s19 -10 43 -10h112c23.333 0 37.5 3.33301 42.5 10s7.5 27 7.5 61v392c0 54 -4.33301 87.667 -13 101
s-31.334 20 -68.001 20v28h281v-28c-40 0 -64.667 -6.5 -74 -19.5s-14 -46.833 -14 -101.5v-367c0 -47.333 2 -76 6 -86s15.333 -15 34 -15h32c18 0 27 -10 27 -30v-174h-31l-22 89c-8.66699 34 -20 56.167 -34 66.5s-37.333 15.5 -70 15.5h-792v28
c40.667 0 65.834 6.5 75.501 19.5s14.5 46.833 14.5 101.5z" />
    <glyph glyph-name="Uacute" unicode="&#xda;" horiz-adv-x="769" 
d="M286 149l0.000976562 424.001c0 19.333 -1.66699 30.666 -5 33.999s-15 5 -35 5h-48c-58.667 0 -95.167 -8.16699 -109.5 -24.5s-26.166 -46.833 -35.499 -91.5l-31 3l11 151h451v-28c-40 0 -64.667 -6.5 -74 -19.5s-14 -46.833 -14 -101.5v-116h111
c71.333 0 126.833 -15.833 166.5 -47.5s59.5 -75.167 59.5 -130.5c0 -41.333 -7.83301 -75 -23.5 -101s-37.834 -47.667 -66.501 -65c-24.667 -14.667 -53.667 -25.167 -87 -31.5s-71 -9.5 -113 -9.5h-244v28c39.333 0 63.666 6.66699 72.999 20s14 47 14 101z
M396.001 349.001v-209c0 -41.333 5 -68.666 15 -81.999s30.667 -20 62 -20c38 0 68.667 11 92 33c29.333 27.333 44 69.666 44 126.999c0 52.667 -13.5 91 -40.5 115s-65.833 36 -116.5 36h-56z" />
    <glyph glyph-name="Uacute" unicode="&#x42a;" horiz-adv-x="769" 
d="M286 149l0.000976562 424.001c0 19.333 -1.66699 30.666 -5 33.999s-15 5 -35 5h-48c-58.667 0 -95.167 -8.16699 -109.5 -24.5s-26.166 -46.833 -35.499 -91.5l-31 3l11 151h451v-28c-40 0 -64.667 -6.5 -74 -19.5s-14 -46.833 -14 -101.5v-116h111
c71.333 0 126.833 -15.833 166.5 -47.5s59.5 -75.167 59.5 -130.5c0 -41.333 -7.83301 -75 -23.5 -101s-37.834 -47.667 -66.501 -65c-24.667 -14.667 -53.667 -25.167 -87 -31.5s-71 -9.5 -113 -9.5h-244v28c39.333 0 63.666 6.66699 72.999 20s14 47 14 101z
M396.001 349.001v-209c0 -41.333 5 -68.666 15 -81.999s30.667 -20 62 -20c38 0 68.667 11 92 33c29.333 27.333 44 69.666 44 126.999c0 52.667 -13.5 91 -40.5 115s-65.833 36 -116.5 36h-56z" />
    <glyph glyph-name="Ucircumflex" unicode="&#xdb;" horiz-adv-x="880" 
d="M119 149v351.999c0 54.667 -4.5 88.5 -13.5 101.5s-32.5 19.5 -70.5 19.5v28h286v-28c-41.333 0 -67 -6.66699 -77 -20s-15 -47 -15 -101v-116h107c70.667 0 125.834 -15.833 165.501 -47.5s59.5 -75.167 59.5 -130.5c0 -41.333 -7.83301 -75.166 -23.5 -101.499
s-37.834 -47.833 -66.501 -64.5c-24.667 -14.667 -53.5 -25.167 -86.5 -31.5s-70.5 -9.5 -112.5 -9.5h-239v28c38.667 0 62.667 6.66699 72 20s14 47 14 101zM437 197.999c0 52.667 -13.499 91 -40.499 115s-65.833 36 -116.5 36h-51v-207c0 -42 4.83301 -69.833 14.5 -83.5
s29.167 -20.5 58.5 -20.5c37.333 1.33301 67.666 13 90.999 35c29.333 27.333 44 69 44 125zM763.001 500.999v-352c0 -54.667 4.5 -88.5 13.5 -101.5s33.167 -19.5 72.5 -19.5v-28h-284v28c38.667 0 62.667 6.66699 72 20s14 47 14 101v352c0 54.667 -4.5 88.5 -13.5 101.5
s-33.167 19.5 -72.5 19.5v28h284v-28c-38.667 0 -62.667 -6.66699 -72 -20s-14 -47 -14 -101z" />
    <glyph glyph-name="Ucircumflex" unicode="&#x42b;" horiz-adv-x="880" 
d="M119 149v351.999c0 54.667 -4.5 88.5 -13.5 101.5s-32.5 19.5 -70.5 19.5v28h286v-28c-41.333 0 -67 -6.66699 -77 -20s-15 -47 -15 -101v-116h107c70.667 0 125.834 -15.833 165.501 -47.5s59.5 -75.167 59.5 -130.5c0 -41.333 -7.83301 -75.166 -23.5 -101.499
s-37.834 -47.833 -66.501 -64.5c-24.667 -14.667 -53.5 -25.167 -86.5 -31.5s-70.5 -9.5 -112.5 -9.5h-239v28c38.667 0 62.667 6.66699 72 20s14 47 14 101zM437 197.999c0 52.667 -13.499 91 -40.499 115s-65.833 36 -116.5 36h-51v-207c0 -42 4.83301 -69.833 14.5 -83.5
s29.167 -20.5 58.5 -20.5c37.333 1.33301 67.666 13 90.999 35c29.333 27.333 44 69 44 125zM763.001 500.999v-352c0 -54.667 4.5 -88.5 13.5 -101.5s33.167 -19.5 72.5 -19.5v-28h-284v28c38.667 0 62.667 6.66699 72 20s14 47 14 101v352c0 54.667 -4.5 88.5 -13.5 101.5
s-33.167 19.5 -72.5 19.5v28h284v-28c-38.667 0 -62.667 -6.66699 -72 -20s-14 -47 -14 -101z" />
    <glyph glyph-name="Udieresis" unicode="&#xdc;" horiz-adv-x="598" 
d="M121 149l0.000976562 351.999c0 54.667 -4.5 88.5 -13.5 101.5s-33.167 19.5 -72.5 19.5v28h290v-28c-42.667 0 -69 -6.5 -79 -19.5s-15 -46.833 -15 -101.5v-116h105c71.333 0 126.833 -15.833 166.5 -47.5s59.5 -75.167 59.5 -130.5
c0 -41.333 -7.83301 -75.166 -23.5 -101.499s-37.834 -47.833 -66.501 -64.5c-24.667 -14.667 -53.5 -25.167 -86.5 -31.5s-70.5 -9.5 -112.5 -9.5h-240v28c40 0 64.667 6.5 74 19.5s14 46.833 14 101.5zM231.001 348.999v-209.001c0 -41.333 4.66699 -68.666 14 -81.999
s28.333 -20 57 -20c38 0 68.667 11 92 33c30 28 45 70.333 45 127c0 52.667 -13.5 91 -40.5 115s-65.833 36 -116.5 36h-51z" />
    <glyph glyph-name="Udieresis" unicode="&#x42c;" horiz-adv-x="598" 
d="M121 149l0.000976562 351.999c0 54.667 -4.5 88.5 -13.5 101.5s-33.167 19.5 -72.5 19.5v28h290v-28c-42.667 0 -69 -6.5 -79 -19.5s-15 -46.833 -15 -101.5v-116h105c71.333 0 126.833 -15.833 166.5 -47.5s59.5 -75.167 59.5 -130.5
c0 -41.333 -7.83301 -75.166 -23.5 -101.499s-37.834 -47.833 -66.501 -64.5c-24.667 -14.667 -53.5 -25.167 -86.5 -31.5s-70.5 -9.5 -112.5 -9.5h-240v28c40 0 64.667 6.5 74 19.5s14 46.833 14 101.5zM231.001 348.999v-209.001c0 -41.333 4.66699 -68.666 14 -81.999
s28.333 -20 57 -20c38 0 68.667 11 92 33c30 28 45 70.333 45 127c0 52.667 -13.5 91 -40.5 115s-65.833 36 -116.5 36h-51z" />
    <glyph glyph-name="Yacute" unicode="&#xdd;" horiz-adv-x="651" 
d="M87 464l-31 2.00098c2 20.667 5 47.834 9 81.501s7.33301 59.834 10 78.501c10.667 2 34.667 8 72 18c53.333 14 99 21 137 21c116 0 202.667 -36.333 260 -109c44.667 -56.667 67 -124.667 67 -204c0 -95.333 -21.333 -173.333 -64 -234
c-34 -48.667 -80.333 -84.334 -139 -107.001c-44.667 -17.333 -90 -26 -136 -26c-40.667 0 -78.667 6.16699 -114 18.5s-63.333 28.166 -84 47.499c-14.667 14 -26.167 28.167 -34.5 42.5s-12.5 28.833 -12.5 43.5c0 14 3.33301 25.667 10 35s16.667 14 30 14
c10.667 0 19.167 -2.83301 25.5 -8.5s11.833 -14.5 16.5 -26.5c15.333 -40.667 37.5 -71.834 66.5 -93.501s64.167 -32.5 105.5 -32.5c59.333 0 108.833 26.5 148.5 79.5s59.5 124.167 59.5 213.5l-324 -10v62l322 -10c0 93.333 -23 163 -69 209
c-37.333 37.333 -85 56 -143 56c-66 0 -114.667 -21.667 -146 -65c-5.33301 -7.33301 -19.333 -39.333 -42 -96z" />
    <glyph glyph-name="Yacute" unicode="&#x42d;" horiz-adv-x="651" 
d="M87 464l-31 2.00098c2 20.667 5 47.834 9 81.501s7.33301 59.834 10 78.501c10.667 2 34.667 8 72 18c53.333 14 99 21 137 21c116 0 202.667 -36.333 260 -109c44.667 -56.667 67 -124.667 67 -204c0 -95.333 -21.333 -173.333 -64 -234
c-34 -48.667 -80.333 -84.334 -139 -107.001c-44.667 -17.333 -90 -26 -136 -26c-40.667 0 -78.667 6.16699 -114 18.5s-63.333 28.166 -84 47.499c-14.667 14 -26.167 28.167 -34.5 42.5s-12.5 28.833 -12.5 43.5c0 14 3.33301 25.667 10 35s16.667 14 30 14
c10.667 0 19.167 -2.83301 25.5 -8.5s11.833 -14.5 16.5 -26.5c15.333 -40.667 37.5 -71.834 66.5 -93.501s64.167 -32.5 105.5 -32.5c59.333 0 108.833 26.5 148.5 79.5s59.5 124.167 59.5 213.5l-324 -10v62l322 -10c0 93.333 -23 163 -69 209
c-37.333 37.333 -85 56 -143 56c-66 0 -114.667 -21.667 -146 -65c-5.33301 -7.33301 -19.333 -39.333 -42 -96z" />
    <glyph glyph-name="Thorn" unicode="&#xde;" horiz-adv-x="1036" 
d="M35 650h283v-28c-38 0 -61.667 -6.66699 -71 -20s-14 -47 -14 -101v-138h122c10 83.333 42 152.666 96 207.999c61.333 62.667 140 94 236 94c84.667 0 157.167 -31.167 217.5 -93.5s90.5 -141.166 90.5 -236.499c0 -103.333 -31.167 -187.5 -93.5 -252.5
s-139.833 -97.5 -232.5 -97.5s-169 31.667 -229 95s-90 142 -90 236l1 7h-118v-174c0 -54.667 4.5 -88.5 13.5 -101.5s32.833 -19.5 71.5 -19.5v-28h-283v28c38.667 0 62.667 6.66699 72 20s14 47 14 101v352c0 54.667 -4.5 88.5 -13.5 101.5s-33.167 19.5 -72.5 19.5v28z
M688 25c56 0 100.333 23.167 133 69.5s49 114.833 49 205.5c0 102 -18.833 181.667 -56.5 239s-88.167 86 -151.5 86c-58.667 0 -104.667 -25.667 -138 -77s-50 -119 -50 -203c0 -94.667 19 -171.667 57 -231s90.333 -89 157 -89z" />
    <glyph glyph-name="Thorn" unicode="&#x42e;" horiz-adv-x="1036" 
d="M35 650h283v-28c-38 0 -61.667 -6.66699 -71 -20s-14 -47 -14 -101v-138h122c10 83.333 42 152.666 96 207.999c61.333 62.667 140 94 236 94c84.667 0 157.167 -31.167 217.5 -93.5s90.5 -141.166 90.5 -236.499c0 -103.333 -31.167 -187.5 -93.5 -252.5
s-139.833 -97.5 -232.5 -97.5s-169 31.667 -229 95s-90 142 -90 236l1 7h-118v-174c0 -54.667 4.5 -88.5 13.5 -101.5s32.833 -19.5 71.5 -19.5v-28h-283v28c38.667 0 62.667 6.66699 72 20s14 47 14 101v352c0 54.667 -4.5 88.5 -13.5 101.5s-33.167 19.5 -72.5 19.5v28z
M688 25c56 0 100.333 23.167 133 69.5s49 114.833 49 205.5c0 102 -18.833 181.667 -56.5 239s-88.167 86 -151.5 86c-58.667 0 -104.667 -25.667 -138 -77s-50 -119 -50 -203c0 -94.667 19 -171.667 57 -231s90.333 -89 157 -89z" />
    <glyph glyph-name="germandbls" unicode="&#xdf;" horiz-adv-x="650" 
d="M421 149v139.001h-29c-19.333 0 -34.666 -4.33301 -45.999 -13s-23.333 -24 -36 -46s-25 -45.333 -37 -70l-37 -76c-17.333 -33.333 -35.833 -55.666 -55.5 -66.999s-47.167 -17 -82.5 -17h-78v29c18 2.66699 30.333 5.33398 37 8.00098
c11.333 4.66699 21.666 12.667 30.999 24s24 34.666 44 69.999l35 62c20 36.667 38.5 63.167 55.5 79.5s34.167 26.833 51.5 31.5c-40 5.33301 -75.333 20.666 -106 45.999c-38 31.333 -57 71.666 -57 120.999c0 54 18.333 96.667 55 128c40.667 34.667 100.667 52 180 52
h270v-28c-38 0 -61.667 -6.66699 -71 -20s-14 -47 -14 -101v-352c0 -54.667 4.5 -88.5 13.5 -101.5s33.5 -19.5 73.5 -19.5v-28h-283v28c38.667 0 62.667 6.66699 72 20s14 47 14 101zM421 324.001v254c0 15.333 -2.66699 25 -8 29s-19 6 -41 6
c-44 0 -77.833 -14 -101.5 -42s-35.5 -62 -35.5 -102c0 -48.667 14.333 -85 43 -109s67.667 -36 117 -36h26z" />
    <glyph glyph-name="germandbls" unicode="&#x42f;" horiz-adv-x="650" 
d="M421 149v139.001h-29c-19.333 0 -34.666 -4.33301 -45.999 -13s-23.333 -24 -36 -46s-25 -45.333 -37 -70l-37 -76c-17.333 -33.333 -35.833 -55.666 -55.5 -66.999s-47.167 -17 -82.5 -17h-78v29c18 2.66699 30.333 5.33398 37 8.00098
c11.333 4.66699 21.666 12.667 30.999 24s24 34.666 44 69.999l35 62c20 36.667 38.5 63.167 55.5 79.5s34.167 26.833 51.5 31.5c-40 5.33301 -75.333 20.666 -106 45.999c-38 31.333 -57 71.666 -57 120.999c0 54 18.333 96.667 55 128c40.667 34.667 100.667 52 180 52
h270v-28c-38 0 -61.667 -6.66699 -71 -20s-14 -47 -14 -101v-352c0 -54.667 4.5 -88.5 13.5 -101.5s33.5 -19.5 73.5 -19.5v-28h-283v28c38.667 0 62.667 6.66699 72 20s14 47 14 101zM421 324.001v254c0 15.333 -2.66699 25 -8 29s-19 6 -41 6
c-44 0 -77.833 -14 -101.5 -42s-35.5 -62 -35.5 -102c0 -48.667 14.333 -85 43 -109s67.667 -36 117 -36h26z" />
    <glyph glyph-name="agrave" unicode="&#xe0;" horiz-adv-x="450" 
d="M437 67l9.99707 -25.001l-103 -54c-20.667 0 -37.667 7.33301 -51 22c-10 11.333 -16.667 25 -20 41l-81 -50c-16 -8.66699 -27.667 -13 -35 -13c-36 0 -65.333 12.333 -88 37s-34 52.667 -34 84c0 24 6.16699 44.833 18.5 62.5s31.166 31.834 56.499 42.501l87 34
c34 13.333 58.667 25 74 35v27c0 57.333 -24 86 -72 86c-7.33301 0 -14.5 -1.66699 -21.5 -5s-12.833 -7.33301 -17.5 -12c-14.667 -12 -26 -36.667 -34 -74c-3.33301 -14.667 -14 -22 -32 -22c-11.333 0 -22.666 4.5 -33.999 13.5s-17 19.167 -17 30.5
c0 14.667 10.167 29.667 30.5 45s42.833 28.666 67.5 39.999c34.667 16.667 68 28 100 34c36 0 64.667 -8 86 -24c16.667 -12.667 28.334 -28 35.001 -46c4.66699 -12.667 7 -29.667 7 -51v-214c0 -19.333 2.5 -33.5 7.5 -42.5s11.833 -13.5 20.5 -13.5
c6.66699 0 12.334 0.833008 17.001 2.5s12.334 4.83398 23.001 9.50098zM270.997 86.999l-0.000976562 159l-79 -40c-32 -17.333 -48 -42.333 -48 -75c0 -24 6.33301 -42.667 19 -56s26.334 -20 41.001 -20c20 0 42.333 10.667 67 32z" />
    <glyph glyph-name="agrave" unicode="&#x430;" horiz-adv-x="450" 
d="M437 67l9.99707 -25.001l-103 -54c-20.667 0 -37.667 7.33301 -51 22c-10 11.333 -16.667 25 -20 41l-81 -50c-16 -8.66699 -27.667 -13 -35 -13c-36 0 -65.333 12.333 -88 37s-34 52.667 -34 84c0 24 6.16699 44.833 18.5 62.5s31.166 31.834 56.499 42.501l87 34
c34 13.333 58.667 25 74 35v27c0 57.333 -24 86 -72 86c-7.33301 0 -14.5 -1.66699 -21.5 -5s-12.833 -7.33301 -17.5 -12c-14.667 -12 -26 -36.667 -34 -74c-3.33301 -14.667 -14 -22 -32 -22c-11.333 0 -22.666 4.5 -33.999 13.5s-17 19.167 -17 30.5
c0 14.667 10.167 29.667 30.5 45s42.833 28.666 67.5 39.999c34.667 16.667 68 28 100 34c36 0 64.667 -8 86 -24c16.667 -12.667 28.334 -28 35.001 -46c4.66699 -12.667 7 -29.667 7 -51v-214c0 -19.333 2.5 -33.5 7.5 -42.5s11.833 -13.5 20.5 -13.5
c6.66699 0 12.334 0.833008 17.001 2.5s12.334 4.83398 23.001 9.50098zM270.997 86.999l-0.000976562 159l-79 -40c-32 -17.333 -48 -42.333 -48 -75c0 -24 6.33301 -42.667 19 -56s26.334 -20 41.001 -20c20 0 42.333 10.667 67 32z" />
    <glyph glyph-name="aacute" unicode="&#xe1;" horiz-adv-x="525" 
d="M490 229c0 -76.667 -24.3369 -137 -73.0039 -181c-44 -40 -97.667 -60 -161 -60c-69.333 0 -123.5 24 -162.5 72s-58.5 109.667 -58.5 185c0 55.333 6.83301 104 20.5 146s34.5 80.667 62.5 116c20.667 24 41 44.667 61 62c16 14 32.667 26.333 50 37
c28.667 18.667 66.667 35 114 49c16 4.66699 30 9.33398 42 14.001c20 7.33301 35.667 15.666 47 24.999c6.66699 5.33301 11.334 8 14.001 8s4 -2.66699 4 -8c0 -18.667 -3.66699 -37 -11 -55c-9.33301 -23.333 -23.666 -40.333 -42.999 -51
c-14 -7.33301 -31.667 -14.166 -53 -20.499s-45.666 -11.833 -72.999 -16.5c-54 -10.667 -88.333 -28.334 -103 -53.001c-7.33301 -12.667 -13.166 -28.5 -17.499 -47.5s-7.5 -41.5 -9.5 -67.5l2 -2c15.333 18.667 35.333 34.167 60 46.5s50 18.5 76 18.5
c64.667 0 116.667 -21.333 156 -64c37.333 -40.667 56 -91.667 56 -153zM271.996 25c29.333 0 52 11.333 68 34c20.667 29.333 31 78 31 146c0 61.333 -10.167 110.333 -30.5 147s-48.833 55 -85.5 55c-28 0 -52 -12 -72 -36c-12 -14 -20.167 -28.5 -24.5 -43.5
s-6.5 -40.5 -6.5 -76.5c0 -68 11 -122.667 33 -164s51 -62 87 -62z" />
    <glyph glyph-name="aacute" unicode="&#x431;" horiz-adv-x="525" 
d="M490 229c0 -76.667 -24.3369 -137 -73.0039 -181c-44 -40 -97.667 -60 -161 -60c-69.333 0 -123.5 24 -162.5 72s-58.5 109.667 -58.5 185c0 55.333 6.83301 104 20.5 146s34.5 80.667 62.5 116c20.667 24 41 44.667 61 62c16 14 32.667 26.333 50 37
c28.667 18.667 66.667 35 114 49c16 4.66699 30 9.33398 42 14.001c20 7.33301 35.667 15.666 47 24.999c6.66699 5.33301 11.334 8 14.001 8s4 -2.66699 4 -8c0 -18.667 -3.66699 -37 -11 -55c-9.33301 -23.333 -23.666 -40.333 -42.999 -51
c-14 -7.33301 -31.667 -14.166 -53 -20.499s-45.666 -11.833 -72.999 -16.5c-54 -10.667 -88.333 -28.334 -103 -53.001c-7.33301 -12.667 -13.166 -28.5 -17.499 -47.5s-7.5 -41.5 -9.5 -67.5l2 -2c15.333 18.667 35.333 34.167 60 46.5s50 18.5 76 18.5
c64.667 0 116.667 -21.333 156 -64c37.333 -40.667 56 -91.667 56 -153zM271.996 25c29.333 0 52 11.333 68 34c20.667 29.333 31 78 31 146c0 61.333 -10.167 110.333 -30.5 147s-48.833 55 -85.5 55c-28 0 -52 -12 -72 -36c-12 -14 -20.167 -28.5 -24.5 -43.5
s-6.5 -40.5 -6.5 -76.5c0 -68 11 -122.667 33 -164s51 -62 87 -62z" />
    <glyph glyph-name="acircumflex" unicode="&#xe2;" horiz-adv-x="510" 
d="M95 102l-0.000976562 231.002c0 33.333 -3.16699 54 -9.5 62s-23.5 12 -51.5 12v27h266c45.333 0 80.833 -7.83301 106.5 -23.5s38.5 -39.834 38.5 -72.501c0 -28.667 -11.333 -51.667 -34 -69c-16 -12.667 -37 -22.334 -63 -29.001c35.333 -5.33301 64 -17 86 -35
c25.333 -20.667 38 -46.667 38 -78c0 -46 -23 -79.667 -69 -101c-37.333 -17.333 -89.666 -26 -156.999 -26h-221v28c31.333 0 50.833 4.16699 58.5 12.5s11.5 28.833 11.5 61.5zM197.999 376.002l-0.000976562 -127.001h42c26.667 0 48 6 64 18c18.667 14 28 34 28 60
c0 24.667 -8.16699 43.334 -24.5 56.001s-37.166 19 -62.499 19c-22 0 -35.333 -1.33301 -40 -4s-7 -10 -7 -22zM235.998 217.001h-37.999v-114c0 -28 4.66699 -46.833 14 -56.5s23.333 -14.5 42 -14.5c28 0 51.5 8 70.5 24s28.5 39.333 28.5 70s-10.333 53.5 -31 68.5
s-49.334 22.5 -86.001 22.5z" />
    <glyph glyph-name="acircumflex" unicode="&#x432;" horiz-adv-x="510" 
d="M95 102l-0.000976562 231.002c0 33.333 -3.16699 54 -9.5 62s-23.5 12 -51.5 12v27h266c45.333 0 80.833 -7.83301 106.5 -23.5s38.5 -39.834 38.5 -72.501c0 -28.667 -11.333 -51.667 -34 -69c-16 -12.667 -37 -22.334 -63 -29.001c35.333 -5.33301 64 -17 86 -35
c25.333 -20.667 38 -46.667 38 -78c0 -46 -23 -79.667 -69 -101c-37.333 -17.333 -89.666 -26 -156.999 -26h-221v28c31.333 0 50.833 4.16699 58.5 12.5s11.5 28.833 11.5 61.5zM197.999 376.002l-0.000976562 -127.001h42c26.667 0 48 6 64 18c18.667 14 28 34 28 60
c0 24.667 -8.16699 43.334 -24.5 56.001s-37.166 19 -62.499 19c-22 0 -35.333 -1.33301 -40 -4s-7 -10 -7 -22zM235.998 217.001h-37.999v-114c0 -28 4.66699 -46.833 14 -56.5s23.333 -14.5 42 -14.5c28 0 51.5 8 70.5 24s28.5 39.333 28.5 70s-10.333 53.5 -31 68.5
s-49.334 22.5 -86.001 22.5z" />
    <glyph glyph-name="atilde" unicode="&#xe3;" horiz-adv-x="408" 
d="M24 437l352.001 0.00195312l10 -130l-28 -3c-10 36 -20.667 61.667 -32 77c-6 8 -13.667 13.5 -23 16.5s-20 4.5 -32 4.5h-45c-14 0 -22.333 -1.33301 -25 -4s-4 -11.334 -4 -26.001v-277c0 -29.333 4.16699 -47.833 12.5 -55.5s30.166 -11.5 65.499 -11.5v-28h-248v28
c31.333 3.33301 50.5 8.33301 57.5 15s10.5 24 10.5 52v247c0 28.667 -3.5 46.167 -10.5 52.5s-27.167 11.166 -60.5 14.499v28z" />
    <glyph glyph-name="atilde" unicode="&#x433;" horiz-adv-x="408" 
d="M24 437l352.001 0.00195312l10 -130l-28 -3c-10 36 -20.667 61.667 -32 77c-6 8 -13.667 13.5 -23 16.5s-20 4.5 -32 4.5h-45c-14 0 -22.333 -1.33301 -25 -4s-4 -11.334 -4 -26.001v-277c0 -29.333 4.16699 -47.833 12.5 -55.5s30.166 -11.5 65.499 -11.5v-28h-248v28
c31.333 3.33301 50.5 8.33301 57.5 15s10.5 24 10.5 52v247c0 28.667 -3.5 46.167 -10.5 52.5s-27.167 11.166 -60.5 14.499v28z" />
    <glyph glyph-name="adieresis" unicode="&#xe4;" horiz-adv-x="508" 
d="M379 0l-252.999 -0.00195312c-22 0 -36.333 -4.5 -43 -13.5s-13.334 -30.167 -20.001 -63.5l-9 -48h-31v133c0 10 1.5 16.5 4.5 19.5s9.83301 4.5 20.5 4.5h17c6.66699 0 12.667 4.66699 18 14s10.5 21.833 15.5 37.5s10.167 35.834 15.5 60.501
s10.166 60.667 14.499 108s6.5 84 6.5 110c0 14 -2.33301 23.333 -7 28s-15.667 8.33398 -33 11.001l-31 5v28h410v-28c-31.333 -3.33301 -50.333 -8 -57 -14s-10 -22.667 -10 -50v-243c0 -29.333 2.16699 -47.833 6.5 -55.5s14.5 -11.5 30.5 -11.5h16c14 0 21 -8 21 -24
v-133h-30l-9 48c-6 32 -12.667 52.833 -20 62.5s-21.666 14.5 -42.999 14.5zM153.001 34.998l99 0.000976562c24.667 0 39.5 2.83301 44.5 8.5s7.5 23.167 7.5 52.5v263c0 18.667 -2.33301 30 -7 34s-17.667 6 -39 6h-37c-20 0 -32.333 -2.33301 -37 -7
s-7 -16.334 -7 -35.001c0 -57.333 -3.5 -112.5 -10.5 -165.5s-15.833 -95.5 -26.5 -127.5c-2.66699 -8 -4 -14.333 -4 -19c0 -6.66699 5.66699 -10 17 -10z" />
    <glyph glyph-name="adieresis" unicode="&#x434;" horiz-adv-x="508" 
d="M379 0l-252.999 -0.00195312c-22 0 -36.333 -4.5 -43 -13.5s-13.334 -30.167 -20.001 -63.5l-9 -48h-31v133c0 10 1.5 16.5 4.5 19.5s9.83301 4.5 20.5 4.5h17c6.66699 0 12.667 4.66699 18 14s10.5 21.833 15.5 37.5s10.167 35.834 15.5 60.501
s10.166 60.667 14.499 108s6.5 84 6.5 110c0 14 -2.33301 23.333 -7 28s-15.667 8.33398 -33 11.001l-31 5v28h410v-28c-31.333 -3.33301 -50.333 -8 -57 -14s-10 -22.667 -10 -50v-243c0 -29.333 2.16699 -47.833 6.5 -55.5s14.5 -11.5 30.5 -11.5h16c14 0 21 -8 21 -24
v-133h-30l-9 48c-6 32 -12.667 52.833 -20 62.5s-21.666 14.5 -42.999 14.5zM153.001 34.998l99 0.000976562c24.667 0 39.5 2.83301 44.5 8.5s7.5 23.167 7.5 52.5v263c0 18.667 -2.33301 30 -7 34s-17.667 6 -39 6h-37c-20 0 -32.333 -2.33301 -37 -7
s-7 -16.334 -7 -35.001c0 -57.333 -3.5 -112.5 -10.5 -165.5s-15.833 -95.5 -26.5 -127.5c-2.66699 -8 -4 -14.333 -4 -19c0 -6.66699 5.66699 -10 17 -10z" />
    <glyph glyph-name="aring" unicode="&#xe5;" horiz-adv-x="428" 
d="M391 108l14 -16.998c-19.333 -28 -42 -51 -68 -69c-33.333 -22.667 -64 -34 -92 -34c-64 0 -115 20 -153 60s-57 90 -57 150c0 64.667 21.167 122.167 63.5 172.5s95.5 75.5 159.5 75.5c41.333 0 76.5 -14.5 105.5 -43.5s43.5 -62.167 43.5 -99.5
c0 -18.667 -1 -30 -3 -34s-10.833 -7.33301 -26.5 -10s-52 -5.83398 -109 -9.50098s-101.833 -5.5 -134.5 -5.5c0 -58.667 16 -104 48 -136c28 -28 62.667 -42 104 -42c18 0 35 3.16699 51 9.5s34 17.166 54 32.499zM139 285.002l149 2c8.66699 0 13.834 2.5 15.501 7.5
s2.5 11.833 2.5 20.5c0 21.333 -7.33301 42 -22 62s-32.334 30 -53.001 30c-22 0 -41.833 -11.167 -59.5 -33.5s-28.5 -51.833 -32.5 -88.5z" />
    <glyph glyph-name="aring" unicode="&#x435;" horiz-adv-x="428" 
d="M391 108l14 -16.998c-19.333 -28 -42 -51 -68 -69c-33.333 -22.667 -64 -34 -92 -34c-64 0 -115 20 -153 60s-57 90 -57 150c0 64.667 21.167 122.167 63.5 172.5s95.5 75.5 159.5 75.5c41.333 0 76.5 -14.5 105.5 -43.5s43.5 -62.167 43.5 -99.5
c0 -18.667 -1 -30 -3 -34s-10.833 -7.33301 -26.5 -10s-52 -5.83398 -109 -9.50098s-101.833 -5.5 -134.5 -5.5c0 -58.667 16 -104 48 -136c28 -28 62.667 -42 104 -42c18 0 35 3.16699 51 9.5s34 17.166 54 32.499zM139 285.002l149 2c8.66699 0 13.834 2.5 15.501 7.5
s2.5 11.833 2.5 20.5c0 21.333 -7.33301 42 -22 62s-32.334 30 -53.001 30c-22 0 -41.833 -11.167 -59.5 -33.5s-28.5 -51.833 -32.5 -88.5z" />
    <glyph glyph-name="ae" unicode="&#xe6;" horiz-adv-x="756" 
d="M258 434l236.998 0.000976562v-28c-30 -3.33301 -48.333 -8.16602 -55 -14.499s-10 -23.5 -10 -51.5v-95c23.333 0 47 10 71 30c11.333 10 24.666 25 39.999 45c12.667 16.667 24.834 34.5 36.501 53.5s23.5 33.833 35.5 44.5c19.333 17.333 40.333 26 63 26
c12 0 22.333 -2.66699 31 -8s13 -13 13 -23s-3 -18 -9 -24s-15.667 -9 -29 -9h-21c-21.333 0 -40.666 -10.333 -57.999 -31c-9.33301 -11.333 -20 -26.333 -32 -45c-13.333 -22.667 -30.666 -40.667 -51.999 -54v-4c13.333 -3.33301 26 -8.5 38 -15.5
s22.667 -17.833 32 -32.5l59 -95c30.667 -50 60 -75 88 -75v-28h-72c-25.333 0 -44.333 2.66699 -57 8c-18 8 -33.667 23.333 -47 46c-10.667 18 -22 39 -34 63l-26 53c-8.66699 18 -18.5 30.333 -29.5 37s-24.5 10 -40.5 10v-123c0 -28 3.33301 -45.167 10 -51.5
s26 -11.166 58 -14.499v-28h-243v28c33.333 3.33301 53.666 8.16602 60.999 14.499s11 23.5 11 51.5v123c-15.333 0 -28.5 -3.16699 -39.5 -9.5s-21 -18.833 -30 -37.5l-25.5 -52c-13.333 -26 -24.666 -47.333 -33.999 -64c-12.667 -22.667 -27 -37.334 -43 -44.001
s-36.667 -10 -62 -10h-72v28c18.667 0 33.5 5.16699 44.5 15.5s25.5 30.166 43.5 59.499l60 95c9.33301 13.333 20 23.833 32 31.5s24.667 13.167 38 16.5v4c-8 4.66699 -17.333 12.667 -28 24s-19 21.333 -25 30c-14 22 -24.333 37 -31 45
c-17.333 20.667 -36.666 31 -57.999 31h-22c-25.333 0 -38 11 -38 33c0 10 4.16699 17.667 12.5 23s18.833 8 31.5 8c23.333 0 44.333 -8.33301 63 -25c12.667 -11.333 25 -26.666 37 -45.999c8.66699 -14 21 -31.667 37 -53s28.667 -36.333 38 -45
c25.333 -20 49 -30 71 -30v95c0 28 -3.33301 45.167 -10 51.5s-26.334 11.166 -59.001 14.499v28z" />
    <glyph glyph-name="ae" unicode="&#x436;" horiz-adv-x="756" 
d="M258 434l236.998 0.000976562v-28c-30 -3.33301 -48.333 -8.16602 -55 -14.499s-10 -23.5 -10 -51.5v-95c23.333 0 47 10 71 30c11.333 10 24.666 25 39.999 45c12.667 16.667 24.834 34.5 36.501 53.5s23.5 33.833 35.5 44.5c19.333 17.333 40.333 26 63 26
c12 0 22.333 -2.66699 31 -8s13 -13 13 -23s-3 -18 -9 -24s-15.667 -9 -29 -9h-21c-21.333 0 -40.666 -10.333 -57.999 -31c-9.33301 -11.333 -20 -26.333 -32 -45c-13.333 -22.667 -30.666 -40.667 -51.999 -54v-4c13.333 -3.33301 26 -8.5 38 -15.5
s22.667 -17.833 32 -32.5l59 -95c30.667 -50 60 -75 88 -75v-28h-72c-25.333 0 -44.333 2.66699 -57 8c-18 8 -33.667 23.333 -47 46c-10.667 18 -22 39 -34 63l-26 53c-8.66699 18 -18.5 30.333 -29.5 37s-24.5 10 -40.5 10v-123c0 -28 3.33301 -45.167 10 -51.5
s26 -11.166 58 -14.499v-28h-243v28c33.333 3.33301 53.666 8.16602 60.999 14.499s11 23.5 11 51.5v123c-15.333 0 -28.5 -3.16699 -39.5 -9.5s-21 -18.833 -30 -37.5l-25.5 -52c-13.333 -26 -24.666 -47.333 -33.999 -64c-12.667 -22.667 -27 -37.334 -43 -44.001
s-36.667 -10 -62 -10h-72v28c18.667 0 33.5 5.16699 44.5 15.5s25.5 30.166 43.5 59.499l60 95c9.33301 13.333 20 23.833 32 31.5s24.667 13.167 38 16.5v4c-8 4.66699 -17.333 12.667 -28 24s-19 21.333 -25 30c-14 22 -24.333 37 -31 45
c-17.333 20.667 -36.666 31 -57.999 31h-22c-25.333 0 -38 11 -38 33c0 10 4.16699 17.667 12.5 23s18.833 8 31.5 8c23.333 0 44.333 -8.33301 63 -25c12.667 -11.333 25 -26.666 37 -45.999c8.66699 -14 21 -31.667 37 -53s28.667 -36.333 38 -45
c25.333 -20 49 -30 71 -30v95c0 28 -3.33301 45.167 -10 51.5s-26.334 11.166 -59.001 14.499v28z" />
    <glyph glyph-name="ccedilla" unicode="&#xe7;" horiz-adv-x="435" 
d="M84 291l-30.001 3.99902l12 108c22.667 13.333 46.667 23.833 72 31.5s49.666 11.5 72.999 11.5c54 0 96 -10.167 126 -30.5s45 -47.833 45 -82.5c0 -13.333 -2.33301 -24.166 -7 -32.499s-11.5 -16.166 -20.5 -23.499s-21.5 -14.333 -37.5 -21
c-11.333 -4.66699 -25.666 -9.33398 -42.999 -14.001c38.667 -6 69 -17.667 91 -35c26 -20.667 39 -48 39 -82c0 -42 -19.833 -75.333 -59.5 -100s-88.5 -37 -146.5 -37c-30.667 0 -58.167 4 -82.5 12s-44.5 19.333 -60.5 34c-8.66699 8 -14.834 16 -18.501 24
s-5.5 16.333 -5.5 25c0 11.333 4.16699 21.833 12.5 31.5s19.166 14.5 32.499 14.5c18 0 32 -12 42 -36c20.667 -46.667 50.334 -70 89.001 -70c23.333 0 42.333 9 57 27s22 40 22 66c0 28 -5.66699 51.333 -17 70c-13.333 21.333 -32.333 32 -57 32
c-4.66699 0 -12 -0.833008 -22 -2.5s-16.667 -2.5 -20 -2.5l-23 -3c-23.333 0 -35 9 -35 27s11.667 27 35 27l23 -2c4 0 11.333 -1 22 -3s18.334 -3 23.001 -3c17.333 0 31 6.33301 41 19s15 30 15 52c0 26 -7 46.333 -21 61s-32.333 22 -55 22
c-27.333 0 -50.666 -12 -69.999 -36c-16 -19.333 -29.667 -47 -41 -83z" />
    <glyph glyph-name="ccedilla" unicode="&#x437;" horiz-adv-x="435" 
d="M84 291l-30.001 3.99902l12 108c22.667 13.333 46.667 23.833 72 31.5s49.666 11.5 72.999 11.5c54 0 96 -10.167 126 -30.5s45 -47.833 45 -82.5c0 -13.333 -2.33301 -24.166 -7 -32.499s-11.5 -16.166 -20.5 -23.499s-21.5 -14.333 -37.5 -21
c-11.333 -4.66699 -25.666 -9.33398 -42.999 -14.001c38.667 -6 69 -17.667 91 -35c26 -20.667 39 -48 39 -82c0 -42 -19.833 -75.333 -59.5 -100s-88.5 -37 -146.5 -37c-30.667 0 -58.167 4 -82.5 12s-44.5 19.333 -60.5 34c-8.66699 8 -14.834 16 -18.501 24
s-5.5 16.333 -5.5 25c0 11.333 4.16699 21.833 12.5 31.5s19.166 14.5 32.499 14.5c18 0 32 -12 42 -36c20.667 -46.667 50.334 -70 89.001 -70c23.333 0 42.333 9 57 27s22 40 22 66c0 28 -5.66699 51.333 -17 70c-13.333 21.333 -32.333 32 -57 32
c-4.66699 0 -12 -0.833008 -22 -2.5s-16.667 -2.5 -20 -2.5l-23 -3c-23.333 0 -35 9 -35 27s11.667 27 35 27l23 -2c4 0 11.333 -1 22 -3s18.334 -3 23.001 -3c17.333 0 31 6.33301 41 19s15 30 15 52c0 26 -7 46.333 -21 61s-32.333 22 -55 22
c-27.333 0 -50.666 -12 -69.999 -36c-16 -19.333 -29.667 -47 -41 -83z" />
    <glyph glyph-name="egrave" unicode="&#xe8;" horiz-adv-x="569" 
d="M474 342v-247.002c0 -28 3.66699 -45.5 11 -52.5s28 -11.833 62 -14.5v-28h-232v28c27.333 2.66699 44.166 7.5 50.499 14.5s9.5 24.167 9.5 51.5v206l-164 -200c-6 -7.33301 -9.66699 -11.666 -11 -12.999c-4 -5.33301 -6 -10.666 -6 -15.999v-22
c0 -8.66699 7.33301 -14.667 22 -18l18 -3v-28h-213v28c35.333 3.33301 56.5 8.16602 63.5 14.499s10.5 23.833 10.5 52.5v247c0 28 -3.66699 45.5 -11 52.5s-28.333 11.833 -63 14.5v28h233v-28c-27.333 -2.66699 -44.166 -7.5 -50.499 -14.5s-9.5 -24.167 -9.5 -51.5v-205
h4l165 205c8 9.33301 12 18.333 12 27v18c0 9.33301 -7 15.333 -21 18l-20 3v28h213v-28c-34.667 -3.33301 -55.5 -8.16602 -62.5 -14.499s-10.5 -23.833 -10.5 -52.5z" />
    <glyph glyph-name="egrave" unicode="&#x438;" horiz-adv-x="569" 
d="M474 342v-247.002c0 -28 3.66699 -45.5 11 -52.5s28 -11.833 62 -14.5v-28h-232v28c27.333 2.66699 44.166 7.5 50.499 14.5s9.5 24.167 9.5 51.5v206l-164 -200c-6 -7.33301 -9.66699 -11.666 -11 -12.999c-4 -5.33301 -6 -10.666 -6 -15.999v-22
c0 -8.66699 7.33301 -14.667 22 -18l18 -3v-28h-213v28c35.333 3.33301 56.5 8.16602 63.5 14.499s10.5 23.833 10.5 52.5v247c0 28 -3.66699 45.5 -11 52.5s-28.333 11.833 -63 14.5v28h233v-28c-27.333 -2.66699 -44.166 -7.5 -50.499 -14.5s-9.5 -24.167 -9.5 -51.5v-205
h4l165 205c8 9.33301 12 18.333 12 27v18c0 9.33301 -7 15.333 -21 18l-20 3v28h213v-28c-34.667 -3.33301 -55.5 -8.16602 -62.5 -14.499s-10.5 -23.833 -10.5 -52.5z" />
    <glyph glyph-name="eacute" unicode="&#xe9;" horiz-adv-x="569" 
d="M284 480c-37.333 0 -66.1689 6.83301 -86.502 20.5s-30.5 31.834 -30.5 54.501c0 12 3.33301 22.333 10 31s16.667 13 30 13c10 0 17.5 -2.83301 22.5 -8.5s7.5 -13.167 7.5 -22.5c0 -4.66699 -0.333008 -8 -1 -10l-5 -20c-3.33301 -18.667 14.334 -28 53.001 -28
s56.334 9.33301 53.001 28l-5 20c-0.666992 2 -1 5.33301 -1 10c0 8.66699 2.66699 16 8 22s13 9 23 9c12.667 0 22.5 -4.16699 29.5 -12.5s10.5 -18.833 10.5 -31.5c0 -22.667 -10.167 -40.834 -30.5 -54.501s-49.5 -20.5 -87.5 -20.5zM474.997 340v-246
c0 -27.333 3.83301 -44.5 11.5 -51.5s28.167 -11.833 61.5 -14.5v-28h-232v28c27.333 2.66699 44.166 7.5 50.499 14.5s9.5 23.833 9.5 50.5v205l-164 -199c-6 -6.66699 -9.66699 -11 -11 -13c-4 -5.33301 -6 -10.333 -6 -15v-22c0 -8.66699 7.33301 -14.667 22 -18l18 -3
v-28h-213v28c34.667 3.33301 55.667 8.16602 63 14.499s11 23.5 11 51.5v246c0 27.333 -3.83301 44.5 -11.5 51.5s-28.5 11.833 -62.5 14.5v28h233v-28c-27.333 -2.66699 -44.166 -7.5 -50.499 -14.5s-9.5 -23.833 -9.5 -50.5v-204h4l165 204c8 9.33301 12 18 12 26v18
c0 9.33301 -7 15.333 -21 18l-20 3v28h213v-28c-34 -3.33301 -54.667 -8.16602 -62 -14.499s-11 -23.5 -11 -51.5z" />
    <glyph glyph-name="eacute" unicode="&#x439;" horiz-adv-x="569" 
d="M284 480c-37.333 0 -66.1689 6.83301 -86.502 20.5s-30.5 31.834 -30.5 54.501c0 12 3.33301 22.333 10 31s16.667 13 30 13c10 0 17.5 -2.83301 22.5 -8.5s7.5 -13.167 7.5 -22.5c0 -4.66699 -0.333008 -8 -1 -10l-5 -20c-3.33301 -18.667 14.334 -28 53.001 -28
s56.334 9.33301 53.001 28l-5 20c-0.666992 2 -1 5.33301 -1 10c0 8.66699 2.66699 16 8 22s13 9 23 9c12.667 0 22.5 -4.16699 29.5 -12.5s10.5 -18.833 10.5 -31.5c0 -22.667 -10.167 -40.834 -30.5 -54.501s-49.5 -20.5 -87.5 -20.5zM474.997 340v-246
c0 -27.333 3.83301 -44.5 11.5 -51.5s28.167 -11.833 61.5 -14.5v-28h-232v28c27.333 2.66699 44.166 7.5 50.499 14.5s9.5 23.833 9.5 50.5v205l-164 -199c-6 -6.66699 -9.66699 -11 -11 -13c-4 -5.33301 -6 -10.333 -6 -15v-22c0 -8.66699 7.33301 -14.667 22 -18l18 -3
v-28h-213v28c34.667 3.33301 55.667 8.16602 63 14.499s11 23.5 11 51.5v246c0 27.333 -3.83301 44.5 -11.5 51.5s-28.5 11.833 -62.5 14.5v28h233v-28c-27.333 -2.66699 -44.166 -7.5 -50.499 -14.5s-9.5 -23.833 -9.5 -50.5v-204h4l165 204c8 9.33301 12 18 12 26v18
c0 9.33301 -7 15.333 -21 18l-20 3v28h213v-28c-34 -3.33301 -54.667 -8.16602 -62 -14.499s-11 -23.5 -11 -51.5z" />
    <glyph glyph-name="ecircumflex" unicode="&#xea;" horiz-adv-x="524" 
d="M26 437l233.999 -0.000976562v-28c-30.667 -3.33301 -49.167 -8.16602 -55.5 -14.499s-9.5 -23.833 -9.5 -52.5v-95c24.667 0 49 10 73 30c11.333 10 24.666 25 39.999 45c12.667 16.667 24.834 34.667 36.501 54s23.5 34.333 35.5 45c19.333 17.333 40.333 26 63 26
c12 0 22.333 -2.66699 31 -8s13 -13 13 -23s-3 -18 -9 -24s-15.667 -9 -29 -9h-21c-14.667 0 -27.5 -3.83301 -38.5 -11.5s-28.5 -28.834 -52.5 -63.501c-7.33301 -11.333 -15.666 -22.166 -24.999 -32.499s-18 -18.166 -26 -23.499v-4c14 -4.66699 25.333 -9.66699 34 -15
c14 -8.66699 26 -20 36 -34l59 -95c17.333 -28.667 31.833 -48.5 43.5 -59.5s26.5 -16.5 44.5 -16.5v-28h-72c-26 0 -45.333 2.66699 -58 8c-18 8 -33.667 23.333 -47 46l-26 49l-34 69c-8.66699 18 -18.667 30.167 -30 36.5s-25 9.5 -41 9.5v-123
c0 -28 3.5 -45.333 10.5 -52s26.167 -11.667 57.5 -15v-28h-240v28c34 3.33301 54.5 8.16602 61.5 14.499s10.5 23.833 10.5 52.5v247c0 28 -3.5 45.333 -10.5 52s-26.5 11.667 -58.5 15v28z" />
    <glyph glyph-name="ecircumflex" unicode="&#x43a;" horiz-adv-x="524" 
d="M26 437l233.999 -0.000976562v-28c-30.667 -3.33301 -49.167 -8.16602 -55.5 -14.499s-9.5 -23.833 -9.5 -52.5v-95c24.667 0 49 10 73 30c11.333 10 24.666 25 39.999 45c12.667 16.667 24.834 34.667 36.501 54s23.5 34.333 35.5 45c19.333 17.333 40.333 26 63 26
c12 0 22.333 -2.66699 31 -8s13 -13 13 -23s-3 -18 -9 -24s-15.667 -9 -29 -9h-21c-14.667 0 -27.5 -3.83301 -38.5 -11.5s-28.5 -28.834 -52.5 -63.501c-7.33301 -11.333 -15.666 -22.166 -24.999 -32.499s-18 -18.166 -26 -23.499v-4c14 -4.66699 25.333 -9.66699 34 -15
c14 -8.66699 26 -20 36 -34l59 -95c17.333 -28.667 31.833 -48.5 43.5 -59.5s26.5 -16.5 44.5 -16.5v-28h-72c-26 0 -45.333 2.66699 -58 8c-18 8 -33.667 23.333 -47 46l-26 49l-34 69c-8.66699 18 -18.667 30.167 -30 36.5s-25 9.5 -41 9.5v-123
c0 -28 3.5 -45.333 10.5 -52s26.167 -11.667 57.5 -15v-28h-240v28c34 3.33301 54.5 8.16602 61.5 14.499s10.5 23.833 10.5 52.5v247c0 28 -3.5 45.333 -10.5 52s-26.5 11.667 -58.5 15v28z" />
    <glyph glyph-name="edieresis" unicode="&#xeb;" horiz-adv-x="497" 
d="M71 434l403.998 -0.000976562v-28c-34 -3.33301 -54.667 -8.16602 -62 -14.499s-11 -23.5 -11 -51.5v-246c0 -27.333 3.83301 -44.5 11.5 -51.5s28.167 -11.833 61.5 -14.5v-28h-249v28c34 3.33301 54.667 8.16602 62 14.499s11 23.5 11 51.5v263
c0 14 -0.666992 23 -2 27c-3.33301 9.33301 -15.333 14 -36 14h-35c-19.333 0 -31 -2 -35 -6s-6 -15 -6 -33c0 -88.667 -7.66699 -162.667 -23 -222c-12 -47.333 -29 -85.333 -51 -114c-10 -12 -19.833 -20.833 -29.5 -26.5s-18.5 -8.5 -26.5 -8.5
c-11.333 0 -27.666 3 -48.999 9v23c20 8.66699 37.333 21.334 52 38.001s28.334 37.334 41.001 62.001s23 58.167 31 100.5s12 86.833 12 133.5c0 20.667 -3.33301 33.667 -10 39s-27 9.66602 -61 12.999v28z" />
    <glyph glyph-name="edieresis" unicode="&#x43b;" horiz-adv-x="497" 
d="M71 434l403.998 -0.000976562v-28c-34 -3.33301 -54.667 -8.16602 -62 -14.499s-11 -23.5 -11 -51.5v-246c0 -27.333 3.83301 -44.5 11.5 -51.5s28.167 -11.833 61.5 -14.5v-28h-249v28c34 3.33301 54.667 8.16602 62 14.499s11 23.5 11 51.5v263
c0 14 -0.666992 23 -2 27c-3.33301 9.33301 -15.333 14 -36 14h-35c-19.333 0 -31 -2 -35 -6s-6 -15 -6 -33c0 -88.667 -7.66699 -162.667 -23 -222c-12 -47.333 -29 -85.333 -51 -114c-10 -12 -19.833 -20.833 -29.5 -26.5s-18.5 -8.5 -26.5 -8.5
c-11.333 0 -27.666 3 -48.999 9v23c20 8.66699 37.333 21.334 52 38.001s28.334 37.334 41.001 62.001s23 58.167 31 100.5s12 86.833 12 133.5c0 20.667 -3.33301 33.667 -10 39s-27 9.66602 -61 12.999v28z" />
    <glyph glyph-name="igrave" unicode="&#xec;" horiz-adv-x="662" 
d="M465 434h165.996v-28c-32 0 -51.333 -3.66699 -58 -11s-10 -28 -10 -62l4 -233c0 -32.667 3.5 -52.834 10.5 -60.501s26.5 -11.5 58.5 -11.5v-28h-227v28c30.667 0 49.334 3.66699 56.001 11s10 27.666 10 60.999l-1 261l-163 -353h-21l-143 336l-10 -153v-28v-20v-15
v-12c0 -10 -0.166992 -18.833 -0.5 -26.5s-0.5 -14.5 -0.5 -20.5c1.33301 -14 7.33301 -24.333 18 -31s28.667 -10 54 -10v-28h-184v28c20.667 0 35.334 3 44.001 9s14.334 15.667 17.001 29c0.666992 4.66699 2.83398 16.834 6.50098 36.501s5.5 44.834 5.5 75.501l8 141
c0 42 -2.5 67 -7.5 75s-23.167 12 -54.5 12v28h156l131 -288z" />
    <glyph glyph-name="igrave" unicode="&#x43c;" horiz-adv-x="662" 
d="M465 434h165.996v-28c-32 0 -51.333 -3.66699 -58 -11s-10 -28 -10 -62l4 -233c0 -32.667 3.5 -52.834 10.5 -60.501s26.5 -11.5 58.5 -11.5v-28h-227v28c30.667 0 49.334 3.66699 56.001 11s10 27.666 10 60.999l-1 261l-163 -353h-21l-143 336l-10 -153v-28v-20v-15
v-12c0 -10 -0.166992 -18.833 -0.5 -26.5s-0.5 -14.5 -0.5 -20.5c1.33301 -14 7.33301 -24.333 18 -31s28.667 -10 54 -10v-28h-184v28c20.667 0 35.334 3 44.001 9s14.334 15.667 17.001 29c0.666992 4.66699 2.83398 16.834 6.50098 36.501s5.5 44.834 5.5 75.501l8 141
c0 42 -2.5 67 -7.5 75s-23.167 12 -54.5 12v28h156l131 -288z" />
    <glyph glyph-name="iacute" unicode="&#xed;" horiz-adv-x="569" 
d="M197 247h175.001v93c0 28 -3.16699 45.333 -9.5 52s-23.5 11.334 -51.5 14.001v28h229v-28c-30 0 -48.333 -3.66699 -55 -11s-10 -25.666 -10 -54.999v-246c0 -28.667 3.5 -46.834 10.5 -54.501s25.5 -11.5 55.5 -11.5v-28h-229v28
c27.333 2.66699 44.166 7.33398 50.499 14.001s9.5 24 9.5 52v118h-175v-118c0 -28 3 -45.333 9 -52s21.667 -11.334 47 -14.001v-28h-225v28c30 0 48.5 3.83301 55.5 11.5s10.5 25.834 10.5 54.501v246c0 29.333 -3.66699 47.666 -11 54.999s-26.333 11 -57 11v28h228v-28
c-26 -2.66699 -42 -7.33398 -48 -14.001s-9 -24 -9 -52v-93z" />
    <glyph glyph-name="iacute" unicode="&#x43d;" horiz-adv-x="569" 
d="M197 247h175.001v93c0 28 -3.16699 45.333 -9.5 52s-23.5 11.334 -51.5 14.001v28h229v-28c-30 0 -48.333 -3.66699 -55 -11s-10 -25.666 -10 -54.999v-246c0 -28.667 3.5 -46.834 10.5 -54.501s25.5 -11.5 55.5 -11.5v-28h-229v28
c27.333 2.66699 44.166 7.33398 50.499 14.001s9.5 24 9.5 52v118h-175v-118c0 -28 3 -45.333 9 -52s21.667 -11.334 47 -14.001v-28h-225v28c30 0 48.5 3.83301 55.5 11.5s10.5 25.834 10.5 54.501v246c0 29.333 -3.66699 47.666 -11 54.999s-26.333 11 -57 11v28h228v-28
c-26 -2.66699 -42 -7.33398 -48 -14.001s-9 -24 -9 -52v-93z" />
    <glyph glyph-name="icircumflex" unicode="&#xee;" horiz-adv-x="521" 
d="M369 201c0 63.333 -10.333 114.499 -31 153.499s-49.667 58.5 -87 58.5c-28 0 -51 -14.333 -69 -43c-20 -31.333 -30 -72.666 -30 -123.999c0 -64 11.167 -116.833 33.5 -158.5s51.833 -62.5 88.5 -62.5c27.333 0 49 11.667 65 35c20 29.333 30 76.333 30 141z
M36 206.999c0 75.333 25.334 136 76.001 182c44 40 95 60 153 60c65.333 0 118.666 -21.667 159.999 -65s62 -95.666 62 -156.999c0 -74.667 -23.667 -134.334 -71 -179.001c-42.667 -40 -94 -60 -154 -60c-69.333 0 -125.333 23.333 -168 70c-38.667 42 -58 91.667 -58 149
z" />
    <glyph glyph-name="icircumflex" unicode="&#x43e;" horiz-adv-x="521" 
d="M369 201c0 63.333 -10.333 114.499 -31 153.499s-49.667 58.5 -87 58.5c-28 0 -51 -14.333 -69 -43c-20 -31.333 -30 -72.666 -30 -123.999c0 -64 11.167 -116.833 33.5 -158.5s51.833 -62.5 88.5 -62.5c27.333 0 49 11.667 65 35c20 29.333 30 76.333 30 141z
M36 206.999c0 75.333 25.334 136 76.001 182c44 40 95 60 153 60c65.333 0 118.666 -21.667 159.999 -65s62 -95.666 62 -156.999c0 -74.667 -23.667 -134.334 -71 -179.001c-42.667 -40 -94 -60 -154 -60c-69.333 0 -125.333 23.333 -168 70c-38.667 42 -58 91.667 -58 149
z" />
    <glyph glyph-name="idieresis" unicode="&#xef;" horiz-adv-x="570" 
d="M27 434l516 0.000976562v-28c-31.333 -2.66699 -50.5 -7.5 -57.5 -14.5s-10.5 -24.167 -10.5 -51.5v-246c0 -27.333 3.5 -44.333 10.5 -51s26.167 -11.667 57.5 -15v-28h-232v28c28 2.66699 45.167 7.33398 51.5 14.001s9.5 24 9.5 52v267
c0 17.333 -1.83301 27.833 -5.5 31.5s-14.5 5.5 -32.5 5.5h-99c-17.333 0 -27.833 -1.83301 -31.5 -5.5s-5.5 -14.167 -5.5 -31.5v-267c0 -28 3 -45.333 9 -52s21.667 -11.334 47 -14.001v-28h-226v28c31.333 3.33301 50.333 8.16602 57 14.499s10 23.5 10 51.5v246
c0 27.333 -3.5 44.333 -10.5 51s-26.167 11.667 -57.5 15v28z" />
    <glyph glyph-name="idieresis" unicode="&#x43f;" horiz-adv-x="570" 
d="M27 434l516 0.000976562v-28c-31.333 -2.66699 -50.5 -7.5 -57.5 -14.5s-10.5 -24.167 -10.5 -51.5v-246c0 -27.333 3.5 -44.333 10.5 -51s26.167 -11.667 57.5 -15v-28h-232v28c28 2.66699 45.167 7.33398 51.5 14.001s9.5 24 9.5 52v267
c0 17.333 -1.83301 27.833 -5.5 31.5s-14.5 5.5 -32.5 5.5h-99c-17.333 0 -27.833 -1.83301 -31.5 -5.5s-5.5 -14.167 -5.5 -31.5v-267c0 -28 3 -45.333 9 -52s21.667 -11.334 47 -14.001v-28h-226v28c31.333 3.33301 50.333 8.16602 57 14.499s10 23.5 10 51.5v246
c0 27.333 -3.5 44.333 -10.5 51s-26.167 11.667 -57.5 15v28z" />
    <glyph glyph-name="eth" unicode="&#xf0;" horiz-adv-x="536" 
d="M187 456l0.000976562 -69.9961l100 54c10 4 23.333 6 40 6c53.333 0 96 -20 128 -60c28.667 -36 43 -78.667 43 -128c0 -71.333 -23.667 -131.333 -71 -180c-43.333 -45.333 -100.333 -75.333 -171 -90c-14 0 -26.833 1.5 -38.5 4.5s-21.834 6.83301 -30.501 11.5v-135
c0 -27.333 4.66699 -45 14 -53s33.333 -12 72 -12v-28h-257v28c31.333 3.33301 50.5 8.16602 57.5 14.499s10.5 23.166 10.5 50.499v456c0 27.333 -3 43.666 -9 48.999s-25.667 9.66602 -59 12.999v23c30.667 6 63 14.167 97 24.5s58.667 17.5 74 21.5zM187.001 347.004
l-0.000976562 -274.001c13.333 -11.333 27.333 -20 42 -26s31.334 -9 50.001 -9c28 0 52.333 12 73 36c26 30.667 39 75.334 39 134.001c0 58 -12.333 101.667 -37 131c-21.333 25.333 -50 38 -86 38c-14 0 -27.5 -2.5 -40.5 -7.5s-26.5 -12.5 -40.5 -22.5z" />
    <glyph glyph-name="eth" unicode="&#x440;" horiz-adv-x="536" 
d="M187 456l0.000976562 -69.9961l100 54c10 4 23.333 6 40 6c53.333 0 96 -20 128 -60c28.667 -36 43 -78.667 43 -128c0 -71.333 -23.667 -131.333 -71 -180c-43.333 -45.333 -100.333 -75.333 -171 -90c-14 0 -26.833 1.5 -38.5 4.5s-21.834 6.83301 -30.501 11.5v-135
c0 -27.333 4.66699 -45 14 -53s33.333 -12 72 -12v-28h-257v28c31.333 3.33301 50.5 8.16602 57.5 14.499s10.5 23.166 10.5 50.499v456c0 27.333 -3 43.666 -9 48.999s-25.667 9.66602 -59 12.999v23c30.667 6 63 14.167 97 24.5s58.667 17.5 74 21.5zM187.001 347.004
l-0.000976562 -274.001c13.333 -11.333 27.333 -20 42 -26s31.334 -9 50.001 -9c28 0 52.333 12 73 36c26 30.667 39 75.334 39 134.001c0 58 -12.333 101.667 -37 131c-21.333 25.333 -50 38 -86 38c-14 0 -27.5 -2.5 -40.5 -7.5s-26.5 -12.5 -40.5 -22.5z" />
    <glyph glyph-name="ntilde" unicode="&#xf1;" horiz-adv-x="421" 
d="M394 115l18 -17.999c-21.333 -32 -46.833 -58.167 -76.5 -78.5s-59.5 -30.5 -89.5 -30.5c-64.667 0 -116.667 21.333 -156 64c-36.667 39.333 -55 87.666 -55 144.999c0 37.333 8 72.333 24 105s38.333 60.167 67 82.5s60 38.833 94 49.5c26 8 50.333 12 73 12
c14.667 0 31 -2.5 49 -7.5s31.333 -11.167 40 -18.5s13 -16.333 13 -27c0 -13.333 -4.16699 -25.166 -12.5 -35.499s-16.5 -15.5 -24.5 -15.5c-6 0 -12.333 3 -19 9c-18 15.333 -35.667 26.333 -53 33s-33.666 10 -48.999 10c-24 0 -45 -10 -63 -30
c-24 -26.667 -36 -65.334 -36 -116.001c0 -62.667 18.333 -110.667 55 -144c27.333 -25.333 57.333 -38 90 -38c22 0 40.667 3.33301 56 10s33.666 19.667 54.999 39z" />
    <glyph glyph-name="ntilde" unicode="&#x441;" horiz-adv-x="421" 
d="M394 115l18 -17.999c-21.333 -32 -46.833 -58.167 -76.5 -78.5s-59.5 -30.5 -89.5 -30.5c-64.667 0 -116.667 21.333 -156 64c-36.667 39.333 -55 87.666 -55 144.999c0 37.333 8 72.333 24 105s38.333 60.167 67 82.5s60 38.833 94 49.5c26 8 50.333 12 73 12
c14.667 0 31 -2.5 49 -7.5s31.333 -11.167 40 -18.5s13 -16.333 13 -27c0 -13.333 -4.16699 -25.166 -12.5 -35.499s-16.5 -15.5 -24.5 -15.5c-6 0 -12.333 3 -19 9c-18 15.333 -35.667 26.333 -53 33s-33.666 10 -48.999 10c-24 0 -45 -10 -63 -30
c-24 -26.667 -36 -65.334 -36 -116.001c0 -62.667 18.333 -110.667 55 -144c27.333 -25.333 57.333 -38 90 -38c22 0 40.667 3.33301 56 10s33.666 19.667 54.999 39z" />
    <glyph glyph-name="ograve" unicode="&#xf2;" horiz-adv-x="457" 
d="M280 398l-0.000976562 -303.999c0 -27.333 3.83301 -44.5 11.5 -51.5s28.834 -11.833 63.501 -14.5v-28h-249v28c33.333 3.33301 53.5 8.16602 60.5 14.499s10.5 23.5 10.5 51.5v304h-32c-14.667 0 -27.5 -1.5 -38.5 -4.5s-19.167 -8.16699 -24.5 -15.5
c-12 -16 -22.333 -41.667 -31 -77l-29 3l9 130h395l9 -130l-28 -3c-10 37.333 -20.333 63 -31 77c-5.33301 7.33301 -13.333 12.5 -24 15.5s-23.667 4.5 -39 4.5h-33z" />
    <glyph glyph-name="ograve" unicode="&#x442;" horiz-adv-x="457" 
d="M280 398l-0.000976562 -303.999c0 -27.333 3.83301 -44.5 11.5 -51.5s28.834 -11.833 63.501 -14.5v-28h-249v28c33.333 3.33301 53.5 8.16602 60.5 14.499s10.5 23.5 10.5 51.5v304h-32c-14.667 0 -27.5 -1.5 -38.5 -4.5s-19.167 -8.16699 -24.5 -15.5
c-12 -16 -22.333 -41.667 -31 -77l-29 3l9 130h395l9 -130l-28 -3c-10 37.333 -20.333 63 -31 77c-5.33301 7.33301 -13.333 12.5 -24 15.5s-23.667 4.5 -39 4.5h-33z" />
    <glyph glyph-name="oacute" unicode="&#xf3;" horiz-adv-x="467" 
d="M227 434l-1.00098 -26.999l-32 -4c-11.333 -2 -17 -7.33301 -17 -16c0 -4 1 -9 3 -15l4 -12l89 -230c10.667 25.333 30 77.333 58 156c8.66699 24 17.334 49.333 26.001 76c4 12 6 20.333 6 25c0 8 -6.66699 13 -20 15l-38 5v27h184v-27c-26.667 -4 -43.667 -9 -51 -15
s-18.333 -23.667 -33 -53c-26.667 -55.333 -66.334 -148.333 -119.001 -279l-59 -141c-19.333 -46 -34.333 -78 -45 -96c-14 -24 -28 -41 -42 -51c-11.333 -8 -23.666 -12 -36.999 -12c-15.333 0 -28.166 5.16699 -38.499 15.5s-15.5 21.833 -15.5 34.5
c0 16.667 7.66699 27 23 31c28 7.33301 51.667 19.666 71 36.999c16 14 30 32.667 42 56c4.66699 10 9.16699 20.333 13.5 31s7.16602 18.667 8.49902 24s2 11 2 17s-1.33301 12.667 -4 20c-26 70 -49.333 130.333 -70 181l-55 132c-12.667 28 -23.5 45.667 -32.5 53
s-27.167 12.333 -54.5 15l-1 27h235z" />
    <glyph glyph-name="oacute" unicode="&#x443;" horiz-adv-x="467" 
d="M227 434l-1.00098 -26.999l-32 -4c-11.333 -2 -17 -7.33301 -17 -16c0 -4 1 -9 3 -15l4 -12l89 -230c10.667 25.333 30 77.333 58 156c8.66699 24 17.334 49.333 26.001 76c4 12 6 20.333 6 25c0 8 -6.66699 13 -20 15l-38 5v27h184v-27c-26.667 -4 -43.667 -9 -51 -15
s-18.333 -23.667 -33 -53c-26.667 -55.333 -66.334 -148.333 -119.001 -279l-59 -141c-19.333 -46 -34.333 -78 -45 -96c-14 -24 -28 -41 -42 -51c-11.333 -8 -23.666 -12 -36.999 -12c-15.333 0 -28.166 5.16699 -38.499 15.5s-15.5 21.833 -15.5 34.5
c0 16.667 7.66699 27 23 31c28 7.33301 51.667 19.666 71 36.999c16 14 30 32.667 42 56c4.66699 10 9.16699 20.333 13.5 31s7.16602 18.667 8.49902 24s2 11 2 17s-1.33301 12.667 -4 20c-26 70 -49.333 130.333 -70 181l-55 132c-12.667 28 -23.5 45.667 -32.5 53
s-27.167 12.333 -54.5 15l-1 27h235z" />
    <glyph glyph-name="ocircumflex" unicode="&#xf4;" horiz-adv-x="747" 
d="M425 372l-0.000976562 -317c16.667 -20 39.334 -30 68.001 -30c23.333 0 43.333 10.667 60 32c25.333 32 38 83.667 38 155c0 58 -8 104.333 -24 139c-18 39.333 -45 59 -81 59c-26 0 -46.333 -12.667 -61 -38zM424.999 710l-0.000976562 -290c28.667 17.333 58 26 88 26
c57.333 0 104.5 -20.833 141.5 -62.5s55.5 -94.167 55.5 -157.5c0 -71.333 -19.833 -128.833 -59.5 -172.5s-88.167 -65.5 -145.5 -65.5c-16 0 -30.333 1.33301 -43 4s-25 8 -37 16v-136c0 -27.333 3.83301 -44.5 11.5 -51.5s28.5 -11.833 62.5 -14.5v-28h-251v28
c34.667 3.33301 55.667 8.16602 63 14.499s11 23.5 11 51.5v140c-14 -8 -28.667 -14 -44 -18s-30 -6 -44 -6c-56 0 -102.833 20.833 -140.5 62.5s-56.5 94.834 -56.5 159.501c0 70 19.5 126.833 58.5 170.5s88.5 65.5 148.5 65.5c13.333 0 26.833 -1.83301 40.5 -5.5
s26.167 -9.16699 37.5 -16.5v161c0 30 -3.66699 48.333 -11 55s-28.666 10 -63.999 10v25c32.667 4 66.667 9.66699 102 17c20.667 4 46 10 76 18zM321.998 59l-0.000976562 318c-16 22 -38.667 33 -68 33c-26.667 0 -49 -14.667 -67 -44c-20.667 -33.333 -31 -80 -31 -140
c0 -66 11 -117 33 -153c19.333 -32 44 -48 74 -48c10.667 0 20.834 3 30.501 9s19.167 14.333 28.5 25z" />
    <glyph glyph-name="ocircumflex" unicode="&#x444;" horiz-adv-x="747" 
d="M425 372l-0.000976562 -317c16.667 -20 39.334 -30 68.001 -30c23.333 0 43.333 10.667 60 32c25.333 32 38 83.667 38 155c0 58 -8 104.333 -24 139c-18 39.333 -45 59 -81 59c-26 0 -46.333 -12.667 -61 -38zM424.999 710l-0.000976562 -290c28.667 17.333 58 26 88 26
c57.333 0 104.5 -20.833 141.5 -62.5s55.5 -94.167 55.5 -157.5c0 -71.333 -19.833 -128.833 -59.5 -172.5s-88.167 -65.5 -145.5 -65.5c-16 0 -30.333 1.33301 -43 4s-25 8 -37 16v-136c0 -27.333 3.83301 -44.5 11.5 -51.5s28.5 -11.833 62.5 -14.5v-28h-251v28
c34.667 3.33301 55.667 8.16602 63 14.499s11 23.5 11 51.5v140c-14 -8 -28.667 -14 -44 -18s-30 -6 -44 -6c-56 0 -102.833 20.833 -140.5 62.5s-56.5 94.834 -56.5 159.501c0 70 19.5 126.833 58.5 170.5s88.5 65.5 148.5 65.5c13.333 0 26.833 -1.83301 40.5 -5.5
s26.167 -9.16699 37.5 -16.5v161c0 30 -3.66699 48.333 -11 55s-28.666 10 -63.999 10v25c32.667 4 66.667 9.66699 102 17c20.667 4 46 10 76 18zM321.998 59l-0.000976562 318c-16 22 -38.667 33 -68 33c-26.667 0 -49 -14.667 -67 -44c-20.667 -33.333 -31 -80 -31 -140
c0 -66 11 -117 33 -153c19.333 -32 44 -48 74 -48c10.667 0 20.834 3 30.501 9s19.167 14.333 28.5 25z" />
    <glyph glyph-name="otilde" unicode="&#xf5;" horiz-adv-x="480" 
d="M286 434l185.002 0.000976562v-28c-34 -3.33301 -56.833 -7.66602 -68.5 -12.999s-27.834 -20.666 -48.501 -45.999l-29 -37l-45 -60l101 -153c18.667 -28 34 -45.667 46 -53s32 -12.666 60 -15.999v-28h-237v28l29 4c10 1.33301 15 5.66602 15 12.999
c0 5.33301 -3 12.666 -9 21.999l-65 99c-24.667 -35.333 -38.334 -55.333 -41.001 -60l-22 -37c-7.33301 -12.667 -11 -21.334 -11 -26.001s4.66699 -8 14 -10l29 -5v-28h-188v28c31.333 4.66699 52 9.33398 62 14.001c15.333 7.33301 32.666 23.666 51.999 48.999l83 110
l-93 144c-16 24.667 -29 40.334 -39 47.001s-28.333 11.334 -55 14.001v28h221v-28l-26 -4c-9.33301 -0.666992 -14 -4.33398 -14 -11.001c0 -6 2.66699 -12.667 8 -20l58 -87c20.667 29.333 38.334 56 53.001 80c0.666992 1.33301 3 5.66602 7 12.999s6 12.666 6 15.999
c0 6 -4 9.33301 -12 10l-26 3v28z" />
    <glyph glyph-name="otilde" unicode="&#x445;" horiz-adv-x="480" 
d="M286 434l185.002 0.000976562v-28c-34 -3.33301 -56.833 -7.66602 -68.5 -12.999s-27.834 -20.666 -48.501 -45.999l-29 -37l-45 -60l101 -153c18.667 -28 34 -45.667 46 -53s32 -12.666 60 -15.999v-28h-237v28l29 4c10 1.33301 15 5.66602 15 12.999
c0 5.33301 -3 12.666 -9 21.999l-65 99c-24.667 -35.333 -38.334 -55.333 -41.001 -60l-22 -37c-7.33301 -12.667 -11 -21.334 -11 -26.001s4.66699 -8 14 -10l29 -5v-28h-188v28c31.333 4.66699 52 9.33398 62 14.001c15.333 7.33301 32.666 23.666 51.999 48.999l83 110
l-93 144c-16 24.667 -29 40.334 -39 47.001s-28.333 11.334 -55 14.001v28h221v-28l-26 -4c-9.33301 -0.666992 -14 -4.33398 -14 -11.001c0 -6 2.66699 -12.667 8 -20l58 -87c20.667 29.333 38.334 56 53.001 80c0.666992 1.33301 3 5.66602 7 12.999s6 12.666 6 15.999
c0 6 -4 9.33301 -12 10l-26 3v28z" />
    <glyph glyph-name="odieresis" unicode="&#xf6;" horiz-adv-x="586" 
d="M371 73l-0.000976562 267.002c0 28 -3.16699 45.333 -9.5 52s-23.5 11.334 -51.5 14.001v28h232v-28c-31.333 -2.66699 -50.5 -7.5 -57.5 -14.5s-10.5 -24.167 -10.5 -51.5v-244c0 -28 2.33301 -45.833 7 -53.5s14 -11.5 28 -11.5h20c14 0 21 -7.66699 21 -23v-136h-32
l-8 43c-6 34 -12.667 56 -20 66c-9.33301 12.667 -26.666 19 -51.999 19h-413v28c32.667 3.33301 52.5 8.16602 59.5 14.499s10.5 23.5 10.5 51.5v246c0 28 -3.5 45.167 -10.5 51.5s-26.833 11.166 -59.5 14.499v28h226v-28c-24 -2.66699 -38.833 -7.33398 -44.5 -14.001
s-8.5 -24 -8.5 -52v-267c0 -17.333 2 -28 6 -32s14.333 -6 31 -6h100c16 0 26 2 30 6s6 14.667 6 32z" />
    <glyph glyph-name="odieresis" unicode="&#x446;" horiz-adv-x="586" 
d="M371 73l-0.000976562 267.002c0 28 -3.16699 45.333 -9.5 52s-23.5 11.334 -51.5 14.001v28h232v-28c-31.333 -2.66699 -50.5 -7.5 -57.5 -14.5s-10.5 -24.167 -10.5 -51.5v-244c0 -28 2.33301 -45.833 7 -53.5s14 -11.5 28 -11.5h20c14 0 21 -7.66699 21 -23v-136h-32
l-8 43c-6 34 -12.667 56 -20 66c-9.33301 12.667 -26.666 19 -51.999 19h-413v28c32.667 3.33301 52.5 8.16602 59.5 14.499s10.5 23.5 10.5 51.5v246c0 28 -3.5 45.167 -10.5 51.5s-26.833 11.166 -59.5 14.499v28h226v-28c-24 -2.66699 -38.833 -7.33398 -44.5 -14.001
s-8.5 -24 -8.5 -52v-267c0 -17.333 2 -28 6 -32s14.333 -6 31 -6h100c16 0 26 2 30 6s6 14.667 6 32z" />
    <glyph glyph-name="divide" unicode="&#xf7;" horiz-adv-x="529" 
d="M434 343l-0.00195312 -248.998c0 -28 3.5 -45.167 10.5 -51.5s27.167 -11.166 60.5 -14.499v-28h-253v28c36 0 58.167 3.83301 66.5 11.5s12.5 25.834 12.5 54.501v95l-59 -7c-16.667 -2 -31 -3 -43 -3c-52 0 -91 11 -117 33c-11.333 9.33301 -19.666 21 -24.999 35
s-8 31.667 -8 53v41c0 27.333 -3.16699 44.166 -9.5 50.499s-24.166 11.166 -53.499 14.499v28h218v-28c-23.333 -3.33301 -37.833 -8 -43.5 -14s-8.5 -21.333 -8.5 -46v-51c0 -29.333 7.33301 -50.333 22 -63s35.334 -19 62.001 -19c9.33301 0 19.666 0.666992 30.999 2
s22.666 3 33.999 5v123c0 26 -2.66699 42.167 -8 48.5s-19.666 11.166 -42.999 14.499v28h225v-28c-32.667 -2.66699 -52.667 -7.33398 -60 -14.001s-11 -23 -11 -49z" />
    <glyph glyph-name="divide" unicode="&#x447;" horiz-adv-x="529" 
d="M434 343l-0.00195312 -248.998c0 -28 3.5 -45.167 10.5 -51.5s27.167 -11.166 60.5 -14.499v-28h-253v28c36 0 58.167 3.83301 66.5 11.5s12.5 25.834 12.5 54.501v95l-59 -7c-16.667 -2 -31 -3 -43 -3c-52 0 -91 11 -117 33c-11.333 9.33301 -19.666 21 -24.999 35
s-8 31.667 -8 53v41c0 27.333 -3.16699 44.166 -9.5 50.499s-24.166 11.166 -53.499 14.499v28h218v-28c-23.333 -3.33301 -37.833 -8 -43.5 -14s-8.5 -21.333 -8.5 -46v-51c0 -29.333 7.33301 -50.333 22 -63s35.334 -19 62.001 -19c9.33301 0 19.666 0.666992 30.999 2
s22.666 3 33.999 5v123c0 26 -2.66699 42.167 -8 48.5s-19.666 11.166 -42.999 14.499v28h225v-28c-32.667 -2.66699 -52.667 -7.33398 -60 -14.001s-11 -23 -11 -49z" />
    <glyph glyph-name="oslash" unicode="&#xf8;" horiz-adv-x="843" 
d="M95 94l0.000976562 246c0 29.333 -3.66699 47.666 -11 54.999s-26.333 11 -57 11v28h228v-28c-26 -2.66699 -42 -7.33398 -48 -14.001s-9 -24 -9 -52v-267c0 -17.333 1.83301 -27.833 5.5 -31.5s14.5 -5.5 32.5 -5.5h96c18 0 28.833 1.83301 32.5 5.5
s5.5 14.167 5.5 31.5v267c0 28.667 -3.5 46.834 -10.5 54.501s-25.5 11.5 -55.5 11.5v28h226v-28c-26 -2.66699 -42 -7.33398 -48 -14.001s-9 -24 -9 -52v-267c0 -17.333 1.83301 -27.833 5.5 -31.5s14.5 -5.5 32.5 -5.5h96c18 0 28.833 1.83301 32.5 5.5
s5.5 14.167 5.5 31.5v267c0 28 -3 45.333 -9 52s-23 11.334 -51 14.001v28h229v-28c-29.333 0 -47.666 -3.66699 -54.999 -11s-11 -25.666 -11 -54.999v-246c0 -29.333 3.66699 -47.666 11 -54.999s26.666 -11 57.999 -11v-28h-791v28c31.333 0 50.666 3.66699 57.999 11
s11 25.666 11 54.999z" />
    <glyph glyph-name="oslash" unicode="&#x448;" horiz-adv-x="843" 
d="M95 94l0.000976562 246c0 29.333 -3.66699 47.666 -11 54.999s-26.333 11 -57 11v28h228v-28c-26 -2.66699 -42 -7.33398 -48 -14.001s-9 -24 -9 -52v-267c0 -17.333 1.83301 -27.833 5.5 -31.5s14.5 -5.5 32.5 -5.5h96c18 0 28.833 1.83301 32.5 5.5
s5.5 14.167 5.5 31.5v267c0 28.667 -3.5 46.834 -10.5 54.501s-25.5 11.5 -55.5 11.5v28h226v-28c-26 -2.66699 -42 -7.33398 -48 -14.001s-9 -24 -9 -52v-267c0 -17.333 1.83301 -27.833 5.5 -31.5s14.5 -5.5 32.5 -5.5h96c18 0 28.833 1.83301 32.5 5.5
s5.5 14.167 5.5 31.5v267c0 28 -3 45.333 -9 52s-23 11.334 -51 14.001v28h229v-28c-29.333 0 -47.666 -3.66699 -54.999 -11s-11 -25.666 -11 -54.999v-246c0 -29.333 3.66699 -47.666 11 -54.999s26.666 -11 57.999 -11v-28h-791v28c31.333 0 50.666 3.66699 57.999 11
s11 25.666 11 54.999z" />
    <glyph glyph-name="ugrave" unicode="&#xf9;" horiz-adv-x="857" 
d="M95 102l0.000976562 238.001c0 28.667 -3.33301 46 -10 52s-26.667 10.667 -60 14v28h230v-28c-26 -2.66699 -42 -7.33398 -48 -14.001s-9 -24 -9 -52v-267c0 -17.333 1.83301 -27.833 5.5 -31.5s14.5 -5.5 32.5 -5.5h97c18 0 28.833 1.83301 32.5 5.5
s5.5 14.167 5.5 31.5v267c0 28 -3.16699 45.333 -9.5 52s-23.833 11.334 -52.5 14.001v28h223v-28c-26.667 -2.66699 -43 -7.33398 -49 -14.001s-9 -24 -9 -52v-267c0 -17.333 1.83301 -27.833 5.5 -31.5s14.5 -5.5 32.5 -5.5h97c18 0 28.833 1.83301 32.5 5.5
s5.5 14.167 5.5 31.5v267c0 28 -3 45.333 -9 52s-23 11.334 -51 14.001v28h232v-28c-32 -2.66699 -51.5 -7.33398 -58.5 -14.001s-10.5 -24 -10.5 -52v-244c0 -28 2.33301 -45.833 7 -53.5s14 -11.5 28 -11.5h20c14 0 21 -7.66699 21 -23v-136h-32
c-8.66699 55.333 -17.667 90.5 -27 105.5s-27 22.5 -53 22.5h-688v28c31.333 0 50.666 4 57.999 12s11 28.667 11 62z" />
    <glyph glyph-name="ugrave" unicode="&#x449;" horiz-adv-x="857" 
d="M95 102l0.000976562 238.001c0 28.667 -3.33301 46 -10 52s-26.667 10.667 -60 14v28h230v-28c-26 -2.66699 -42 -7.33398 -48 -14.001s-9 -24 -9 -52v-267c0 -17.333 1.83301 -27.833 5.5 -31.5s14.5 -5.5 32.5 -5.5h97c18 0 28.833 1.83301 32.5 5.5
s5.5 14.167 5.5 31.5v267c0 28 -3.16699 45.333 -9.5 52s-23.833 11.334 -52.5 14.001v28h223v-28c-26.667 -2.66699 -43 -7.33398 -49 -14.001s-9 -24 -9 -52v-267c0 -17.333 1.83301 -27.833 5.5 -31.5s14.5 -5.5 32.5 -5.5h97c18 0 28.833 1.83301 32.5 5.5
s5.5 14.167 5.5 31.5v267c0 28 -3 45.333 -9 52s-23 11.334 -51 14.001v28h232v-28c-32 -2.66699 -51.5 -7.33398 -58.5 -14.001s-10.5 -24 -10.5 -52v-244c0 -28 2.33301 -45.833 7 -53.5s14 -11.5 28 -11.5h20c14 0 21 -7.66699 21 -23v-136h-32
c-8.66699 55.333 -17.667 90.5 -27 105.5s-27 22.5 -53 22.5h-688v28c31.333 0 50.666 4 57.999 12s11 28.667 11 62z" />
    <glyph glyph-name="uacute" unicode="&#xfa;" horiz-adv-x="614" 
d="M313 340v-76.999h83c123.333 0 185 -41.667 185 -125c0 -46 -20 -81 -60 -105c-36.667 -22 -88 -33 -154 -33h-228v28c33.333 3.33301 53.5 8.16602 60.5 14.499s10.5 23.5 10.5 51.5v268c0 17.333 -1.5 27.833 -4.5 31.5s-12.5 5.5 -28.5 5.5h-34
c-14 0 -26 -1.5 -36 -4.5s-17.667 -8.5 -23 -16.5c-10.667 -16 -21.667 -45.667 -33 -89l-29 4l10 103c1.33301 16 2 28.667 2 38h350v-27c-32 0 -51.833 -3.83301 -59.5 -11.5s-11.5 -26.167 -11.5 -55.5zM313 231.001l0.000976562 -153c0 -18.667 3.33301 -31 10 -37
s20 -9 40 -9c30.667 0 55 9 73 27s27 43.667 27 77c0 34 -9.83301 58.333 -29.5 73s-47.834 22 -84.501 22h-36z" />
    <glyph glyph-name="uacute" unicode="&#x44a;" horiz-adv-x="614" 
d="M313 340v-76.999h83c123.333 0 185 -41.667 185 -125c0 -46 -20 -81 -60 -105c-36.667 -22 -88 -33 -154 -33h-228v28c33.333 3.33301 53.5 8.16602 60.5 14.499s10.5 23.5 10.5 51.5v268c0 17.333 -1.5 27.833 -4.5 31.5s-12.5 5.5 -28.5 5.5h-34
c-14 0 -26 -1.5 -36 -4.5s-17.667 -8.5 -23 -16.5c-10.667 -16 -21.667 -45.667 -33 -89l-29 4l10 103c1.33301 16 2 28.667 2 38h350v-27c-32 0 -51.833 -3.83301 -59.5 -11.5s-11.5 -26.167 -11.5 -55.5zM313 231.001l0.000976562 -153c0 -18.667 3.33301 -31 10 -37
s20 -9 40 -9c30.667 0 55 9 73 27s27 43.667 27 77c0 34 -9.83301 58.333 -29.5 73s-47.834 22 -84.501 22h-36z" />
    <glyph glyph-name="ucircumflex" unicode="&#xfb;" horiz-adv-x="744" 
d="M537 94l-0.000976562 246c0 29.333 -3.66699 47.666 -11 54.999s-26.666 11 -57.999 11v28h240v-28c-30.667 0 -49.667 -3.66699 -57 -11s-11 -25.666 -11 -54.999v-246c0 -28.667 3.5 -46.834 10.5 -54.501s26.167 -11.5 57.5 -11.5v-28h-238v28
c30.667 0 49.5 3.83301 56.5 11.5s10.5 25.834 10.5 54.501zM192.999 340l-0.000976562 -77.0029h81c124 0 186 -42.333 186 -127c0 -44.667 -20.333 -79 -61 -103c-37.333 -22 -88.333 -33 -153 -33h-225v28c32 2.66699 51.5 7.33398 58.5 14.001s10.5 24 10.5 52v246
c0 28.667 -3.16699 46.334 -9.5 53.001s-24.166 11.334 -53.499 14.001v27h236v-27c-31.333 0 -50.833 -3.83301 -58.5 -11.5s-11.5 -26.167 -11.5 -55.5zM192.998 230.997l0.000976562 -153c0 -18.667 3.33301 -31 10 -37s19.667 -9 39 -9c30.667 0 55 9 73 27
s27 43.667 27 77c0 34 -9.83301 58.333 -29.5 73s-47.834 22 -84.501 22h-35z" />
    <glyph glyph-name="ucircumflex" unicode="&#x44b;" horiz-adv-x="744" 
d="M537 94l-0.000976562 246c0 29.333 -3.66699 47.666 -11 54.999s-26.666 11 -57.999 11v28h240v-28c-30.667 0 -49.667 -3.66699 -57 -11s-11 -25.666 -11 -54.999v-246c0 -28.667 3.5 -46.834 10.5 -54.501s26.167 -11.5 57.5 -11.5v-28h-238v28
c30.667 0 49.5 3.83301 56.5 11.5s10.5 25.834 10.5 54.501zM192.999 340l-0.000976562 -77.0029h81c124 0 186 -42.333 186 -127c0 -44.667 -20.333 -79 -61 -103c-37.333 -22 -88.333 -33 -153 -33h-225v28c32 2.66699 51.5 7.33398 58.5 14.001s10.5 24 10.5 52v246
c0 28.667 -3.16699 46.334 -9.5 53.001s-24.166 11.334 -53.499 14.001v27h236v-27c-31.333 0 -50.833 -3.83301 -58.5 -11.5s-11.5 -26.167 -11.5 -55.5zM192.998 230.997l0.000976562 -153c0 -18.667 3.33301 -31 10 -37s19.667 -9 39 -9c30.667 0 55 9 73 27
s27 43.667 27 77c0 34 -9.83301 58.333 -29.5 73s-47.834 22 -84.501 22h-35z" />
    <glyph glyph-name="udieresis" unicode="&#xfc;" horiz-adv-x="498" 
d="M197 340l0.000976562 -77h82c124 0 186 -42.333 186 -127c0 -45.333 -19.333 -79.333 -58 -102s-90.334 -34 -155.001 -34h-229v28c32 3.33301 51.833 8.33301 59.5 15s11.5 23.667 11.5 51v246c0 29.333 -3.5 47.833 -10.5 55.5s-25.167 11.5 -54.5 11.5v27h238v-27
c-31.333 0 -50.833 -3.83301 -58.5 -11.5s-11.5 -26.167 -11.5 -55.5zM197.001 231l-0.000976562 -153c0 -18.667 3.33301 -31 10 -37s19.334 -9 38.001 -9c32 0 57 8.83301 75 26.5s27 43.5 27 77.5s-9.83301 58.333 -29.5 73s-47.5 22 -83.5 22h-37z" />
    <glyph glyph-name="udieresis" unicode="&#x44c;" horiz-adv-x="498" 
d="M197 340l0.000976562 -77h82c124 0 186 -42.333 186 -127c0 -45.333 -19.333 -79.333 -58 -102s-90.334 -34 -155.001 -34h-229v28c32 3.33301 51.833 8.33301 59.5 15s11.5 23.667 11.5 51v246c0 29.333 -3.5 47.833 -10.5 55.5s-25.167 11.5 -54.5 11.5v27h238v-27
c-31.333 0 -50.833 -3.83301 -58.5 -11.5s-11.5 -26.167 -11.5 -55.5zM197.001 231l-0.000976562 -153c0 -18.667 3.33301 -31 10 -37s19.334 -9 38.001 -9c32 0 57 8.83301 75 26.5s27 43.5 27 77.5s-9.83301 58.333 -29.5 73s-47.5 22 -83.5 22h-37z" />
    <glyph glyph-name="yacute" unicode="&#xfd;" horiz-adv-x="462" 
d="M36 299l17.999 113.999c26 11.333 49.5 19.666 70.5 24.999s46.5 8 76.5 8c70.667 0 126 -19.667 166 -59s60 -92.666 60 -159.999c0 -70.667 -23.167 -128.167 -69.5 -172.5s-103.833 -66.5 -172.5 -66.5c-28 0 -54.5 4.33301 -79.5 13s-45.5 20.834 -61.5 36.501
s-24 31.167 -24 46.5c0 10 4 19.333 12 28s18 13 30 13c9.33301 0 16.833 -2.66699 22.5 -8s11.5 -15 17.5 -29c18.667 -43.333 49.667 -65 93 -65c39.333 0 69 21 89 63c16 34 24 76 24 126l-186 -9l2 54l183 -9c0 46.667 -9.66699 84.667 -29 114
c-22 32.667 -53 49 -93 49c-33.333 0 -60 -12.333 -80 -37c-13.333 -16.667 -26.666 -43.667 -39.999 -81z" />
    <glyph glyph-name="yacute" unicode="&#x44d;" horiz-adv-x="462" 
d="M36 299l17.999 113.999c26 11.333 49.5 19.666 70.5 24.999s46.5 8 76.5 8c70.667 0 126 -19.667 166 -59s60 -92.666 60 -159.999c0 -70.667 -23.167 -128.167 -69.5 -172.5s-103.833 -66.5 -172.5 -66.5c-28 0 -54.5 4.33301 -79.5 13s-45.5 20.834 -61.5 36.501
s-24 31.167 -24 46.5c0 10 4 19.333 12 28s18 13 30 13c9.33301 0 16.833 -2.66699 22.5 -8s11.5 -15 17.5 -29c18.667 -43.333 49.667 -65 93 -65c39.333 0 69 21 89 63c16 34 24 76 24 126l-186 -9l2 54l183 -9c0 46.667 -9.66699 84.667 -29 114
c-22 32.667 -53 49 -93 49c-33.333 0 -60 -12.333 -80 -37c-13.333 -16.667 -26.666 -43.667 -39.999 -81z" />
    <glyph glyph-name="thorn" unicode="&#xfe;" horiz-adv-x="770" 
d="M496 410c-27.333 0 -50.667 -15.002 -70 -45.002s-29 -70.333 -29 -121c0 -65.333 10.833 -118.166 32.5 -158.499s51.167 -60.5 88.5 -60.5c27.333 0 49.333 11.667 66 35c20.667 29.333 31 76 31 140c0 62.667 -10.5 113.334 -31.5 152.001s-50.167 58 -87.5 58z
M22.999 433.998l243 0.00195312v-28c-32 -2.66699 -51.5 -7.33398 -58.5 -14.001s-10.5 -24 -10.5 -52v-104h85c5.33301 64 32.333 116 81 156c44 36 93.667 54 149 54c66 0 119.667 -21.333 161 -64s62 -95 62 -157c0 -74.667 -23.667 -134 -71 -178
c-42.667 -39.333 -94.667 -59 -156 -59c-70 0 -126.333 22.667 -169 68c-39.333 41.333 -59 90.333 -59 147h-83v-109c0 -28 3.5 -45.167 10.5 -51.5s26.833 -11.166 59.5 -14.499v-28h-243v28c32.667 3.33301 52.5 8.16602 59.5 14.499s10.5 23.5 10.5 51.5v246
c0 28 -3.5 45.167 -10.5 51.5s-27.167 11.166 -60.5 14.499v28z" />
    <glyph glyph-name="thorn" unicode="&#x44e;" horiz-adv-x="770" 
d="M496 410c-27.333 0 -50.667 -15.002 -70 -45.002s-29 -70.333 -29 -121c0 -65.333 10.833 -118.166 32.5 -158.499s51.167 -60.5 88.5 -60.5c27.333 0 49.333 11.667 66 35c20.667 29.333 31 76 31 140c0 62.667 -10.5 113.334 -31.5 152.001s-50.167 58 -87.5 58z
M22.999 433.998l243 0.00195312v-28c-32 -2.66699 -51.5 -7.33398 -58.5 -14.001s-10.5 -24 -10.5 -52v-104h85c5.33301 64 32.333 116 81 156c44 36 93.667 54 149 54c66 0 119.667 -21.333 161 -64s62 -95 62 -157c0 -74.667 -23.667 -134 -71 -178
c-42.667 -39.333 -94.667 -59 -156 -59c-70 0 -126.333 22.667 -169 68c-39.333 41.333 -59 90.333 -59 147h-83v-109c0 -28 3.5 -45.167 10.5 -51.5s26.833 -11.166 59.5 -14.499v-28h-243v28c32.667 3.33301 52.5 8.16602 59.5 14.499s10.5 23.5 10.5 51.5v246
c0 28 -3.5 45.167 -10.5 51.5s-27.167 11.166 -60.5 14.499v28z" />
    <glyph glyph-name="ydieresis" unicode="&#xff;" horiz-adv-x="525" 
d="M327 221v151c0 14 -2 22.333 -6 25s-16.667 4 -38 4c-22.667 0 -42 -7 -58 -21c-18.667 -16.667 -28 -39 -28 -67c0 -15.333 3.5 -29.833 10.5 -43.5s17.167 -24.5 30.5 -32.5c8 -5.33301 18 -9.33301 30 -12s24.667 -4 38 -4h21zM327 95v94.0029h-32
c-24.667 0 -42.334 -7.66699 -53.001 -23c-7.33301 -8.66699 -15 -22.667 -23 -42l-22 -60c-9.33301 -25.333 -20.333 -42.333 -33 -51s-29.667 -13 -51 -13h-93v28c10 1.33301 19.167 3.33301 27.5 6s15.5 7 21.5 13c9.33301 8 18 19 26 33
c4.66699 8.66699 10.334 21 17.001 37c10 25.333 20.5 45.166 31.5 59.499s25.167 25.166 42.5 32.499c-32 7.33301 -57.5 20.166 -76.5 38.499s-28.5 40.833 -28.5 67.5c0 40 15.5 69.833 46.5 89.5s73.167 29.5 126.5 29.5h243v-28c-31.333 0 -50.333 -3.66699 -57 -11
s-10 -26 -10 -56v-244c0 -29.333 3.5 -47.833 10.5 -55.5s26.167 -11.5 57.5 -11.5v-28h-236v28c29.333 2.66699 47.5 7.5 54.5 14.5s10.5 24.5 10.5 52.5z" />
    <glyph glyph-name="ydieresis" unicode="&#x44f;" horiz-adv-x="525" 
d="M327 221v151c0 14 -2 22.333 -6 25s-16.667 4 -38 4c-22.667 0 -42 -7 -58 -21c-18.667 -16.667 -28 -39 -28 -67c0 -15.333 3.5 -29.833 10.5 -43.5s17.167 -24.5 30.5 -32.5c8 -5.33301 18 -9.33301 30 -12s24.667 -4 38 -4h21zM327 95v94.0029h-32
c-24.667 0 -42.334 -7.66699 -53.001 -23c-7.33301 -8.66699 -15 -22.667 -23 -42l-22 -60c-9.33301 -25.333 -20.333 -42.333 -33 -51s-29.667 -13 -51 -13h-93v28c10 1.33301 19.167 3.33301 27.5 6s15.5 7 21.5 13c9.33301 8 18 19 26 33
c4.66699 8.66699 10.334 21 17.001 37c10 25.333 20.5 45.166 31.5 59.499s25.167 25.166 42.5 32.499c-32 7.33301 -57.5 20.166 -76.5 38.499s-28.5 40.833 -28.5 67.5c0 40 15.5 69.833 46.5 89.5s73.167 29.5 126.5 29.5h243v-28c-31.333 0 -50.333 -3.66699 -57 -11
s-10 -26 -10 -56v-244c0 -29.333 3.5 -47.833 10.5 -55.5s26.167 -11.5 57.5 -11.5v-28h-236v28c29.333 2.66699 47.5 7.5 54.5 14.5s10.5 24.5 10.5 52.5z" />
    <glyph glyph-name="c274" unicode="&#x112;" horiz-adv-x="455" 
d="M294 600l-142 -123l-22 12l106 154c6.66699 10.667 14 16 22 16c4 0 10.667 -2.33301 20 -7l18 -10c9.33301 -5.33301 14 -11.333 14 -18c0 -8 -5.33301 -16 -16 -24zM469 600l-141 -123l-23 12l105 154c8 10.667 15.667 16 23 16c4 0 10.667 -2.33301 20 -7l18 -10
c9.33301 -5.33301 14 -11.333 14 -18c0 -8 -5.33301 -16 -16 -24z" />
    <glyph glyph-name="c275" unicode="&#x113;" horiz-adv-x="497" 
d="M462 384c0 -40.667 -3.33008 -80.999 -9.99707 -120.999c-8.66699 -51.333 -22 -95.333 -40 -132c-22 -46 -47 -80.333 -75 -103c-32.667 -26.667 -73.667 -40 -123 -40c-52.667 0 -95.167 18 -127.5 54s-48.5 81 -48.5 135c0 29.333 5.16699 57.5 15.5 84.5
s23.833 49.667 40.5 68s36 33.166 58 44.499c26.667 13.333 54.334 20 83.001 20c55.333 0 100.666 -20.667 135.999 -62c2.66699 9.33301 4.66699 22.666 6 39.999s2 36 2 56c0 30.667 -1.83301 58.834 -5.5 84.501s-10.167 49.5 -19.5 71.5
c-11.333 26 -27.333 45.667 -48 59s-47.334 20 -80.001 20c-18.667 0 -36.834 -2 -54.501 -6s-37.5 -13 -59.5 -27l-37 52c20.667 9.33301 40.5 16.333 59.5 21s40.833 7 65.5 7c46.667 0 89 -12.333 127 -37c35.333 -22.667 64.666 -54.667 87.999 -96
c17.333 -31.333 30 -66 38 -104c6 -30 9 -59.667 9 -89zM127.003 143.001c0 -32 5.66504 -58.667 16.998 -80c14.667 -28 36.334 -42 65.001 -42c24.667 0 47 9 67 27c16.667 15.333 31 36.666 43 63.999c22 56.667 36.667 116.334 44 179.001
c-12.667 16 -25.667 28.667 -39 38c-20 14 -41 21 -63 21c-33.333 0 -62 -16.333 -86 -49c-17.333 -24 -29.666 -49.167 -36.999 -75.5s-11 -53.833 -11 -82.5z" />
    <glyph glyph-name="c276" unicode="&#x114;" horiz-adv-x="382" 
d="M320 715h-259v56h259v-56z" />
    <glyph glyph-name="c277" unicode="&#x115;" horiz-adv-x="428" 
d="M393 237c0 -69.333 -21.833 -128.167 -65.5 -176.5s-96.5 -72.5 -158.5 -72.5c-40 0 -74.833 14.833 -104.5 44.5s-44.5 63.167 -44.5 100.5c0 17.333 1 27.833 3 31.5s7.83301 6.5 17.5 8.5s44 5.33301 103 10s109.5 7 151.5 7c0 60 -16 106 -48 138
c-28 28 -63 42 -105 42c-18.667 0 -35.5 -3 -50.5 -9s-33.167 -17.333 -54.5 -34l-14 17c24.667 36 54.667 63.333 90 82c25.333 13.333 49 20 71 20c64 0 115.333 -20.667 154 -62c36.667 -38.667 55 -87.667 55 -147zM290 146.999l-149.999 -3
c-8 0 -13.167 -1.5 -15.5 -4.5s-3.5 -10.5 -3.5 -22.5c0 -21.333 7.33301 -41.833 22 -61.5s32.667 -29.5 54 -29.5c22 0 42.167 11.5 60.5 34.5s29.166 51.833 32.499 86.5z" />
    <glyph glyph-name="c278" unicode="&#x116;" horiz-adv-x="332" 
d="M178 484h-25l-103 171l24 15l92 -107l92 107l24 -15z" />
    <glyph glyph-name="c279" unicode="&#x117;" 
d="M392 331l0.00683594 -37.9971h-125l1 -17c0 -26 -13.333 -56.333 -40 -91c-20 -26 -44 -50.333 -72 -73l72 -20c56 -18.667 104 -28 144 -28c11.333 0 20.5 2.33301 27.5 7s10.5 12.334 10.5 23.001c0 8 -2.66699 18.667 -8 32c-2 4 -3 8 -3 12c0 2 1 4.66699 3 8
c7.33301 8.66699 15.333 14.667 24 18s17.667 5 27 5c8 0 13.833 -3.5 17.5 -10.5s5.5 -15.167 5.5 -24.5c0 -18.667 -7.66699 -38.334 -23 -59.001s-33.666 -37.667 -54.999 -51c-16 -10.667 -32.833 -19.334 -50.5 -26.001s-34.834 -10 -51.501 -10
c-14 0 -30.833 2.83301 -50.5 8.5s-51.167 17.167 -94.5 34.5l-32 13c-10 4 -19 6 -27 6c-6.66699 0 -12.834 -3.16699 -18.501 -9.5s-9.5 -15.166 -11.5 -26.499c0 -9.33301 -7 -14 -21 -14c-8.66699 0 -15.834 2.83301 -21.501 8.5s-7.5 12.5 -5.5 20.5
c5.33301 13.333 16.666 28 33.999 44c12.667 12 30 25 52 39c38.667 24.667 58 64 58 118c0 10 -0.833008 20.167 -2.5 30.5s-4.16699 21.166 -7.5 32.499h-120v38h105c-10 26 -16.667 44.333 -20 55c-7.33301 22.667 -11 42.667 -11 60c0 24.667 5.66699 48.334 17 71.001
c14.667 28.667 37 53.667 67 75c17.333 12 35.333 21.833 54 29.5s36.667 12.5 54 14.5c22 0 43 -5 63 -15c13.333 -6.66699 25.666 -15.667 36.999 -27c4.66699 -4.66699 7 -10.334 7 -17.001c0 -4.66699 -1 -8.83398 -3 -12.501s-5.33301 -7.66699 -10 -12
s-11.334 -9.16602 -20.001 -14.499c-6.66699 -4.66699 -15.334 -3.33398 -26.001 3.99902c-15.333 10.667 -31.166 19.667 -47.499 27s-32.5 11 -48.5 11c-14.667 0 -27.667 -6 -39 -18s-17 -27.333 -17 -46c0 -16 2.83301 -32.833 8.5 -50.5s14.167 -36.834 25.5 -57.501
c9.33301 -17.333 16.666 -31.5 21.999 -42.5s9.66602 -22.5 12.999 -34.5h133z" />
    <glyph glyph-name="c280" unicode="&#x118;" horiz-adv-x="621" 
d="M340 663l271 -663h-601l301 654zM290 503l-210 -463h397z" />
    <glyph glyph-name="c281" unicode="&#x119;" 
d="M260 168l-0.00195312 326c-27.333 0 -51.666 -10.667 -72.999 -32c-28.667 -28 -43 -68 -43 -120c0 -48.667 13 -89 39 -121c20.667 -26 46.334 -43.667 77.001 -53zM301.998 490l0.00292969 -330.001c26 0 48 4 66 12s38.667 22 62 42l18 -20
c-19.333 -25.333 -42.333 -47.333 -69 -66s-52.334 -30.667 -77.001 -36v-100h-42v97c-62.667 0 -114.334 21.667 -155.001 65c-38 40 -57 87.333 -57 142c0 36 8.66699 70.667 26 104s41 61 71 83c18.667 13.333 38.167 24.333 58.5 33s39.166 15 56.499 19v85h42v-79l12 1
c42 0 76 -8 102 -24c9.33301 -7.33301 14 -16.666 14 -27.999c0 -12.667 -4.16699 -23.5 -12.5 -32.5s-16.833 -13.5 -25.5 -13.5c-6 0 -12 2.66699 -18 8c-25.333 21.333 -49.333 34 -72 38z" />
    <glyph glyph-name="c282" unicode="&#x11a;" horiz-adv-x="549" 
d="M402 549l49 -28l-76 -136h165v-55h-195l-78 -139h273v-55h-303l-90 -161l-49 28l74 133h-157v55h188l77 139h-265v55h296z" />
    <glyph glyph-name="c283" unicode="&#x11b;" horiz-adv-x="437" 
d="M178 680l-28 13l57 124c3.33301 8 9.33301 12 18 12c3.33301 0 9 -1.33301 17 -4l16 -7c11.333 -4.66699 17 -11 17 -19c0 -5.33301 -3.33301 -12 -10 -20zM394 754c0 -14.667 -4.66699 -26.667 -14 -36s-21.333 -14 -36 -14c-14 0 -25.5 4.5 -34.5 13.5
s-13.5 21.167 -13.5 36.5c0 14 4.5 26.167 13.5 36.5s20.833 15.5 35.5 15.5c13.333 0 24.833 -5.16699 34.5 -15.5s14.5 -22.5 14.5 -36.5zM141 754c0 -14.667 -4.66699 -26.667 -14 -36s-21.333 -14 -36 -14c-14 0 -25.5 4.5 -34.5 13.5s-13.5 21.167 -13.5 36.5
c0 14 4.5 26.167 13.5 36.5s20.833 15.5 35.5 15.5c13.333 0 24.833 -5.16699 34.5 -15.5s14.5 -22.5 14.5 -36.5z" />
    <glyph glyph-name="c284" unicode="&#x11c;" horiz-adv-x="586" 
d="M552 402v-48l-517 -235v55l457 204l-457 204v55zM552 50v-50h-517v50h517z" />
    <glyph glyph-name="c285" unicode="&#x11d;" horiz-adv-x="442" 
d="M162 714l-16 -20.001l-144 62c-15.333 6 -23 13.333 -23 22c0 4.66699 2.33301 10.334 7 17.001l9 12c10 10.667 18.333 16 25 16c6 0 12 -2.66699 18 -8zM344 713.999l-17 -20l-143 62c-16 6.66699 -24 13.667 -24 21c0 4.66699 2.66699 10.667 8 18l9 12
c10 10.667 18.333 16 25 16c6 0 12 -2.66699 18 -8z" />
    <glyph glyph-name="Gbreve" unicode="&#x11e;" horiz-adv-x="392" 
d="M195 693c-41.333 0 -74.332 7.16992 -98.999 21.5029s-37 34.166 -37 59.499c0 9.33301 3.16699 17.833 9.5 25.5s14.833 11.5 25.5 11.5c14 0 24.333 -5 31 -15c4.66699 -6.66699 7.66699 -15.334 9 -26.001c0 -28 20.667 -42 62 -42c39.333 0 60.333 14 63 42
c0 10 2.33301 18.333 7 25c7.33301 10.667 18 16 32 16c11.333 0 20.166 -3.83301 26.499 -11.5s9.5 -16.167 9.5 -25.5c0 -24.667 -13 -44.334 -39 -59.001s-59.333 -22 -100 -22z" />
    <glyph glyph-name="gbreve" unicode="&#x11f;" horiz-adv-x="519" 
d="M264 446c64 0 116.667 -21.667 158 -65s62 -95.333 62 -156c0 -73.333 -23.667 -132.333 -71 -177c-42.667 -40 -93 -60 -151 -60c-71.333 0 -128 23 -170 69c-38 41.333 -57 91.666 -57 150.999c0 74.667 25 134.334 75 179.001c44 39.333 95.333 59 154 59zM154 245
l209 0.000976562c0 50.667 -10.333 90.667 -31 120s-48 44 -82 44c-26 0 -48 -14 -66 -42c-20 -30.667 -30 -71.334 -30 -122.001zM365 203.001h-209c0 -52.667 10.833 -95.5 32.5 -128.5s49.5 -49.5 83.5 -49.5c26 0 47 12 63 36c20 30 30 77.333 30 142z" />
    <glyph glyph-name="c288" unicode="&#x120;" horiz-adv-x="586" 
d="M35 354v48l517 235v-55l-458 -204l458 -204v-55zM35 0v50h517v-50h-517z" />
    <glyph glyph-name="c289" unicode="&#x121;" horiz-adv-x="519" 
d="M366 201c0 57.333 -8.66699 102.333 -26 135c-20 38 -52 62 -96 72c-28.667 -8 -51.167 -27.333 -67.5 -58s-24.5 -70.667 -24.5 -120c0 -60.667 10.333 -110 31 -148s50 -57 88 -57c30 0 53.333 14 70 42s25 72.667 25 134zM34 205
c0 41.333 7.99707 77.665 23.9971 108.998s42 57 78 77l57 31c-45.333 15.333 -78.333 33.666 -99 54.999c-18 18.667 -27 41 -27 67c0 34.667 18 67.5 54 98.5s76.333 46.5 121 46.5c20.667 0 39.334 -0.666992 56.001 -2c50 -4 77.667 -6 83 -6
c11.333 0 23.333 0.166992 36 0.5s22.667 3.83301 30 10.5c3.33301 2.66699 6.83301 3.33398 10.5 2.00098s4.83398 -3.66602 3.50098 -6.99902c-10 -28 -24 -49.167 -42 -63.5s-41 -21.5 -69 -21.5c-13.333 0 -32.333 1.33301 -57 4c-55.333 6 -92 9 -110 9
c-24 0 -41.5 -4.16699 -52.5 -12.5s-16.5 -19.5 -16.5 -33.5c0 -18.667 11.333 -35.667 34 -51s52 -27.333 88 -36c86.667 -20.667 149.834 -51.5 189.501 -92.5s59.5 -96.833 59.5 -167.5c0 -73.333 -23.667 -131.666 -71 -174.999c-42.667 -39.333 -93.667 -59 -153 -59
c-68.667 0 -124.667 23 -168 69c-39.333 42 -59 91.333 -59 148z" />
    <glyph glyph-name="c290" unicode="&#x122;" horiz-adv-x="731" 
d="M25 263c0 38.667 14.0029 72.6699 42.0029 102.003s62.667 44 104 44s83.666 -16.667 126.999 -50c13.333 -10 35.666 -30 66.999 -60c44 39.333 74.667 64.666 92 75.999c35.333 22.667 72.666 34 111.999 34c38.667 0 71.167 -14.333 97.5 -43
s39.5 -62.334 39.5 -101.001c0 -42.667 -14.667 -77.667 -44 -105s-65.666 -41 -108.999 -41c-58.667 0 -121.334 36.667 -188.001 110c-40.667 -37.333 -70 -62 -88 -74c-36.667 -24 -75 -36 -115 -36c-37.333 0 -69.5 14.667 -96.5 44s-40.5 62.666 -40.5 99.999z
M79.0029 259.003c0 -26 9.83203 -47.5 29.499 -64.5s42.5 -25.5 68.5 -25.5c20.667 0 41 5.33301 61 16c23.333 12.667 54.333 39 93 79c-30.667 28.667 -55 48.667 -73 60c-31.333 20 -62 30 -92 30c-23.333 0 -43.666 -10 -60.999 -30s-26 -41.667 -26 -65z
M653.002 261.003c0 28 -10.002 50.501 -30.002 67.501s-44.333 25.5 -73 25.5c-27.333 0 -56.666 -11.333 -87.999 -34c-3.33301 -2.66699 -24.333 -21.334 -63 -56.001c50.667 -44.667 80.334 -69.667 89.001 -75c22 -13.333 44.333 -20 67 -20
c26 0 48.833 8.83301 68.5 26.5s29.5 39.5 29.5 65.5z" />
    </font>
</defs>
</svg>
